<?xml version="1.0" encoding="utf-8" ?><svg xmlns="http://www.w3.org/2000/svg" xmlns:xlink="http://www.w3.org/1999/xlink" width="1024" height="1024" viewBox="0 0 1024 1024"><path fill="white" d="M0 0L1024 0L1024 1024L0 1024L0 0Z"/><path fill="#040405" d="M623.807 61.6946C624.871 61.5796 625.703 61.5103 626.779 61.4834C635.98 61.236 645.117 63.0973 653.488 66.9249C658.449 69.1404 663.868 72.8366 668.618 75.6064C676.392 80.1395 684.094 84.71 691.763 89.4223L747.617 123.077C752.781 126.208 757.978 129.282 763.209 132.299C768.309 135.176 776.064 138.042 780.175 141.747C782.12 143.5 784.248 151.315 784.331 154.165C784.656 165.341 784.539 176.815 784.539 188.023L784.52 253.35L784.537 461.44C797.251 467.781 811.029 477.092 823.338 484.459C842.942 496.15 862.621 507.712 882.375 519.147C901.916 530.155 921.297 541.443 940.513 553.007C954.157 561.099 977.478 572.126 980.08 589.732C981.629 600.209 982.389 627.292 980.499 637.609C979.6 642.501 977.828 647.19 975.268 651.454C970.866 658.848 963.99 665.406 956.705 669.922C895.199 708.038 831.867 743.426 769.584 780.189C701.594 820.438 633.304 860.179 564.722 899.41L510.481 930.709L490.507 942.034C485.819 944.745 481.154 948.124 476.365 950.579C452.244 962.944 422.855 964.451 397.002 957.082C384.527 953.527 371.918 945.395 360.704 938.813L331.474 921.633L243.79 870.074C217.912 854.078 190.232 838.651 163.95 823.175C153.196 816.843 142.788 810.293 131.96 804.087L95.3581 782.913C78.772 773.41 60.6399 764.586 49.8175 748.115C46.8853 743.733 44.7848 738.848 43.6209 733.705C42.1392 726.929 42.1168 696.764 43.6215 689.955C48.6099 667.382 71.8017 654.884 90.167 644.561C96.4627 641.022 102.695 636.875 108.69 632.905L108.496 511.806L108.571 478.79C108.583 466.41 104.845 449.543 124.688 452.32C129.605 453.008 133.105 455.604 135.896 459.625C136.34 463.647 136.178 471.747 136.209 476.08L136.36 507.468C136.443 544.584 135.965 581.16 136.329 618.354C145.578 613.877 156.255 606.247 165.667 601.232C178.435 594.53 190.452 585.991 203.027 579.048C229.07 564.668 254.147 548.201 280.108 533.796C280.042 480.013 280.879 423.109 279.548 369.59C269.924 376.631 260.645 384.848 250.81 391.789C236.267 402.053 234.685 391.957 229.281 381.584C220.019 363.806 226.551 363.556 240.081 352.264C247.06 346.504 253.975 340.668 260.827 334.757C263.561 332.375 273.042 323.749 275.767 322.002C283.26 317.198 292.451 311.8 300.14 307.236L341.266 282.763C360.481 271.571 380.933 258.271 400.162 247.807C400.218 242.161 399.956 235.977 400.195 230.407C400.86 214.874 396.92 194.976 407.42 182.079C409.713 179.301 412.405 176.878 415.408 174.889C424.432 169.004 438.386 161.571 448.073 155.965L520.195 114.556L572.064 84.3397C589.47 74.1584 603.271 63.9006 623.807 61.6946Z"/><path fill="white" d="M767.694 139.64C778.743 141.792 780.468 149.672 780.493 159.602C780.57 190.477 780.543 221.354 780.549 252.229L780.525 436.782L780.572 533.247L780.643 563.755C780.65 568.607 780.676 573.452 780.566 578.303C779.983 604.06 756.278 611.942 737.477 623.175C708.857 640.385 680.131 657.418 651.3 674.273L604.258 702.745C596.64 707.355 588.885 712.173 581.129 716.534C577.843 718.382 574.072 718.615 570.399 718.673C569.13 718.275 567.879 717.821 566.65 717.313C563.057 715.787 560.274 713.051 558.918 709.372C556.412 702.576 557.635 647.148 557.589 635.292L557.493 399.144L557.523 325.656C557.522 306.936 555.068 282.346 563.502 265.519C566.096 260.283 569.917 255.752 574.64 252.311C579.847 248.554 590.52 242.826 596.381 239.331L645.148 210.551L727.181 161.889C737.622 155.765 757.288 143.104 767.694 139.64Z"/><path fill="#040405" d="M763.26 148.567C768.504 148.098 769.793 148.244 772.906 152.502C774.053 158.014 773.662 186.291 773.681 193.994L773.906 285.775L774.349 483.777L774.591 544.964C774.677 556.656 774.848 568.488 774.779 580.074C774.737 586.998 770.278 597.239 764.433 600.83C757.218 605.262 749.41 609.675 742.067 613.949L698.215 639.727L613.996 689.981C606.755 694.301 582.672 709.514 576.274 711.51C567.945 711.779 564.556 707.355 564.39 699.085C564.257 692.416 564.611 685.671 564.611 678.986L564.591 623.732L564.901 429.924L564.882 333.17C564.875 317.688 564.321 302.014 565.084 286.567C566.303 261.89 582.929 255.571 601.007 244.817C614.557 236.657 628.168 228.599 641.839 220.642L763.26 148.567Z"/><path fill="#7F7E7E" d="M760.92 154.936C761.343 157.033 761.308 172.467 761.339 175.612C761.497 195.008 761.553 214.404 761.507 233.8L762.38 402.293C736.257 416.275 708.426 434.052 682.5 449.12C659.749 462.328 637.096 475.704 614.542 489.246C599.597 498.114 583.633 507.131 569.132 516.633C568.631 510.601 568.869 499.839 568.859 493.589L568.934 446.769L568.818 348.719L568.685 310.543C568.691 294.995 566.805 275.411 578.536 263.677C584.539 257.672 598.31 250.8 606.033 246.362L643.255 224.531C682.456 201.514 721.224 177.211 760.92 154.936Z"/><path fill="#040405" d="M699.681 216.203C729.923 215.074 752.296 238.057 757.279 266.694C770.381 341.991 706.946 445.578 630.614 460.273C592.462 465.105 572.979 435.09 571.158 400.495C567.702 334.861 627.531 220.806 699.681 216.203Z"/><path fill="white" d="M695.265 220.169C722.546 217.711 744.648 234.202 751.744 260.404C761.388 296.011 749.679 338.028 732.761 369.692C711.689 409.133 679.269 442.508 635.534 455.567C633.885 455.949 632.223 456.267 630.55 456.52C610.098 459.518 591.278 450.184 582.691 431.135C552.538 364.249 622.863 229.939 695.265 220.169Z"/><path fill="#040405" d="M692.489 232.659C703.026 231.21 713.735 233.533 722.725 239.217C734.77 246.993 741.482 259.876 744.418 273.608C758.215 338.151 703.079 429.766 638.036 443.372C635.669 443.81 633 444.281 630.618 444.339C589.37 445.17 581.699 405.688 586.047 372.501C592.991 319.492 635.145 241.719 692.489 232.659Z"/><path fill="white" d="M694.789 236.175C721.157 234.014 736.905 252.668 741.289 277.276C752.289 339.025 699.646 428.21 636.17 439.873C607.692 444.245 592.434 426.5 589.289 399.677C582.512 341.888 633.458 243.592 694.789 236.175Z"/><path fill="#040405" d="M713.631 264.496C716.051 264.129 718.167 264.297 720.303 265.639C721.682 266.496 722.648 267.884 722.972 269.476C723.781 273.378 705.394 309.634 702.546 315.993C695.255 332.613 687.772 349.15 680.099 365.598C676.332 373.848 671.683 390.756 661.857 391.51C655.484 392 646.156 381.761 641.155 377.736C635.421 373.12 629.769 368.02 623.917 363.405C621.619 361.68 615.857 358.028 615.658 355.008C615.204 348.124 622.905 334.94 631.089 340.961C635.056 343.88 638.61 347.217 642.319 350.424L662.983 368.263C665.411 362.406 667.993 356.688 670.674 350.88C683.279 323.571 694.691 295.585 707.562 268.449C708.288 266.917 712.047 265.268 713.631 264.496Z"/><path fill="white" d="M765.965 404.361C766.426 404.549 766.719 404.896 767.131 405.257C767.894 408.375 767.507 418.502 767.475 422.236L767.129 458.02L767.024 533.794C767.016 546.246 767.033 558.744 766.931 571.179C766.995 584.613 762.692 589.41 751.578 595.735C735.317 604.988 718.781 614.37 702.727 623.93L620.94 672.494C603.655 682.738 587.409 692.839 569.683 702.367L568.977 702.372C568.13 701.062 568.7 657.252 568.702 651.088L568.686 520.945C573.149 518.661 579.105 514.873 583.568 512.26L623.936 488.112L765.965 404.361Z"/><path fill="#040405" d="M750.851 436.366C753.033 436.72 754.143 436.986 755.684 438.492C757.163 441.862 756.616 466.968 755.924 471.031C755.183 475.38 731.46 487.662 726.494 490.524C725.362 490.934 722.599 491.522 722.179 489.687C720.738 483.397 720.904 459.049 722.205 454.366C722.855 452.024 746.928 438.983 750.851 436.366Z"/><path fill="#7F7E7E" d="M752.291 439.938C753.855 441.238 753.017 467.589 752.984 471.429C743.908 477.341 735.102 481.209 725.129 488.147C724.038 485.013 724.749 460.33 724.817 455.936C730.205 452.122 746.501 442.587 752.291 439.938Z"/><path fill="#040405" d="M609.534 518.438C611.944 518.515 610.95 518.117 612.727 519.374C614.487 522.535 614.525 550.18 613.16 553.814C611.851 557.302 588.248 569.898 583.676 572.284C582.386 572.257 580.111 571.653 580.109 570.258C580.101 563.303 576.863 538.29 582.958 534.466C591.044 529.392 601.362 523.368 609.534 518.438Z"/><path fill="#7F7E7E" d="M609.65 522.402C610.201 522.497 609.884 522.383 610.489 522.964L610.517 553.299C602.689 557.366 591.204 564.035 583.933 568.798L583.667 568.631C582.583 566.149 583.021 542.967 583.035 538.712C589.523 534.045 602.384 526.867 609.65 522.402Z"/><path fill="#040405" d="M657.948 490.878C658.705 491.028 660.439 491.604 660.509 492.493C660.95 498.06 662.728 526.045 658.646 528.875C651.772 533.641 637.894 541.546 630.195 545.693C627.698 544.147 627.393 541.744 627.341 539.076C627.224 533.039 626.304 513.924 627.974 509.283C629.105 506.141 654.396 492.417 657.948 490.878Z"/><path fill="#7F7E7E" d="M657.128 495.027C658.129 496.096 657.684 521.902 657.679 525.494C651.551 529.924 637.867 537.559 631.227 541.275C629.863 539.274 630.477 514.591 630.495 510.471C638.341 505.43 648.881 499.767 657.128 495.027Z"/><path fill="#040405" d="M703.599 464.366C703.905 464.344 704.212 464.339 704.518 464.361C705.838 464.459 706.895 465.002 707.637 466.133C709.443 468.882 709.242 492.587 708.422 496.524C707.937 498.855 706.822 500.762 705.07 502.361C702.015 505.148 697.356 506.942 693.73 508.944C688.51 511.827 683.288 514.802 678.274 518.032C676.25 518.408 676.936 518.638 675.416 517.333C673.707 513.704 674.071 487.798 674.372 482.33C679.374 478.315 697.517 467.735 703.599 464.366Z"/><path fill="#7F7E7E" d="M704.122 467.884L704.724 468.228C705.996 470.883 705.508 493.793 705.503 498.276C701.231 501.531 684.254 510.685 678.495 513.959C677.102 512.336 677.227 488.115 677.25 484.17C685.209 478.93 695.813 472.797 704.122 467.884Z"/><path fill="white" d="M770.151 578.602C771.244 579.193 770.865 578.758 771.312 579.887C770.192 587.913 767.559 594.29 760.333 598.597C748.452 605.679 736.376 612.4 724.453 619.428L649.109 664.19L608.156 688.604C602.664 691.946 576.239 709.766 571.276 707.299L571.103 706.473C571.941 705.065 578.057 702.477 579.969 701.425C586.958 697.582 593.661 693.419 600.457 689.263C625.901 673.908 651.51 658.829 677.281 644.03L734.108 610.149C742.235 605.361 750.673 600.939 758.698 596.049C765.033 592.188 768.585 586.591 770.021 579.293L770.151 578.602Z"/><defs><linearGradient id="gradient_0" gradientUnits="userSpaceOnUse" x1="726.93542" y1="354.18604" x2="809.00879" y2="280.81085"><stop offset="0" stop-color="#C5BDC2"/><stop offset="1" stop-color="#E5ECE8"/></linearGradient></defs><path fill="url(#gradient_0)" d="M769.573 222.476C770.603 235.801 769.958 257.619 769.984 271.75L770.286 361.57C770.314 374.012 769.755 388.599 770.123 400.635L769.085 400.819L766.849 400.254C765.438 397.303 765.406 253.351 765.477 237.108C766.504 236.416 767.496 235.756 768.503 235.03C770.185 231.329 768.954 227.789 769.495 223.105L769.573 222.476Z"/><path fill="white" d="M765.477 237.108C765.418 214.59 765.152 176.321 765.495 152.715C765.705 152.414 765.914 152.113 766.124 151.811C769.163 152.445 769.803 155.383 769.773 158.191C769.484 166.075 769.765 174.006 769.626 181.872C769.391 195.22 770.242 209.196 769.573 222.476L769.495 223.105C768.954 227.789 770.185 231.329 768.503 235.03C767.496 235.756 766.504 236.416 765.477 237.108Z"/><path fill="#7F7E7E" d="M770.123 400.635C771.308 421.016 771.002 441.559 771.075 461.978L771.485 539.84C771.496 546.944 772.502 575.081 771.312 579.887C770.865 578.758 771.244 579.193 770.151 578.602C770.464 565.463 770.235 551.305 770.243 538.087L770.012 439.28C770.016 429.405 770.474 419.084 769.334 409.277C768.986 406.274 768.908 403.842 769.085 400.819L770.123 400.635Z"/><path fill="white" d="M866.422 514.429C868.758 515.134 881.016 522.445 883.574 523.927L934.959 554.312C927.683 559.736 906.81 571.106 898.145 576.154L812.09 625.553C709.807 684.629 608.146 744.776 507.124 805.984C501.163 809.515 454.913 834.621 453.588 836.979C453.703 837.34 453.819 837.701 453.934 838.062C473.272 850.784 505.409 867.404 523.37 879.735C517.475 884.893 498.971 894.591 491.61 898.99C482.189 904.107 473.427 910.305 463.643 914.776C442.585 924.397 414.309 924.306 393.23 914.663C383.752 910.328 372.507 902.957 363.496 897.608C349.82 889.537 336.201 881.369 322.64 873.106C330.403 867.784 397.998 830.539 398.758 829.524C397.112 826.258 363.153 807.423 356.425 803.447C307.418 774.87 258.589 745.989 209.941 716.804C203.409 712.881 156.111 683.956 152.072 684.34C151.33 684.41 151.496 684.488 151.002 685.133L151.261 686.399C153.881 689.675 200.889 715.748 209.243 720.723C222.715 728.876 236.146 737.097 249.535 745.386C233.779 754.71 217.974 763.952 202.121 773.111C194.438 777.617 185.29 783.575 177.552 787.434C148.04 771.096 117.672 752.674 88.7179 735.306C75.2578 727.203 59.1046 721.752 50.5195 707.85C43.73 696.856 46.89 686.574 53.5899 676.752C61.8169 664.691 74.3154 658.399 86.5147 651.149C93.9547 646.699 101.368 642.204 108.755 637.666L108.951 683.497C108.514 683.712 108.081 683.935 107.652 684.166C102.853 686.733 86.8307 694.174 91.0579 701.292L91.8408 701.299C92.9998 699.803 92.8438 697.803 92.9552 695.834C93.3556 695.356 93.7764 694.896 94.2163 694.454C96.286 692.347 105.638 686.089 108.568 686.065L109.078 686.793C108.167 691.606 104.017 691.949 102.249 695.511C96.6894 706.706 115.637 712.409 123.547 712.432C133.603 712.462 147.806 704.36 143.971 692.766C142.816 689.276 139.122 687.557 135.997 686.426L136.12 623.184C144.208 619.249 157.146 610.329 166.179 605.301C168.987 606.709 172.003 608.42 174.701 610.023C203.324 627.032 232.138 643.713 261.105 660.129C267.333 663.659 274.28 667.358 280.102 671.391C280.263 676.566 280.287 681.918 280.371 687.108C269.269 694.387 257.602 701.006 246.25 707.888C242.545 710.134 238.917 712.285 235.578 715.072C245.158 720.043 256.083 726.858 265.457 732.377C278.212 739.846 291.033 747.201 303.92 754.44C326.329 767.065 348.596 779.941 370.716 793.068C383.911 800.89 398.455 809.24 410.952 818.013L411.396 857.404C407.769 859.668 392.24 868.667 390.033 870.693C388.76 877.609 394.637 879.27 400.219 882.367C416.214 891.078 421.58 901.141 438.743 887.875C443.499 884.198 459.436 878.79 459.519 871.618C457.108 866.809 442.002 858.936 436.8 856.762C436.706 847.878 436.699 838.993 436.78 830.108C447.263 822.762 467.241 811.975 479.071 805.436C503.953 791.683 527.298 778.221 551.715 763.666L570.336 752.687C573.232 751.012 579.409 748.629 579.729 745.486C577.708 741.406 545.433 725.105 539.859 720.122L539.883 706.567C545.359 709.889 550.861 713.147 556.424 716.328C566.181 721.906 572.967 725.764 583.839 719.57C594.754 713.351 605.473 706.782 616.244 700.3C637.518 687.302 658.893 674.469 680.365 661.801L734.895 629.556C746.925 622.562 762.221 614.381 773.164 605.826C773.8 605.329 776.591 601.263 777.18 600.395C785.933 587.496 784.583 575.336 784.499 560.611C789.652 558.544 803.781 550.046 809.47 546.887L841.506 528.711C849.66 524.112 858.535 519.374 866.422 514.429Z"/><path fill="#040405" d="M122.731 724.967C127.93 722.288 154.404 704.943 157.8 705.295L158.119 706.111L157.243 707.083C146.445 713.814 133.943 721.353 123.016 727.769C119.415 726.129 89.7362 708.285 88.9691 706.785L89.8302 704.735C100.876 711.196 111.414 718.859 122.731 724.967Z"/><path fill="white" d="M623.373 65.6805C637.724 64.5154 649.212 68.4684 661.289 75.7877C671.804 82.1599 682.268 88.7536 692.812 95.0528L739.124 122.665C746.286 127.009 755.943 132.504 762.479 137.332C752.618 141.753 736.604 151.597 726.823 157.311L657.262 198.626L599.058 233.118C572.619 248.783 558.7 251.754 553.32 285.686L548.436 282.705C522.756 268.417 497.32 253.004 471.677 238.427L442.319 221.581C428.159 213.575 413.819 207.094 405.479 192.355C406.78 189.839 408.277 187.43 409.956 185.149C414.887 178.542 440.924 164.898 449.696 159.821L523.831 117.115L575.494 87.1958C592.806 77.138 603.106 68.7802 623.373 65.6805Z"/><path fill="white" d="M287.686 363.324C289.107 363.399 292.873 363.602 293.571 364.877C298.4 373.69 302.63 383.111 307.272 392.056C327.098 431.064 346.675 470.199 365.999 509.458L378.327 534.422C383.005 543.974 385.8 552.21 394.881 558.541C402.437 563.807 410.099 568.318 417.985 573.042C418.098 587.624 417.969 602.207 417.599 616.785C409.929 605.93 405.203 597.017 399.632 585.075C397.649 580.823 392.043 567.95 389.799 564.802L388.629 564.661C387.144 565.507 387.636 564.906 387.087 566.51C388.079 570.36 390.209 573.827 391.801 577.526C399.281 594.911 407.02 609.013 417.979 624.351C418.228 637.921 418.294 651.494 418.177 665.066C410.589 670.663 410.028 673.085 410.362 682.709C410.579 688.975 410.665 695.585 410.729 701.873L410.712 789.87C376.302 768.659 341.283 748.548 306.765 727.525C300.315 723.596 290.736 719.027 285.473 713.904C283.022 706.322 283.969 680.562 283.971 670.952L283.869 625.331L283.818 366.63L287.686 363.324Z"/><path fill="#040405" d="M304.349 542.209C311.168 543.344 364.107 576.974 375.232 583.075C377.179 584.142 380.908 586.491 381.021 588.919C381.168 592.087 380.465 594 378.683 596.491C376.85 597.209 375.113 598.045 373.226 596.967C359.639 589.199 346.313 580.98 332.889 572.933L313.663 561.479C310.088 559.394 306.495 557.679 303.072 555.365C302.737 551.123 302.311 545.944 304.349 542.209Z"/><path fill="white" d="M307.451 547.617C312.277 549.942 330.8 561.303 335.822 564.486C347.652 571.984 365.772 581.431 376.593 589.169C377.438 590.818 377.117 590.67 377.02 592.821C375.721 593.139 374.971 593.325 373.721 592.665C364.661 587.886 355.976 581.916 347.268 576.63C334.235 568.718 321.088 560.96 307.996 553.175C307.181 551.561 307.426 549.496 307.451 547.617Z"/><path fill="#040405" d="M303.659 509.919C304.499 510.082 305.873 510.356 306.614 510.792C330.272 524.713 353.808 538.889 377.371 552.969C382.692 556.149 382.147 558.566 378.785 563.402C376.872 564.77 374.817 565.896 372.519 564.705C348.833 552.432 326.373 536.15 302.924 523.69C302.836 520.401 302.225 512.385 303.659 509.919Z"/><path fill="white" d="M307.264 515.777C313.959 519.435 375.213 556.428 376.2 557.627C377.087 558.707 376.743 559.509 376.62 560.808C370.345 560.627 317.824 527.416 307.235 520.846L307.264 515.777Z"/><path fill="#040405" d="M304.302 573.157C308.916 573.749 369.274 610.952 377.544 616.471C379.15 617.543 380.665 618.903 380.817 621.001C381.025 623.879 380.486 624.991 378.802 627.182C376.844 628.299 374.874 629.235 372.744 628.014C358.466 619.829 344.477 610.89 330.265 602.566C321.353 597.346 312.608 591.73 303.436 587.056C303.329 583.013 302.898 576.879 304.302 573.157Z"/><path fill="white" d="M307.546 579.074C311.028 580.687 316.341 584.088 319.759 586.141L342.459 599.882C352.947 606.209 365.82 613.388 375.95 620.5C376.927 621.186 376.816 623.018 376.836 624.255C375.391 624.472 374.907 624.646 373.556 623.817C355.233 612.576 336.739 601.632 318.234 590.697C314.735 588.629 311.299 586.61 307.979 584.262C307.204 582.844 307.492 580.786 307.546 579.074Z"/><path fill="white" d="M457.522 291.545L457.844 291.866C459.354 299.68 469.111 317.23 473.01 325.455C491.881 364.795 511.066 403.984 530.561 443.018C537.464 457.076 544.562 471.031 551.757 484.946C553.064 487.475 553.378 490.555 553.198 493.38C550.539 496.413 520.524 513.28 514.826 516.301C483.972 532.66 453.699 552.69 422.74 568.534C422.149 567.972 422.301 568.248 422.037 567.501C416.819 552.735 409.258 538.545 402.516 524.348C385.901 489.993 368.99 455.781 351.787 421.716L336.138 390.085C332.936 383.61 328.868 375.976 326.236 369.349C369.799 344.064 412.983 315.434 457.522 291.545Z"/><path fill="#040405" d="M444.735 322.474C447.077 322.363 449.973 322.878 451.108 325.201C459.144 341.645 467.378 358.029 475.311 374.525L488.31 401.688C490.979 407.289 494.487 414.193 496.437 419.956C492.893 422.969 486.547 426.387 482.377 428.806L461.896 440.669C442.448 451.94 423.31 463.76 403.714 474.651C403.163 475.003 402.981 474.987 402.335 475.182C400.879 474.226 400.071 473.24 399.302 471.639C392.872 458.258 386.333 444.685 379.591 431.463L363.849 400.009C360.369 393.096 355.897 384.946 352.983 377.928C356.372 374.864 379.072 361.545 383.961 358.577L423.239 334.916C429.35 331.268 438.497 325.447 444.735 322.474Z"/><path fill="white" d="M444.912 326.874C445.729 326.905 446.359 327.044 447.169 327.175C448.999 328.628 489.08 412.316 491.265 418.619L403.913 469.632L403.325 469.469C400.653 466.889 362.809 388.847 357.98 379.398C363.012 375.387 378.839 366.286 384.938 362.586C404.783 350.438 424.776 338.533 444.912 326.874Z"/><path fill="#040405" d="M444.265 330.409L445.002 330.624C448.135 333.712 484.354 409.31 487.399 417.364C465.86 428.81 444.299 442.832 422.93 454.797C417.157 458.029 411.596 461.813 405.755 465.061C404.856 465.055 404.907 464.993 404.017 464.757C402.309 462.449 400.1 457.542 398.84 454.699C387.659 429.465 372.918 404.895 361.814 379.76C365.979 376.412 380.154 368.687 385.532 365.353C404.651 353.5 425.323 342.497 444.265 330.409Z"/><path fill="white" d="M443.357 335.946C443.822 336.531 446.552 341.991 447.091 343.029C450.78 350.057 454.335 357.154 457.755 364.317C465.405 380.084 475.416 399.355 482.188 415.253C477.261 417.819 470.398 422.349 465.318 425.34L428.745 446.739C421.681 450.869 413.155 456.222 405.757 459.203C394.131 433.772 379.164 406.527 366.813 381.117L443.357 335.946Z"/><path fill="#040405" d="M501.82 430.457C504.342 431.482 514.078 452.852 515.544 456.576C511.962 459.522 503.877 463.788 499.636 466.137L470.968 481.819C454.966 490.679 436.591 502.176 420.658 510.237L419.016 510.475C416.899 509.418 408.466 491.413 406.909 487.891C427.454 476.745 447.746 462.442 468.222 450.865C479.705 444.373 489.533 436.244 501.82 430.457Z"/><path fill="white" d="M500.252 435.44C502.316 436.744 509.581 452.289 511.117 455.416C498.025 462.106 485.367 469.653 471.742 476.529C471.5 476.535 471.258 476.542 471.015 476.549C472.364 468.24 470.529 462.003 461.66 459.519C473.921 451.65 487.606 442.432 500.252 435.44Z"/><path fill="white" d="M454.535 463.892L455.149 464.219C454.278 474.198 456.132 474.953 462.957 482.064C459.2 484.349 455.389 486.544 451.527 488.647C451.537 481.329 447.525 475.908 442.03 471.329C445.717 468.83 450.616 466.163 454.535 463.892Z"/><path fill="white" d="M434.173 476.448C435.407 477.226 434.545 480.429 435.087 482.455C436.428 487.475 439.451 490.374 442.917 493.694C440.107 495.343 436.838 497 433.932 498.548C432.968 499.049 432.714 499.114 431.686 499.482C430.088 498.409 425.816 484.964 425.142 482.353C427.887 480.419 431.317 478.31 434.173 476.448Z"/><path fill="white" d="M419.788 489.825C421.217 490.655 423.323 491.01 424.137 491.919C426.897 495.001 424.565 497.316 422.402 499.409C418.03 499.226 417.297 497.161 415.429 493.705C416.808 492.359 418.328 491.088 419.788 489.825Z"/><path fill="#040405" d="M419.171 491.097C421.37 491.731 423.011 492.684 423.805 494.888C423.607 496.978 423.841 496.201 422.32 497.995C420.923 498.049 420.96 497.994 419.549 497.783C416.688 495.538 417.471 493.851 419.171 491.097Z"/><path fill="white" d="M462.85 467.164C463.799 466.766 464.65 467.087 465.521 467.503C467.196 470.923 465.79 472.998 463.516 475.666C461.193 473.66 459.002 471.594 459.344 468.4C460.589 467.053 460.478 467.482 462.85 467.164Z"/><path fill="white" d="M439.391 478.206C442.29 479.359 445.366 484.155 446.173 487.082C441.482 486.193 439.525 482.754 439.391 478.206Z"/><path fill="#040405" d="M522.793 473.381C526.544 473.856 528.743 480.896 528.553 484.162C528.581 486.337 525.809 488.067 524.071 489.078C498.434 503.988 472.903 519.082 447.295 534.044C442.25 536.991 437.245 540.029 432.004 542.591C429.173 540.187 425.926 535.188 426.572 531.296C430.452 526.829 472.732 502.563 481.11 497.264C492.674 490.233 504.139 483.013 515.726 476.019C519.246 473.894 518.594 476.598 522.793 473.381Z"/><path fill="white" d="M521.214 479.46L522.089 479.726C523.504 481.233 523.152 480.386 523.414 482.242C522.452 484.906 514.853 488.225 512.122 489.762C506.264 493.103 500.428 496.482 494.613 499.898C474.244 511.965 453.94 524.141 433.703 536.427L432.831 536.357C431.618 534.893 431.923 535.704 431.816 533.863C432.871 531.726 454.459 519.461 457.622 517.578L497.71 493.408C505.517 488.738 513.533 484.308 521.214 479.46Z"/><path fill="white" d="M976.83 612.476L977.193 613.049C977.132 635.675 979.399 649.364 958.24 664.195C941.259 676.098 923.056 685.712 905.357 696.382C858.784 724.211 811.939 751.582 764.83 778.492C701.046 816.048 637.056 853.256 572.865 890.112L499.917 932.165C491.738 936.834 482.832 942.624 474.679 946.994C451.937 959.184 421.645 960.541 397.199 953.12C386.242 949.795 377.906 944.472 368.108 938.785L335.755 919.59L217.16 849.629L124.357 795.102L91.9697 776.642C74.0488 766.438 60.0538 759.719 50.0156 740.631C44.9571 729.961 46.4592 720.75 46.6678 708.946C58.0534 725.654 67.0345 726.715 83.2881 736.494C108.953 752.067 134.829 767.288 160.91 782.154C216.502 814.547 271.896 847.28 327.088 880.352C347.512 892.817 369.824 906.108 390.694 917.479C407.414 926.588 433.535 927.388 451.673 923.011C465.244 919.736 477.49 911.86 489.731 904.747L525.211 883.974L715.986 772.238L880.075 676.677L927.945 648.742C945.604 638.623 966.074 630.322 976.83 612.476Z"/><path fill="white" d="M535.543 509.092C536.509 510.244 536.171 722.681 536.411 745.951C528.739 749.859 518.842 756.194 511.087 760.643L468.108 784.902C459.924 789.626 446.004 797.997 437.625 801.676L436.972 801.303L436.674 718.65L436.834 690.766C436.88 684.356 438.077 672.908 434.508 667.728L434.563 566.593C467.597 547.15 502.194 528.231 535.543 509.092Z"/><path fill="#040405" d="M493.5 540.536C523.284 538.823 507.31 595.838 478.055 603.97C471.088 605.195 465.073 601.295 463.17 594.538C460.178 583.917 463.923 570.814 469.097 561.502C474.84 551.168 482.049 543.848 493.5 540.536Z"/><path fill="white" d="M492.742 544.561C518.664 543.324 502.644 591.317 478.831 600.112C460.675 601.907 465.257 578.393 469.856 568.195C474.853 557.117 481.291 549.069 492.742 544.561Z"/><path fill="#040405" d="M490.652 556.025C505.961 555.291 497.593 585.433 481.931 590.09C464.636 589.18 477.874 561.912 490.652 556.025Z"/><path fill="white" d="M404.535 198.845C413.896 210.852 426.603 217.146 439.482 224.603C450.897 231.291 462.396 237.832 473.977 244.227C490.829 253.757 507.589 263.448 524.255 273.299C533.895 278.924 543.914 284.443 553.426 290.177C553.638 326.2 553.666 362.224 553.509 398.247C553.503 424.277 554.042 452.439 553.35 478.314C547.873 469.951 542.494 458.294 538.02 449.217C531.215 435.665 524.492 422.073 517.851 408.44C504.281 381.303 490.95 354.046 477.859 326.675C473.405 317.411 468.52 308.22 464.305 298.849C459.893 289.041 458.628 253.01 444.387 250.999C433.924 249.522 414.546 245.495 404.089 245.447C404.092 230.498 403.736 213.59 404.535 198.845Z"/><path fill="white" d="M647.682 726.374C650.808 726.718 710.805 761.85 718.212 766.262C705.374 774.832 686.283 785.323 672.619 793.294L599.733 835.9C599.401 836.115 598.862 836.482 598.512 836.628C598.45 836.654 597.409 836.955 597.249 836.937C596.051 836.809 538.724 801.157 530.064 797.311C534.041 793.98 542.289 789.356 546.948 786.587L574.954 770.057L647.682 726.374Z"/><path fill="white" d="M835.772 616.379C837.31 616.552 900.915 653.479 906.519 656.558C869.581 678.446 832.531 700.144 795.37 721.651C792.953 721.255 731.97 685.675 724.802 681.081C731.923 675.863 749.898 665.862 758.285 660.932L835.772 616.379Z"/><path fill="white" d="M938.471 556.871C940.71 557.105 946.694 561.135 948.984 562.326C965.514 570.929 984.137 585.923 975.262 607.066C967.886 624.089 949.623 631.869 934.536 640.668C926.806 645.176 918.113 650.799 909.988 654.067C903.431 650.549 896.943 646.902 890.528 643.129C873.483 633.818 856.342 622.82 839.656 614.195C850.453 607.702 862.139 601.319 873.121 594.999L938.471 556.871Z"/><path fill="white" d="M253.838 747.941C276.477 760.37 300.268 775.11 322.813 788.224C299.02 801.925 274.422 816.932 250.37 829.823C248.061 828.764 244.839 827.005 242.701 825.644C223.232 813.246 200.569 802.423 181.636 789.561C188.285 786.05 195.949 781.194 202.635 777.316C219.618 767.378 236.686 757.586 253.838 747.941Z"/><path fill="white" d="M720.156 683.397C722.494 683.316 783.081 719.391 791.251 724.005C769.811 736.814 744.578 751.875 722.687 763.707C720.243 764.088 695.594 748.824 691.626 746.547C678.447 738.984 664.868 731.682 651.754 724.042C673.415 710.157 697.862 696.259 720.156 683.397Z"/><path fill="white" d="M325.726 790.466C330.952 791.622 384.137 824.259 392.145 828.974L319.464 870.111L319.033 870.259C316.584 870.086 259.57 835.825 254.299 832.459C259.985 828.871 266.324 825.545 272.194 822.136L305.702 802.496C310.646 799.615 321.836 793.56 325.726 790.466Z"/><path fill="white" d="M526.315 798.905C546.819 813.564 572.477 824.582 593.214 839.763C571.608 852.673 549.826 865.286 527.875 877.6C505.679 863.817 482.945 851.416 460.856 837.157C482.654 824.07 504.746 812.303 526.315 798.905Z"/><path fill="white" d="M447.675 257.502C450.981 260.062 456.746 281.097 457.948 286.001C455.57 287.868 446.652 292.833 443.476 294.702L413.177 312.547C384.722 329.338 356.442 346.952 327.91 363.415C327.357 362.679 319.589 337.064 318.68 334.036C327.516 328.314 336.984 323.13 346.075 317.76L391.157 290.728C402.741 283.652 414.374 276.656 426.054 269.74C432.141 266.098 441.38 260.236 447.675 257.502Z"/><path fill="white" d="M238.759 562.952C240.927 563.398 274.675 583.434 279.909 586.262L279.982 603.877C274.199 606.9 268.152 611.225 262.435 614.45C250.465 621.204 238.441 629.033 226.542 635.729C223.818 634.46 220.244 632.249 217.561 630.689C201.82 621.623 186.148 612.437 170.547 603.131C193.452 588.554 215.699 576.569 238.759 562.952Z"/><path fill="white" d="M298.429 365.329C305.545 365.763 314.853 368.149 321.614 370.366C325.505 376.384 332.67 391.97 336.305 399.305L365.356 458.117L402.093 532.293C405.635 539.601 416.357 560.792 417.774 568.044C411.623 564.916 393.977 554.031 390.263 548.812C387.79 545.336 381.491 532.078 379.164 527.38C371.337 511.752 363.604 496.077 355.964 480.356C337.19 442.011 316.897 403.856 298.429 365.329Z"/><path fill="white" d="M405.915 249.506C409.45 249.386 438.861 253.807 442.803 254.779C440.467 256.631 436.719 258.666 434.115 260.395C425.058 266.41 415.134 271.475 405.946 277.186C376.815 295.295 346.87 312.174 317.625 330.096C314.85 331.17 286.931 324.024 281.101 323.248L356.098 278.515C372.821 268.632 388.871 258.895 405.915 249.506Z"/><path fill="white" d="M784.502 465.751C795.022 471.2 805.045 478.057 815.224 484.061C831.051 493.396 846.855 502.814 862.691 512.127C853.722 517.519 844.682 522.792 835.573 527.945C818.706 537.677 801.685 547.14 784.516 556.329C784.329 526.137 784.324 495.943 784.502 465.751Z"/><path fill="white" d="M132.002 525.181C132.803 527.062 132.148 677.2 132.25 691.476C132.259 692.716 132.036 698.047 131.422 699.394C130.762 700.845 128.779 702.106 127.131 702.426C122.202 703.384 116.952 702.075 112.802 699.435C112.22 697.03 112.638 667.926 112.624 663.319L112.537 568.288C112.539 555.037 113.266 538.318 112.682 525.662C120.702 529.027 124.352 529.338 132.002 525.181Z"/><path fill="white" d="M276.578 326.411C278.729 326.424 285.136 327.854 287.47 328.317C296.734 330.156 305.876 332.979 315.25 334.187C316.48 343.202 321.963 356.307 324.028 366.427C313.496 363.645 298.19 360.902 287.323 358.942C280.96 363.085 271.996 370.435 265.774 375.263C238.78 395.082 241.772 401.317 227.852 368.533C236.763 358.406 251.73 348.781 261.697 339.212C266.008 335.072 271.884 330.068 276.578 326.411Z"/><path fill="white" d="M552.979 499.112C553.89 500.799 553.769 643.282 553.766 659.421L553.717 686.497C553.696 695.151 553.062 703.011 555.142 711.373L548.237 706.929C545.323 705.122 542.833 703.395 540.029 701.419L540.009 506.45C544.918 503.637 547.903 502.507 552.979 499.112Z"/><path fill="white" d="M414.564 736.144C422.283 737.392 425.268 738.037 432.864 735.795C433.231 765.979 433.435 796.164 433.474 826.35C433.458 840.417 433.626 854.789 433.391 868.876C433.361 870.705 432.942 871.571 432.038 873.103C427.339 875.731 419.536 876.684 415.45 872.541C413.536 868.235 414.296 751.919 414.564 736.144Z"/><path fill="white" d="M279.238 609.007L279.817 609.16C280.305 612.894 280.064 623.615 280.062 628.001L280.008 666.397C271.541 662.362 257.601 653.787 249.234 648.845C242.979 645.463 236.566 641.649 230.382 638.088C246.457 628.045 262.746 618.35 279.238 609.007Z"/><path fill="white" d="M430.283 568.983C431.814 571.256 430.85 655.641 430.788 665.941C428.088 665.538 425.388 665.465 422.66 665.325C421.331 663.932 421.659 583.489 421.688 573.24C424.818 571.914 427.288 570.581 430.283 568.983Z"/><path fill="white" d="M436.588 859.288C440.849 860.782 455.828 868.664 457.517 872.115C456.702 876.641 427.611 891.739 422.548 892.909C419.354 891.527 394.794 876.831 392.557 874.838C391.871 873.22 391.994 874.074 392.45 872.165C393.595 870.733 408.775 861.378 411.163 860.901C414.125 867.592 405.431 865.334 405.059 873.972C409.395 878.414 419.286 884.214 425.631 883.321C431.667 882.403 439.007 878.295 443.519 874.318C445.191 872.844 444.01 867.629 441.74 866.098C440.088 865.966 440.843 865.81 439.388 866.556C440.583 868.485 441.19 869.157 441.614 871.325C440.751 874.285 437.937 875.627 435.388 877.256C431.512 879.734 424.797 882.022 420.327 880.396C417.772 879.467 408.809 874.732 407.545 872.498C407.888 870.704 409.135 869.447 410.779 868.741C412.337 869.805 412.178 873.761 413.914 875.015C419.146 878.795 429.741 878.634 434.342 873.961C437.411 870.845 436.616 863.422 436.588 859.288Z"/><path fill="white" d="M279.408 538.484C280.718 540.477 279.866 577.056 279.803 581.938C272.583 577.629 265.036 573.396 257.748 569.139C252.858 566.251 248.031 563.431 243.254 560.353C253.834 553.035 268.128 545.204 279.408 538.484Z"/><path fill="white" d="M112.653 469.143C113.683 469.612 114.737 470.024 115.812 470.377C122.23 472.467 126.574 472.082 132.365 469.111C132.262 474.148 132.822 501.023 131.484 503.922C124.726 509.79 119.604 508.97 112.777 503.6C112.571 492.115 112.53 480.629 112.653 469.143Z"/><path fill="white" d="M432.531 684.67C433.7 685.693 432.933 709.058 432.401 711.424C428.046 716.101 420.369 713.846 415.292 711.829C413.77 709.642 414.205 688.456 414.172 684.662C421.234 687.288 425.444 686.982 432.531 684.67Z"/><path fill="white" d="M419.956 669.555C429.92 668.674 433.384 669.319 433.193 679.752C431.364 680.667 429.249 681.418 427.326 682.159C422.86 682.701 412.963 683.153 414.257 674.579C414.599 672.313 417.938 670.477 419.956 669.555Z"/><path fill="white" d="M136.001 689.624C137.402 690.207 138.699 690.704 139.762 691.821C140.922 693.024 141.553 694.64 141.517 696.31C141.151 708.173 120.456 711.84 112.2 707.014C108.412 704.799 107.615 704.915 104.706 701.402C104.476 697.491 105.061 695.196 108.636 693.239C109.901 695.41 108.553 699.207 110.144 700.958C115.197 706.523 128.101 707.814 133.75 702.627C136.732 699.889 136.036 693.407 136.001 689.624Z"/><path fill="white" d="M119.246 455.58C123.791 455.256 133.018 457.362 132.147 463.338C130.594 466.079 129.208 466.321 126.153 467.406C114.195 469.398 105.862 460.468 119.246 455.58Z"/><path fill="#A19CA5" d="M117.297 510.913C123.96 510.787 124.585 513.74 122.272 519.64L121.622 519.702C121.958 517.613 122.656 515.176 121.569 513.478C119.567 512.924 119.408 513.448 117.862 513.03L117.297 510.913Z"/><path fill="#040405" d="M883.675 98.0831C890.328 97.1497 897.685 103.89 903.607 106.951C907.15 108.782 914.537 113.013 914.331 117.485C912.457 120.801 891.935 132.479 887.684 134.461C880.628 134.922 863.622 122.575 857.927 117.827C854.04 114.586 864.513 109.359 866.788 107.976C872.313 104.616 877.902 100.985 883.675 98.0831Z"/><path fill="white" d="M885.102 99.5756C889.328 100.339 910.273 112.537 912.22 116.38C911.239 119.061 890.028 131.182 886.221 132.811C882.649 132.391 860.209 118.671 859.222 115.74C861.357 113.127 881.338 101.285 885.102 99.5756Z"/><path fill="#040405" d="M855.841 346.583C860.327 347.551 860.929 360.769 866.146 364.951C870.253 368.243 879.417 370.186 881.644 372.924C880.144 376.106 871.036 376.373 866.508 380.836C859.456 387.788 861.197 393.264 857.456 399.492C852.397 398.148 851.5 384.625 846.036 380.501C841.719 377.244 834.763 376.199 831.653 373.143C831.623 372.83 831.593 372.516 831.562 372.203C835.572 369.705 841.163 369.157 844.936 366.181C852.49 360.224 851.797 353.976 855.841 346.583Z"/><path fill="white" d="M856.315 355.373C856.96 356.048 859.235 360.906 859.661 361.939C862.533 368.9 865.604 370.015 872.458 372.427C863.354 377.392 859.748 380.394 856.687 390.607C855.734 390.432 854.417 384.203 852.435 381.868C848.612 377.369 846.481 376.216 841.323 373.423C850.815 367.909 852.46 365.623 856.315 355.373Z"/><path fill="#040405" d="M632.172 924.567C633.384 924.506 636.476 924.31 637.493 924.883C642.062 927.462 661.126 935.244 658.387 941.7C655.292 944.463 640.075 953.173 636.146 954.626C631.483 953.924 610.476 942.834 609.707 938.282C611.937 935.081 628.143 926.139 632.172 924.567Z"/><path fill="white" d="M632.946 926.448C639.074 926.647 652.226 935.881 657.365 939.786C652.138 943.337 641.809 949.419 636.207 952.107C632.062 951.975 615.331 941.672 611.891 938.759C615.394 936.411 629.792 927.903 632.946 926.448Z"/><path fill="#040405" d="M114.352 209.691C115.012 209.89 116.327 210.548 116.504 210.969C119.122 217.197 120.232 221.24 124.152 226.702C128.485 232.74 137.062 232.133 140.343 235.754C140.074 238.476 129.358 240.203 126.12 242.962C119.447 248.648 119.804 255.192 116.047 261.711C115.762 261.654 114.201 261.27 114.113 261.136C111.3 256.842 109.738 248.383 106.4 244.331C103.05 240.265 93.981 239.113 90.1234 235.707C90.4416 233.321 100.957 231.932 104.25 229.11C109.792 224.359 110.615 214.089 114.352 209.691Z"/><path fill="white" d="M114.556 218.306C117.837 225.532 123.459 233.399 131.093 236.329C130.685 236.481 130.279 236.638 129.875 236.8C120.719 240.479 118.79 244.662 115.149 253.065C114.758 252.6 114.9 252.821 114.682 252.287C110.72 242.576 108.924 239.36 98.7932 236.011C99.6015 235.718 100.404 235.407 101.199 235.081C109.215 231.741 111.508 225.691 114.556 218.306Z"/><path fill="#040405" d="M907.848 912.444C912.998 911.841 935.027 924.309 935.224 928.145C932.244 930.745 916.313 940.106 912.321 942.458C911.865 942.568 910.192 942.919 909.776 942.778C905.25 941.249 884.739 930.711 885.378 926.031C889.11 922.6 903.308 914.643 907.848 912.444Z"/><path fill="white" d="M908.796 914.445C912.894 914.448 928.418 924.582 932.893 927.272C925.469 931.388 918.43 936.298 910.824 940.483C907.124 940.525 891.537 929.985 887.126 927.216C894.6 922.417 900.778 918.336 908.796 914.445Z"/><path fill="#040405" d="M793.808 846.56C794.175 846.535 795.607 846.441 796.015 846.46C802.093 846.742 818.263 857.179 822.091 861.084C817.103 865.958 804.68 873.173 798.272 876.821C794.512 876.391 771.533 863.936 770.954 860.809C773.464 857.409 789.388 848.572 793.808 846.56Z"/><path fill="white" d="M794.853 848.425C800.247 848.328 813.946 857.378 818.821 860.679C814.783 864.664 802.982 871.586 797.649 874.22C795.081 873.985 776.189 863.222 774.442 860.894C776.018 858.203 791.153 850.395 794.853 848.425Z"/><path fill="#040405" d="M114.037 906.139C115.456 906.115 117.94 906.095 119.238 906.54C125.01 908.517 137.875 916.743 142.061 920.559C138.75 923.572 121.918 933.505 117.465 935.921C113.335 936.293 93.7157 924.573 90.7496 921.337L90.809 920.388C93.4848 916.711 109.604 907.45 114.037 906.139Z"/><path fill="white" d="M113.114 908.493C122.11 907.941 130.89 915.375 139.069 920.392C132.101 924.572 125.166 928.809 118.267 933.102C118.012 933.225 116.803 933.585 116.489 933.684C112.106 932.831 97.9839 923.72 93.1034 920.864C98.707 916.795 106.996 911.879 113.114 908.493Z"/><path fill="#040405" d="M933.838 743.824C936.405 744.361 958.811 757.502 962.543 759.82L936.758 774.603L936.122 774.921C933.568 774.901 913.008 761.89 909.597 759.634L909.498 758.656C912.806 755.767 928.521 747.416 933.838 743.824Z"/><path fill="white" d="M934.269 746.408C938.203 747.633 952.886 757.398 957.004 760.126L936.16 771.945C933.805 772.668 916.765 761.287 913.19 759.236C921.055 753.592 925.849 750.923 934.269 746.408Z"/><path fill="#040405" d="M295.909 67.9311C300.184 68.6159 318.194 80.1162 320.387 82.7997L320.235 83.8809C317.375 87.5411 302.376 96.1957 297.587 99.0806C293.542 98.8833 274.626 87.0042 273.158 83.2091C274.243 79.8566 292.082 69.96 295.909 67.9311Z"/><path fill="white" d="M295.845 70.4229C299.99 70.1131 313.241 80.2779 318.911 83.3078C312.405 87.6835 304.654 92.2644 297.9 96.4836C293.495 96.7046 278.761 86.2913 274.985 83.287C278.705 80.4419 291.741 72.7162 295.845 70.4229Z"/><path fill="#040405" d="M293.371 195.117C297.864 194.758 300.522 194.49 304.977 196.247C309.607 198.074 314.757 202.885 311.978 208.28C310.133 211.862 305.361 213.376 301.682 214.405C282.606 216.672 273.007 200.938 293.371 195.117Z"/><path fill="white" d="M295.945 197.194C311.899 197.545 317.211 208.572 299.597 212.564C281.679 213.006 278.485 199.224 295.945 197.194Z"/><path fill="#040405" d="M139.984 349.068C156.146 347.454 165.686 362.142 146.341 367.604C128.824 369.366 120.009 353.956 139.984 349.068Z"/><path fill="white" d="M141.483 351.113C155.569 350.979 161.207 362.092 145.176 365.657C129.255 366.045 123.98 354.29 141.483 351.113Z"/><path fill="#040405" d="M232.437 921.583C238.677 921.142 253.502 922.072 250.286 933.495C249.449 936.467 243.936 938.301 241.031 939.196C237.68 939.626 232.048 940.064 229.155 938.463C216.792 931.623 221.752 924.43 232.437 921.583Z"/><path fill="white" d="M232.805 923.599C245.811 922.717 257.369 931.362 240.516 937.257C237.885 937.488 233.699 937.872 231.371 936.94C219.855 932.329 223.226 926.601 232.805 923.599Z"/><path fill="#040405" d="M940.906 464.071C957.043 462.386 967.773 476.481 948.363 481.993C942.195 482.674 932.414 481.538 930.267 474.478C929.792 472.894 929.994 471.185 930.824 469.756C932.829 466.238 937.305 465.08 940.906 464.071Z"/><path fill="white" d="M941.321 466.072C955.03 465.37 964.545 475.016 947.482 479.972C933.57 480.619 924.476 470.195 941.321 466.072Z"/><path fill="#040405" d="M972.375 762.95C972.497 763.529 972.418 764.079 972.396 764.701C969.29 768.558 942.589 784.74 936.437 784.988C928.917 785.292 906.957 771.036 901.304 766.315C900.533 765.361 900.746 765.895 900.622 764.731C906.365 765.382 923.102 779.69 930.409 781.459C944.961 784.981 959.927 769.01 972.375 762.95Z"/><path fill="#040405" d="M671.384 944.488L672.021 945.503C671.076 947.45 642.476 964.074 638.674 965.446C630.192 968.507 606.235 951.545 598.791 947.057L598.534 945.732L599.301 945.145C607.046 946.641 628.427 967.277 637.93 963.248C648.613 958.72 659.669 949.698 670.757 944.762L671.384 944.488Z"/><path fill="#040405" d="M81.2759 926.374C84.6555 927.175 105.341 941.011 109.688 943.009C112.232 944.179 115.946 945.168 118.693 944.455C126.479 942.435 143.021 929 149.755 926.566L150.546 926.964L150.741 928.27C146.202 931.336 123.604 945.835 119.8 946.469C117.069 946.924 113.913 947.183 111.244 946.264C106.515 944.637 86.7611 932.521 82.5838 929.145C81.4525 928.231 81.3512 927.791 81.2759 926.374Z"/><path fill="#040405" d="M762.781 867.334C765.187 867.897 772.026 873.313 775.101 874.692C781.085 877.377 789.469 885.1 796.377 884.712C808.759 884.016 819.876 871.74 831.032 867.698L831.802 868.134L831.861 869.45C828.412 871.634 824.523 873.637 820.936 875.821C813.192 880.536 800.009 890.7 790.33 885.823C781.247 881.246 771.106 875.55 762.997 869.508C762.408 869.069 762.727 868.041 762.781 867.334Z"/><path fill="#040405" d="M205.451 470.56C216.504 469.248 223.434 478.444 211.394 481.977C201.619 482.68 193.483 476.337 205.451 470.56Z"/><path fill="white" d="M207.36 472.518C210.646 472.452 212.589 472.801 214.487 475.578C214.941 479.157 212.469 479.415 209.577 479.979C206.511 479.641 200.964 479.131 202.901 474.627C204.598 473.147 205.11 473.159 207.36 472.518Z"/><path fill="#040405" d="M874.871 933.357C880.113 935.097 894.717 945.607 900.649 948.655C911.111 954.031 914.326 951.666 923.385 946.04C927.783 943.264 932.218 940.549 936.69 937.895C938.456 936.851 942.49 933.788 944.224 934.776L944.282 935.937C935.348 941.429 921.962 950.729 912.032 953.433C903.083 955.87 885.534 940.782 877.056 936.859C875.441 936.112 875.131 934.895 874.871 933.357Z"/><path fill="#040405" d="M917.575 258.56C928.238 257.47 935.585 265.481 923.571 269.819C913.922 270.879 905.229 263.467 917.575 258.56Z"/><path fill="white" d="M918.633 260.535C921.672 260.445 927.533 260.639 926.989 265.035C925.769 266.617 925.067 266.723 923.155 267.561C919.213 267.757 917.963 267.967 914.856 265.688C914.053 264.155 914.171 264.951 914.557 263.211C915.719 261.68 916.884 261.351 918.633 260.535Z"/><path fill="#040405" d="M439.067 81.577C443.576 81.2917 451.331 81.3654 451.619 87.5014C450.47 90.2187 448.908 90.8918 446.21 92.0068C437.658 93.4376 427.833 87.4382 439.067 81.577Z"/><path fill="white" d="M439.85 83.5417C442.573 83.44 449.406 83.2098 449.04 87.3299C448.069 88.876 447.161 89.1195 445.522 89.9418C442.514 90.1883 437.01 90.2726 436.594 86.4079C437.447 84.7331 438.225 84.4951 439.85 83.5417Z"/></svg>