<svg xmlns="http://www.w3.org/2000/svg" width="62" height="24" fill="none"><g clip-path="url(#a)"><path fill="#fff" d="M0 0h24v24H0V0Z"/><path fill="#000" d="M3.094 19.742s4.45-6.062 8.903-6.062c4.452 0 8.903 6.062 8.903 6.062L11.997 4.258 3.094 19.742Z"/></g><path fill="#fff" d="M38.513 19.287c-.924 0-1.722-.198-2.394-.594a4.086 4.086 0 0 1-1.548-1.674c-.348-.72-.528-1.536-.54-2.448l2.358-.126c.024.936.216 1.638.576 2.106.372.468.888.702 1.548.702.672 0 1.194-.234 1.566-.702.372-.48.558-1.182.558-2.106V6.219h2.34v8.226c0 .984-.186 1.842-.558 2.574a4.06 4.06 0 0 1-1.566 1.674c-.66.396-1.44.594-2.34.594Zm11.056-.072c-.96 0-1.794-.204-2.502-.612a4.232 4.232 0 0 1-1.638-1.764c-.384-.756-.576-1.638-.576-2.646s.192-1.884.576-2.628a4.269 4.269 0 0 1 1.62-1.764c.708-.42 1.53-.63 2.466-.63.912 0 1.71.204 2.394.612.696.408 1.23.996 1.602 1.764.372.768.558 1.692.558 2.772v.522h-6.822c.048.84.276 1.476.684 1.908.42.42.972.63 1.656.63.516 0 .942-.114 1.278-.342.348-.24.588-.57.72-.99l2.358.144c-.264.936-.786 1.674-1.566 2.214-.768.54-1.704.81-2.808.81Zm-2.322-5.922h4.446c-.048-.78-.27-1.356-.666-1.728-.396-.384-.9-.576-1.512-.576s-1.122.198-1.53.594c-.396.396-.642.966-.738 1.71Zm12.141 5.706c-.96 0-1.668-.222-2.124-.666-.444-.444-.666-1.14-.666-2.088V7.137h2.304v8.892c0 .444.096.756.288.936.192.168.492.252.9.252h1.35v1.782h-2.052Zm-4.302-7.83V9.387h6.354v1.782h-6.354Z"/><defs><clipPath id="a"><path fill="#fff" d="M0 0h24v24H0z"/></clipPath></defs></svg>