<svg xmlns="http://www.w3.org/2000/svg" width="267" height="42" fill="none"><path fill="#3A04FF" d="M37.255 1.616a4.842 4.842 0 0 1 3.49-1.503h16.897c10.988 0 16.49 13.82 8.72 21.903L49.44 39.622c-.777.808-2.105.236-2.105-.908V23.208l1.955-2.035c1.554-1.617.454-4.38-1.744-4.38H22.667L37.255 1.615z"/><path fill="#3A04FF" d="M32.745 38.384a4.842 4.842 0 0 1-3.49 1.503H12.358c-10.988 0-16.49-13.82-8.72-21.903L20.56.378c.777-.808 2.106-.235 2.106.908v15.506l-1.956 2.035c-1.554 1.617-.454 4.38 1.744 4.38h24.879l-14.59 15.177z"/><path fill="#110051" d="M168.151 13.44v19.995h5.872V13.44h-5.872zm.409-3.326c.694.693 1.542 1.04 2.546 1.04 1.003 0 1.846-.347 2.527-1.04.694-.694 1.041-1.536 1.041-2.528 0-1.015-.347-1.864-1.041-2.545-.681-.694-1.524-1.041-2.527-1.041-1.004 0-1.852.347-2.546 1.04-.694.682-1.041 1.53-1.041 2.546 0 .992.347 1.834 1.041 2.528z"/><path fill="#110051" fill-rule="evenodd" d="M177.336 41.24v-27.8h5.575v1.988h.073a8.962 8.962 0 0 1 1.135-.947c1.313-.917 2.824-1.376 4.534-1.376 1.499 0 2.93.39 4.293 1.171 1.375.78 2.49 1.939 3.345 3.475.854 1.536 1.269 3.45 1.245 5.742.012 1.735-.23 3.246-.725 4.534-.496 1.276-1.165 2.335-2.007 3.178a8.46 8.46 0 0 1-2.825 1.895 8.35 8.35 0 0 1-3.159.632c-1.685 0-3.196-.47-4.534-1.412-.337-.24-.656-.5-.957-.78h-.121v9.7h-5.872zm10.109-12.414c.867-.012 1.629-.241 2.286-.687.656-.446 1.171-1.078 1.542-1.896.372-.817.552-1.771.539-2.861.013-1.115-.173-2.07-.557-2.862-.372-.805-.898-1.419-1.58-1.84-.681-.433-1.462-.644-2.341-.632-.83-.012-1.574.193-2.23.614-.657.42-1.177 1.034-1.561 1.84-.384.792-.576 1.752-.576 2.88 0 1.09.192 2.044.576 2.861.396.818.929 1.45 1.598 1.896.669.446 1.437.675 2.304.687z" clip-rule="evenodd"/><path fill="#110051" d="M203.19 33.119c1.09.409 2.23.613 3.419.613 1.363 0 2.608-.266 3.735-.799 1.14-.533 2.05-1.276 2.732-2.23.694-.966 1.04-2.075 1.04-3.326 0-.991-.21-1.827-.631-2.509a5.327 5.327 0 0 0-1.561-1.672 8.704 8.704 0 0 0-1.914-1.022 17.103 17.103 0 0 0-1.729-.595 47.854 47.854 0 0 1-1.858-.576c-.594-.198-1.084-.433-1.468-.706-.384-.273-.576-.632-.576-1.078 0-.446.192-.818.576-1.115.384-.297.867-.446 1.45-.446.693 0 1.263.186 1.709.558.459.371.805.755 1.041 1.152l4.515-1.951c-.569-1.289-1.536-2.323-2.898-3.104-1.351-.78-2.875-1.17-4.572-1.17-1.362 0-2.577.254-3.642.761-1.053.508-1.889 1.215-2.509 2.119-.607.892-.91 1.926-.91 3.103 0 1.115.26 2.063.78 2.843a6.444 6.444 0 0 0 2.026 1.933c.842.495 1.734.886 2.676 1.17.409.112.855.236 1.338.372.495.137.966.298 1.412.483.446.186.811.41 1.096.67.285.26.428.57.428.929 0 .285-.099.55-.298.799a2.072 2.072 0 0 1-.78.613c-.335.149-.725.223-1.171.223-.842 0-1.573-.26-2.193-.78-.619-.521-1.083-1.072-1.393-1.654l-4.609 2.025a7.418 7.418 0 0 0 1.877 2.639 9.065 9.065 0 0 0 2.862 1.728zm34.797.316V13.44h5.593v2.546h.102a7.29 7.29 0 0 1 1.478-1.543c1.115-.867 2.434-1.3 3.958-1.3 1.263 0 2.335.31 3.215.929.678.462 1.231 1.08 1.659 1.858h.105a6.796 6.796 0 0 1 2.305-1.895c1.177-.595 2.459-.892 3.847-.892 1.325 0 2.416.235 3.27.706.855.458 1.524 1.065 2.007 1.82a7.42 7.42 0 0 1 1.022 2.454c.199.88.298 1.734.298 2.564v12.748h-5.91V21.412c0-1.09-.229-1.927-.687-2.509-.446-.594-1.103-.892-1.97-.892-.57 0-1.078.13-1.524.39-.433.248-.78.626-1.04 1.134-.248.508-.372 1.134-.372 1.877v12.023h-5.872V21.412c0-1.09-.229-1.927-.688-2.509-.458-.594-1.121-.892-1.988-.892-.842 0-1.542.291-2.1.874-.557.57-.836 1.424-.836 2.564v11.986h-5.872zm-14.37.297c-1.375 0-2.626-.291-3.753-.873-1.128-.595-2.026-1.462-2.695-2.602-.656-1.152-.985-2.57-.985-4.255V13.44h5.872v11.781c0 1.152.298 2.032.892 2.639.607.595 1.345.892 2.212.892.644 0 1.208-.142 1.691-.427a2.934 2.934 0 0 0 1.152-1.208c.285-.533.427-1.165.427-1.896V13.44h5.872v12.99c0 .718.106 1.238.316 1.56.211.322.638.601 1.282.836l-2.081 4.906c-1.474-.384-2.552-.886-3.233-1.505a3.144 3.144 0 0 1-.78-1.078h-.149a10.28 10.28 0 0 1-1.728 1.394c-1.252.793-2.689 1.19-4.312 1.19z"/><path fill="#110051" fill-rule="evenodd" d="M155.436 33.732c-1.921 0-3.674-.44-5.259-1.32a10.135 10.135 0 0 1-3.773-3.641c-.929-1.549-1.393-3.333-1.393-5.352 0-2.02.464-3.803 1.393-5.352a9.992 9.992 0 0 1 3.773-3.624c1.585-.867 3.338-1.3 5.259-1.3 1.957 0 3.722.433 5.296 1.3a9.722 9.722 0 0 1 3.735 3.624c.929 1.549 1.393 3.332 1.393 5.352 0 2.02-.464 3.803-1.393 5.352a9.818 9.818 0 0 1-3.754 3.642c-1.573.88-3.332 1.32-5.277 1.32zm0-5.017c.916 0 1.74-.223 2.471-.67a4.72 4.72 0 0 0 1.728-1.857c.421-.793.632-1.716.632-2.77 0-1.015-.204-1.92-.613-2.712a4.64 4.64 0 0 0-1.691-1.858c-.719-.459-1.549-.688-2.49-.688-.929 0-1.766.223-2.509.669-.731.433-1.307 1.047-1.728 1.84-.421.792-.632 1.71-.632 2.75 0 1.053.211 1.976.632 2.769a4.853 4.853 0 0 0 1.747 1.858c.731.446 1.548.669 2.453.669zm-27.805 12.209c1.387.408 2.911.613 4.571.613 1.549 0 2.967-.198 4.256-.595 1.288-.384 2.403-.966 3.344-1.747a7.885 7.885 0 0 0 2.212-2.898c.52-1.153.78-2.49.78-4.014V13.42h-5.333v1.952h-.111a8.744 8.744 0 0 0-1.153-.93c-1.288-.88-2.793-1.319-4.515-1.319-1.487 0-2.918.378-4.293 1.134-1.375.743-2.502 1.858-3.382 3.345-.867 1.474-1.301 3.326-1.301 5.556 0 1.672.254 3.128.762 4.367.508 1.238 1.183 2.273 2.026 3.103a8.685 8.685 0 0 0 2.843 1.84 8.76 8.76 0 0 0 3.14.594c1.698 0 3.209-.464 4.535-1.394a9.495 9.495 0 0 0 1.174-.984h.089v1.932c0 .954-.309 1.722-.929 2.304a5.562 5.562 0 0 1-2.248 1.301 8.593 8.593 0 0 1-2.546.409 8.88 8.88 0 0 1-2.825-.465c-.917-.297-1.722-.656-2.415-1.077l-1.933 4.608c.793.421 1.877.83 3.252 1.227zm7.656-13.305c-.681.445-1.468.668-2.36.668-.88 0-1.654-.223-2.323-.668-.669-.459-1.195-1.084-1.579-1.877-.384-.806-.577-1.729-.577-2.77 0-1.04.193-1.944.577-2.712.396-.768.941-1.357 1.635-1.766.694-.42 1.48-.631 2.36-.631.879 0 1.654.204 2.323.613.669.409 1.195.997 1.579 1.765.384.756.576 1.666.576 2.732 0 1.053-.198 1.982-.594 2.787-.397.793-.936 1.412-1.617 1.858zm-24.497 6.113c-1.92 0-3.673-.44-5.259-1.32a10.132 10.132 0 0 1-3.772-3.641c-.929-1.549-1.394-3.333-1.394-5.352 0-2.02.465-3.803 1.394-5.352a9.989 9.989 0 0 1 3.772-3.624c1.586-.867 3.339-1.3 5.259-1.3 1.957 0 3.723.433 5.296 1.3a9.722 9.722 0 0 1 3.735 3.624c.929 1.549 1.394 3.332 1.394 5.352 0 2.02-.465 3.803-1.394 5.352a9.818 9.818 0 0 1-3.754 3.642c-1.573.88-3.332 1.32-5.277 1.32zm0-5.017c.917 0 1.74-.223 2.471-.67a4.73 4.73 0 0 0 1.729-1.857c.421-.793.631-1.716.631-2.77 0-1.015-.204-1.92-.613-2.712a4.632 4.632 0 0 0-1.691-1.858c-.718-.459-1.549-.688-2.49-.688-.929 0-1.765.223-2.509.669-.731.433-1.307 1.047-1.728 1.84-.421.792-.632 1.71-.632 2.75 0 1.053.211 1.976.632 2.769a4.86 4.86 0 0 0 1.747 1.858c.731.446 1.548.669 2.453.669z" clip-rule="evenodd"/><path fill="#110051" d="M84.49 6.044v27.39h15.963V28.01h-9.868V6.044H84.49z"/></svg>