<svg xmlns="http://www.w3.org/2000/svg" width="240" height="41" fill="none"><path fill="#03301D" d="m39.145 33.366.003.004-6.47 5.677a7.431 7.431 0 0 1-4.83 1.901H5.66a5.385 5.385 0 0 1-4.363-1.936 5.326 5.326 0 0 1-1.08-4.632l1.708-8.692a3.462 3.462 0 0 1 1.14-1.945l.084-.072a2.845 2.845 0 0 1-.404-2.19l1.71-8.708.003-.013a7.295 7.295 0 0 1 2.387-4.016l5.923-5.198a7.626 7.626 0 0 1 5.49-2.592h.028l22.199.063a5.386 5.386 0 0 1 4.36 1.936 5.325 5.325 0 0 1 1.08 4.632l-4.24 21.645-.006.027a7.568 7.568 0 0 1-2.534 4.11z"/><path fill="#86EE02" d="M40.139 3.017a3.744 3.744 0 0 1 3.823 4.636l-4.222 21.66a5.983 5.983 0 0 1-5.64 4.636H12.01a3.751 3.751 0 0 1-3.832-4.636l1.705-8.763a1.991 1.991 0 0 1 1.88-1.537c4.03.143 7.902.446 11.511 1.744l.797 5.01a.493.493 0 0 0 .517.415.797.797 0 0 0 .686-.414l2.724-5.01 5.449-1.721a.796.796 0 0 0 .534-.582.494.494 0 0 0-.311-.59l-4.78-1.712-.796-5.01a.502.502 0 0 0-.518-.423.796.796 0 0 0-.685.422l-2.725 5.01a44.813 44.813 0 0 1-12.148 1.738 1.25 1.25 0 0 1-1.323-1.538L12.4 7.589a5.974 5.974 0 0 1 5.632-4.636l22.107.064z"/><path fill="#03301D" d="M176.026 31.956c-4.096 0-7.002-1.67-7.918-4.821l5.356-2.427c.38 1.292 1.49 1.89 3.506 1.89 1.568 0 2.836-.472 3.013-1.48.223-1.26-1.024-1.45-2.926-1.733-3.149-.473-7.668-1.702-6.773-6.776.689-3.908 4.769-6.902 9.569-6.902 3.776 0 6.681 1.67 7.598 4.822l-5.356 2.427c-.425-1.04-1.427-1.891-3.443-1.891-1.408 0-2.254.441-2.409 1.323-.211 1.198 1.13 1.576 3.186 1.891 3.117.473 7.386 1.67 6.486 6.776-.689 3.907-5.089 6.901-9.889 6.901zm32.544-.504h6.016l4.731-15.032 1.197 12.448c.163 1.796 1.607 2.679 3.367 2.679 1.792 0 3.458-.914 4.335-2.805l5.591-12.29-.917 15h5.984l.574-17.774c.072-2.584-1.412-3.97-3.94-3.97-2.304 0-4.439 1.04-5.464 3.403l-4.885 11.187-.954-11.282c-.191-2.363-1.913-3.309-4.153-3.309-2.592 0-4.623 1.356-5.483 3.877l-5.999 17.868zm-20.069-9.612c-1.111 6.303 1.279 9.99 8.063 9.99 6.752 0 10.506-3.687 11.617-9.99l2.056-11.66h-5.92l-2.028 11.503c-.578 3.277-2.097 4.632-4.753 4.632-2.624 0-3.665-1.355-3.087-4.632l2.028-11.503h-5.92l-2.056 11.66z"/><path fill="#03301D" fill-rule="evenodd" d="m148.221 31.452 5.926-.032.911-5.168h2.688c6.272 0 10.358-3.025 11.258-8.13.872-4.948-2.344-7.942-8.744-7.942h-8.288l-3.751 21.272zm8.726-15.915h2.528c2.56 0 3.743.914 3.449 2.585-.317 1.796-1.737 2.773-4.393 2.773h-2.528l.944-5.357z" clip-rule="evenodd"/><path fill="#03301D" d="M142.221 10.18h5.92l-3.751 21.272h-5.92l3.751-21.272z"/><path fill="#03301D" fill-rule="evenodd" d="M115.304 20.832c-1.117 6.334 2.908 11.093 9.436 11.093 6.528 0 12.231-4.759 13.348-11.093 1.117-6.334-2.908-11.093-9.436-11.093-6.528 0-12.231 4.759-13.348 11.093zm16.704 0c-.556 3.151-3.288 5.578-6.296 5.578-3.008 0-4.884-2.427-4.328-5.578.556-3.152 3.287-5.578 6.295-5.578s4.885 2.426 4.329 5.578z" clip-rule="evenodd"/><path fill="#03301D" d="M102.926 31.925c-6.464 0-10.53-4.885-9.436-11.093 1.095-6.208 6.82-11.093 13.348-11.093 3.84 0 7.272 1.954 8.212 5.515l-5.299 2.647c-.613-1.607-1.64-2.679-4.136-2.679-3.04 0-5.472 2.364-6.061 5.704-.617 3.498 1.036 5.736 4.3 5.736 1.728 0 2.844-.158 3.916-.977l.496-2.931-5.539-2.448h11.696l-.165.998h.013l-.183 1.036-.011.069h-.001l-.917 5.198c-2.108 2.521-5.881 4.318-10.233 4.318z"/><path fill="#03301D" fill-rule="evenodd" d="M70.051 20.832c-1.117 6.334 2.908 11.093 9.436 11.093 6.528 0 12.232-4.759 13.348-11.093 1.117-6.334-2.908-11.093-9.436-11.093-6.528 0-12.23 4.759-13.348 11.093zm16.704 0c-.555 3.151-3.287 5.578-6.295 5.578s-4.884-2.427-4.329-5.578c.556-3.152 3.288-5.578 6.296-5.578 3.008 0 4.884 2.426 4.328 5.578z" clip-rule="evenodd"/><path fill="#03301D" d="M62.386 10.18 59.58 26.095h9.536l-.945 5.357H57.835c-3.648 0-4.787-1.89-4.259-4.885l2.89-16.387h5.92z"/></svg>