<svg width="130" height="130" viewBox="0 0 130 130" fill="none" xmlns="http://www.w3.org/2000/svg">
<circle cx="65" cy="65" r="64" fill="#1A1816" stroke="#F5F3F0" stroke-width="2"/>
<path d="M15.4483 76.2573C15.5676 76.7829 15.5752 77.2664 15.4711 77.7076C15.3635 78.1466 15.1604 78.5157 14.8618 78.8148C14.5626 79.1111 14.1801 79.3121 13.7144 79.4179L9.57039 80.3588L9.27361 79.0517L13.3105 78.1351C13.5591 78.0787 13.7682 77.9741 13.9378 77.8215C14.1039 77.6666 14.2203 77.4779 14.2869 77.2555C14.3501 77.0308 14.3515 76.7857 14.2912 76.52C14.2302 76.2514 14.1231 76.0309 13.9697 75.8584C13.8129 75.6837 13.6265 75.5638 13.4104 75.4987C13.1908 75.4314 12.9568 75.426 12.7082 75.4824L8.6713 76.399L8.37355 75.0877L12.5176 74.1468C12.9833 74.041 13.4154 74.0586 13.8139 74.1994C14.2124 74.3403 14.5553 74.5869 14.8426 74.9392C15.1263 75.2894 15.3283 75.7287 15.4483 76.2573ZM14.6278 72.1265C14.6578 72.3382 14.6121 72.5267 14.4905 72.6919C14.366 72.8575 14.1979 72.9553 13.9862 72.9854C13.7745 73.0154 13.5872 72.968 13.4245 72.8431C13.2589 72.7187 13.1611 72.5506 13.131 72.3388C13.101 72.1271 13.1482 71.9384 13.2727 71.7728C13.3942 71.6076 13.5609 71.51 13.7726 71.4799C13.9844 71.4499 14.173 71.4971 14.3386 71.6215C14.5013 71.7464 14.5977 71.9147 14.6278 72.1265ZM14.2765 67.9265C14.3102 68.4498 14.2591 68.9111 14.1233 69.3103C13.9873 69.7065 13.7684 70.023 13.4666 70.2597C13.1648 70.4963 12.7833 70.6354 12.3221 70.6768L12.2383 69.3743C12.4564 69.3426 12.6364 69.265 12.7782 69.1414C12.917 69.018 13.0169 68.8589 13.0777 68.6642C13.1386 68.4694 13.1613 68.2522 13.1459 68.0124C13.1305 67.7727 13.0835 67.5673 13.005 67.3962C12.9233 67.2224 12.8164 67.0898 12.6843 66.9985C12.5522 66.9072 12.4028 66.8669 12.2362 66.8776C12.0871 66.8872 11.9657 66.9405 11.8722 67.0375C11.7755 67.1318 11.696 67.2646 11.6336 67.436C11.5712 67.6073 11.52 67.8147 11.4798 68.058L11.3463 68.7887C11.2474 69.35 11.0647 69.7962 10.7983 70.1275C10.529 70.4589 10.1575 70.6399 9.6839 70.6704C9.28921 70.6957 8.93745 70.6127 8.62861 70.4212C8.3196 70.2268 8.07138 69.9506 7.88395 69.5928C7.69634 69.232 7.5873 68.8148 7.55683 68.3412C7.5258 67.8588 7.58204 67.4324 7.72555 67.0621C7.86614 66.6919 8.07759 66.3965 8.3599 66.1758C8.63928 65.9552 8.97029 65.8297 9.35291 65.7992L9.43614 67.0929C9.17451 67.1333 8.97856 67.2589 8.84828 67.4698C8.71781 67.6779 8.6633 67.9485 8.68474 68.2818C8.69922 68.5069 8.7438 68.6978 8.81846 68.8545C8.89313 69.0112 8.9902 69.1282 9.10968 69.2057C9.22896 69.2802 9.3617 69.3128 9.50788 69.3033C9.66868 69.293 9.80007 69.2361 9.90203 69.1327C10.0011 69.0294 10.0791 68.8952 10.1359 68.7301C10.1899 68.5652 10.233 68.3907 10.2652 68.2066L10.3718 67.6052C10.4156 67.3264 10.4824 67.0653 10.5724 66.8217C10.6624 66.5781 10.7792 66.3621 10.9227 66.1738C11.0632 65.9857 11.2357 65.8366 11.44 65.7266C11.6441 65.6137 11.8835 65.5484 12.1583 65.5307C12.553 65.5053 12.9044 65.5825 13.2125 65.7623C13.5177 65.9423 13.7628 66.2157 13.9478 66.5825C14.1329 66.9493 14.2424 67.3973 14.2765 67.9265ZM14.4382 60.0097C14.3859 60.5874 14.2077 61.0934 13.9037 61.5278C13.5999 61.9592 13.1865 62.2851 12.6636 62.5054C12.1409 62.7229 11.5265 62.7997 10.8204 62.7358C10.1114 62.6717 9.5194 62.4843 9.04448 62.1736C8.56665 61.8627 8.21715 61.4663 7.996 60.9845C7.77484 60.5026 7.69013 59.9757 7.74187 59.4039C7.7754 59.0333 7.85906 58.6938 7.99288 58.3852C8.12404 58.0735 8.30004 57.8026 8.52088 57.5726C8.74173 57.3425 9.00371 57.1618 9.30682 57.0303C9.60702 56.8986 9.94318 56.8246 10.3153 56.8083L10.193 58.1607C10.0094 58.1735 9.84525 58.216 9.70046 58.2882C9.55302 58.3572 9.42547 58.4501 9.31784 58.5669C9.20755 58.6804 9.12034 58.8152 9.05622 58.9712C8.98918 59.1269 8.94722 59.2982 8.93032 59.4849C8.8997 59.8234 8.95739 60.1286 9.10339 60.4007C9.24966 60.6699 9.47826 60.8906 9.7892 61.0629C10.0975 61.2319 10.4821 61.3373 10.9431 61.379C11.4129 61.4215 11.8147 61.3858 12.1486 61.2719C12.4825 61.158 12.7426 60.9815 12.929 60.7424C13.1153 60.5033 13.2237 60.216 13.2541 59.8805C13.271 59.6938 13.2617 59.5194 13.2264 59.3573C13.1884 59.1921 13.1269 59.0424 13.042 58.9082C12.9544 58.7708 12.8443 58.655 12.7116 58.5606C12.5792 58.4633 12.4255 58.3906 12.2504 58.3424L12.3727 56.99C12.673 57.0525 12.9551 57.1692 13.2191 57.3402C13.4834 57.5082 13.7141 57.7218 13.9113 57.9808C14.1085 58.2399 14.2549 58.5399 14.3505 58.881C14.4462 59.222 14.4754 59.5983 14.4382 60.0097ZM14.7444 56.5015L8.35436 55.0725L8.64687 53.7645L11.2286 54.3418L11.851 51.5585L9.26928 50.9812L9.56275 49.6689L15.9528 51.0978L15.6593 52.4101L12.936 51.8012L12.3136 54.5845L15.0369 55.1934L14.7444 56.5015ZM10.3556 46.9789L16.6021 48.9424L16.2002 50.221L9.95365 48.2576L10.3556 46.9789ZM16.919 48.0791L10.833 45.6636L12.4492 41.5913L13.4826 42.0014L12.3608 44.8279L13.8312 45.4115L14.8688 42.7974L15.8858 43.2011L14.8483 45.8152L16.38 46.4231L17.5051 43.5884L18.5385 43.9986L16.919 48.0791ZM18.8892 43.2766L13.0766 40.2618L15.0595 36.4388L16.0465 36.9507L14.6807 39.5839L16.3035 40.4256L17.5357 38.0499L18.5071 38.5537L17.2749 40.9294L19.5063 42.0868L18.8892 43.2766ZM17.5046 32.5309L22.9604 36.1515L22.2192 37.2683L16.7635 33.6477L17.5046 32.5309ZM23.5102 35.4145L18.3831 31.3418L19.3124 30.1718L23.1944 30.612C23.393 30.6351 23.604 30.6662 23.8275 30.7052C24.0509 30.7443 24.2924 30.7958 24.5521 30.8599C24.8135 30.9217 25.0982 31.0037 25.406 31.1061L25.3213 31.2127C25.1181 31.0776 24.9032 30.9312 24.6767 30.7737C24.4519 30.6139 24.2373 30.4602 24.0327 30.3126C23.8281 30.1651 23.657 30.0367 23.5194 29.9273L21.059 27.973L21.9118 26.8994L27.039 30.9721L26.1069 32.1455L22.5834 31.7486C22.3211 31.7161 22.0709 31.6802 21.8328 31.6407C21.5925 31.5995 21.3324 31.55 21.0527 31.4925C20.7724 31.4307 20.4377 31.3575 20.0485 31.2729L20.1551 31.1387C20.4138 31.3217 20.6622 31.4966 20.9002 31.6632C21.1383 31.8298 21.3529 31.9835 21.5442 32.1242C21.735 32.2608 21.8889 32.3756 22.0059 32.4685L24.363 34.3409L23.5102 35.4145ZM27.6599 30.3002L23.0359 25.6642L26.085 22.6229L26.8702 23.41L24.77 25.5048L26.061 26.7992L27.9559 24.9092L28.7286 25.6839L26.8338 27.5739L28.6089 29.3536L27.6599 30.3002ZM33.5609 25.0981C33.1083 25.4562 32.6187 25.6756 32.0921 25.756C31.5678 25.8347 31.0446 25.7612 30.5223 25.5356C30.0024 25.3082 29.5224 24.9165 29.0825 24.3605C28.6407 23.8022 28.369 23.2439 28.2671 22.6857C28.1658 22.1232 28.2137 21.5959 28.4108 21.1038C28.6102 20.6098 28.9361 20.1837 29.3887 19.8256C29.8436 19.4656 30.3332 19.2463 30.8575 19.1676C31.3818 19.089 31.9049 19.1645 32.4266 19.3942C32.9488 19.6198 33.4308 20.0118 33.8726 20.5701C34.3126 21.126 34.5823 21.6841 34.6818 22.2442C34.7836 22.8025 34.736 23.3277 34.5389 23.8199C34.3418 24.3121 34.0158 24.7382 33.5609 25.0981ZM32.8219 24.1642C33.0884 23.9533 33.2696 23.7054 33.3653 23.4204C33.4616 23.1313 33.4649 22.8167 33.3752 22.4768C33.2837 22.1345 33.0934 21.7807 32.8043 21.4154C32.5116 21.0455 32.2101 20.7779 31.8999 20.6124C31.5878 20.4447 31.281 20.3755 30.9793 20.405C30.6781 20.4304 30.3942 20.5486 30.1277 20.7594C29.8635 20.9685 29.6833 21.2176 29.587 21.5067C29.4908 21.7958 29.4884 22.1115 29.5799 22.4538C29.6696 22.7938 29.8599 23.1476 30.1508 23.5151C30.4399 23.8804 30.7395 24.1458 31.0498 24.3113C31.36 24.4767 31.6669 24.5458 31.9704 24.5186C32.2739 24.4914 32.5577 24.3733 32.8219 24.1642ZM36.5152 22.7372L33.0839 17.1605L35.2584 15.8225C35.6826 15.5615 36.0892 15.4145 36.4783 15.3815C36.8673 15.3485 37.2229 15.4204 37.5449 15.5972C37.8695 15.7725 38.1446 16.0435 38.3703 16.4103C38.5959 16.7771 38.7111 17.1431 38.7157 17.5083C38.7212 17.8695 38.6168 18.2141 38.4024 18.5421C38.1889 18.8661 37.8676 19.1601 37.4384 19.4242L35.9638 20.3315L35.395 19.4071L36.6862 18.6126C36.9208 18.4682 37.0937 18.3188 37.205 18.1643C37.3148 18.0073 37.3688 17.8434 37.3669 17.6726C37.3634 17.4993 37.3049 17.3203 37.1913 17.1357C37.0746 16.9461 36.9397 16.8106 36.7865 16.7294C36.6318 16.6457 36.4577 16.617 36.264 16.6433C36.0728 16.6681 35.86 16.7526 35.6254 16.8969L34.8058 17.4013L37.6568 22.0348L36.5152 22.7372ZM39.618 20.8281L36.698 19.1265L37.9368 18.3642L40.8831 20.0497L39.618 20.8281ZM41.3582 19.8531L38.7261 13.8576L40.6093 13.0309L42.7913 15.3557C42.8881 15.4668 43.0067 15.6131 43.1472 15.7946C43.2904 15.9749 43.4406 16.1713 43.5979 16.3838C43.7551 16.5963 43.9055 16.8039 44.0488 17.0065C44.1948 17.208 44.3185 17.3841 44.4199 17.5347L44.1825 17.639C44.1413 17.4651 44.0953 17.2581 44.0443 17.0181C43.9948 16.7743 43.9451 16.5225 43.8951 16.2629C43.8451 16.0033 43.8003 15.759 43.7606 15.5301C43.7236 15.3 43.6969 15.1117 43.6806 14.9653L43.43 11.7925L45.3212 10.9623L47.9533 16.9578L46.718 17.5001L45.4779 14.6754C45.4202 14.5439 45.3497 14.3797 45.2664 14.1827C45.1858 13.9845 45.0987 13.7716 45.0052 13.5439C44.9131 13.3124 44.8197 13.0814 44.725 12.851C44.629 12.618 44.5377 12.3989 44.4509 12.1939L44.5273 12.1603C44.5741 12.4053 44.619 12.6607 44.6622 12.9266C44.7041 13.1897 44.7417 13.4468 44.7751 13.6977C44.8112 13.9474 44.8422 14.1786 44.8683 14.3911C44.8933 14.6009 44.9127 14.7763 44.9266 14.9174L45.1728 18.1785L44.1387 18.6325L41.8886 16.2511C41.7942 16.1454 41.6788 16.0137 41.5424 15.856C41.4048 15.6956 41.2549 15.5182 41.0928 15.3239C40.9333 15.1283 40.7696 14.9266 40.6016 14.7188C40.4324 14.5083 40.2696 14.3014 40.1132 14.0981L40.2057 14.0575C40.2932 14.2495 40.3896 14.4583 40.4951 14.684C40.6006 14.9096 40.7066 15.1366 40.8133 15.365C40.9214 15.5895 41.0204 15.8004 41.1103 15.9977C41.2016 16.1912 41.2773 16.3563 41.3373 16.4931L42.5774 19.3179L41.3582 19.8531ZM48.4439 16.7741L48.7932 9.86355L50.4832 9.38001L54.4898 15.0442L53.0576 15.454L51.1786 12.7052C50.9455 12.3483 50.6991 11.9556 50.4393 11.5272C50.1816 11.0951 49.9048 10.6227 49.6088 10.1101L49.8919 10.0291C49.9154 10.6227 49.9354 11.1716 49.9517 11.6758C49.97 12.1764 49.9762 12.6348 49.9703 13.0509L49.8677 16.3667L48.4439 16.7741ZM49.3692 14.9278L49.0802 13.9181L52.4391 12.957L52.728 13.9668L49.3692 14.9278ZM53.0866 9.86434L52.9011 8.76811L58.1743 7.87567L58.3598 8.9719L56.3883 9.30556L57.2954 14.6654L55.9696 14.8898L55.0625 9.52995L53.0866 9.86434ZM60.6888 7.63161L61.2527 14.1551L59.9174 14.2706L59.3534 7.74705L60.6888 7.63161ZM65.0462 14.2076C64.469 14.2088 63.9487 14.078 63.4853 13.8153C63.0248 13.5526 62.6592 13.1711 62.3886 12.6707C62.121 12.1702 61.9864 11.5655 61.9849 10.8566C61.9834 10.1446 62.1155 9.53793 62.381 9.03639C62.6495 8.53192 63.0134 8.14737 63.4728 7.88273C63.9352 7.61809 64.4549 7.48516 65.0321 7.48395C65.6121 7.48273 66.1324 7.61348 66.593 7.87618C67.0535 8.13889 67.4176 8.52192 67.6852 9.02526C67.9558 9.52567 68.0918 10.1318 68.0933 10.8437C68.0948 11.5527 67.9613 12.158 67.6928 12.6595C67.4273 13.1611 67.0648 13.5442 66.6054 13.8088C66.146 14.0734 65.6263 14.2064 65.0462 14.2076ZM65.0437 13.0167C65.3835 13.0159 65.6792 12.9333 65.9309 12.7687C66.1854 12.6012 66.3826 12.3561 66.5226 12.0336C66.6625 11.7081 66.732 11.3124 66.731 10.8466C66.73 10.3749 66.6589 9.9781 66.5176 9.65613C66.3763 9.33123 66.178 9.08702 65.9228 8.92349C65.6705 8.75703 65.3744 8.67415 65.0346 8.67487C64.6977 8.67557 64.4019 8.75969 64.1474 8.92722C63.8929 9.09474 63.6956 9.34125 63.5557 9.66674C63.4157 9.9893 63.3463 10.385 63.3472 10.8537C63.3482 11.3195 63.4194 11.7134 63.5607 12.0354C63.702 12.3574 63.9002 12.6016 64.1555 12.768C64.4107 12.9345 64.7068 13.0174 65.0437 13.0167ZM68.8261 14.188L69.6539 7.69268L71.1361 7.88159L72.7703 11.4302C72.8535 11.6121 72.9362 11.8087 73.0186 12.02C73.1009 12.2313 73.1819 12.4646 73.2616 12.7199C73.3442 12.9756 73.4215 13.2616 73.4934 13.5779L73.3582 13.5607C73.3686 13.3168 73.3825 13.0572 73.3999 12.7818C73.4202 12.5068 73.4405 12.2436 73.4607 11.9922C73.4809 11.7408 73.5021 11.5279 73.5244 11.3535L73.9216 8.23662L75.2817 8.40997L74.4539 14.9053L72.9674 14.7158L71.4816 11.4963C71.3736 11.2551 71.2747 11.0225 71.1852 10.7984C71.0959 10.5714 71.0035 10.3234 70.9079 10.0543C70.8155 9.78258 70.7047 9.45836 70.5755 9.08158L70.7456 9.10325C70.723 9.41934 70.7021 9.72235 70.6829 10.0123C70.6636 10.3022 70.6434 10.5654 70.6221 10.802C70.6041 11.0359 70.5856 11.227 70.5667 11.3752L70.1861 14.3613L68.8261 14.188ZM79.8906 16.4274C79.3381 16.2605 78.8784 15.9839 78.5116 15.5976C78.1475 15.2122 77.9089 14.7407 77.7958 14.1832C77.6855 13.6265 77.7329 13.0088 77.938 12.3302C78.1439 11.6487 78.4469 11.1067 78.847 10.7042C79.2507 10.2998 79.7109 10.0379 80.2275 9.91857C80.7468 9.80005 81.2828 9.82426 81.8352 9.99119C82.3905 10.159 82.8502 10.4356 83.2142 10.821C83.5783 11.2064 83.815 11.6789 83.9245 12.2384C84.0376 12.7959 83.9912 13.4154 83.7853 14.0969C83.5802 14.7756 83.2762 15.3157 82.8733 15.7173C82.4732 16.1198 82.0149 16.3807 81.4983 16.5001C80.9818 16.6194 80.4458 16.5952 79.8906 16.4274ZM80.235 15.2874C80.5603 15.3857 80.8673 15.3928 81.1559 15.3086C81.4482 15.2225 81.7083 15.0455 81.9361 14.7777C82.1648 14.507 82.3465 14.1488 82.4812 13.7029C82.6176 13.2514 82.6651 12.851 82.6237 12.5018C82.5832 12.1499 82.4646 11.8585 82.2681 11.6277C82.0752 11.395 81.8161 11.2295 81.4908 11.1312C81.1683 11.0338 80.8609 11.0281 80.5686 11.1142C80.2763 11.2004 80.0158 11.3788 79.7871 11.6494C79.5593 11.9172 79.3776 12.2755 79.242 12.7242C79.1073 13.1701 79.0606 13.5676 79.1021 13.9168C79.1435 14.266 79.262 14.5573 79.4577 14.7909C79.6534 15.0245 79.9125 15.19 80.235 15.2874ZM83.5151 17.5027L86.1239 11.497L90.074 13.2129L89.631 14.2326L86.9103 13.0508L86.1819 14.7276L88.6366 15.7938L88.2006 16.7975L85.7459 15.7312L84.7445 18.0367L83.5151 17.5027ZM88.084 19.5512L91.2722 13.8319L95.0339 15.9289L94.4925 16.9L91.9016 15.4557L91.0115 17.0525L93.3491 18.3555L92.8163 19.3113L90.4787 18.0082L89.2548 20.2038L88.084 19.5512ZM97.1405 17.2761L93.5607 22.7587L92.4384 22.026L96.0182 16.5433L97.1405 17.2761ZM96.4993 25.1373C96.0427 24.7795 95.7147 24.355 95.5153 23.8638C95.3182 23.3743 95.2692 22.8502 95.3684 22.2915C95.4698 21.7345 95.7392 21.177 96.1765 20.6189C96.6156 20.0586 97.0946 19.6634 97.6134 19.4335C98.1341 19.2014 98.6568 19.1233 99.1814 19.1995C99.7061 19.2757 100.194 19.4908 100.646 19.845C100.939 20.0745 101.179 20.3292 101.365 20.6092C101.556 20.8887 101.687 21.1836 101.761 21.4941C101.834 21.8045 101.843 22.1226 101.789 22.4485C101.736 22.772 101.616 23.0945 101.427 23.4157L100.358 22.5782C100.447 22.4171 100.501 22.2562 100.519 22.0954C100.541 21.9342 100.532 21.7766 100.493 21.6228C100.457 21.4685 100.392 21.3221 100.295 21.1835C100.201 21.0426 100.08 20.9143 99.9326 20.7987C99.6651 20.589 99.3775 20.4716 99.0698 20.4463C98.7643 20.4229 98.4548 20.4949 98.1413 20.6623C97.8318 20.8292 97.5343 21.0948 97.2488 21.4592C96.9579 21.8305 96.7695 22.1872 96.6837 22.5294C96.598 22.8716 96.6048 23.1859 96.7042 23.4722C96.8037 23.7586 96.986 24.0057 97.2512 24.2135C97.3987 24.3291 97.5502 24.4161 97.7054 24.4745C97.8648 24.5324 98.0238 24.5621 98.1826 24.5637C98.3455 24.5648 98.5026 24.5353 98.6539 24.4753C98.8075 24.417 98.9521 24.3274 99.0877 24.2066L100.157 25.0442C99.941 25.2623 99.6897 25.4358 99.4027 25.5645C99.1181 25.695 98.8134 25.7727 98.4888 25.7974C98.1642 25.8222 97.8327 25.7821 97.4944 25.6771C97.1562 25.572 96.8245 25.3921 96.4993 25.1373ZM99.2858 27.2932L103.874 22.6216L107 25.6916L106.221 26.4848L104.051 24.354L102.943 25.4827L104.949 27.4534L104.182 28.2341L102.176 26.2634L101.021 27.4391L103.197 29.5761L102.418 30.3694L99.2858 27.2932ZM102.945 30.9757L108.006 26.822L109.626 28.7958C109.942 29.1808 110.143 29.5638 110.228 29.9448C110.313 30.3259 110.29 30.6879 110.158 31.0308C110.029 31.3761 109.797 31.6853 109.464 31.9585C109.131 32.2317 108.784 32.3953 108.423 32.4492C108.066 32.5035 107.71 32.4466 107.356 32.2785C107.007 32.1108 106.672 31.8322 106.352 31.4426L105.254 30.1041L106.093 29.4156L107.055 30.5876C107.229 30.8005 107.401 30.9516 107.569 31.0411C107.739 31.1286 107.909 31.1599 108.078 31.135C108.249 31.1081 108.419 31.0259 108.586 30.8884C108.758 30.7472 108.874 30.5952 108.934 30.4325C108.996 30.2679 109.001 30.0914 108.949 29.9031C108.898 29.717 108.786 29.5175 108.611 29.3047L108.001 28.5607L103.795 32.0118L102.945 30.9757ZM105.256 33.7919L106.547 30.6687L107.47 31.7932L106.198 34.9402L105.256 33.7919ZM107.698 37.4398C107.412 37.0002 107.23 36.5731 107.153 36.1586C107.077 35.7466 107.113 35.3634 107.26 35.0092C107.407 34.6549 107.671 34.3467 108.053 34.0845L108.764 35.1786C108.59 35.3132 108.471 35.4691 108.408 35.6463C108.348 35.8219 108.339 36.0096 108.381 36.2091C108.423 36.4087 108.51 36.6092 108.641 36.8106C108.772 37.0119 108.914 37.1679 109.066 37.2786C109.222 37.39 109.381 37.4532 109.54 37.468C109.7 37.4828 109.85 37.4447 109.99 37.3536C110.116 37.2722 110.195 37.1662 110.229 37.0358C110.267 36.9062 110.271 36.7514 110.242 36.5715C110.212 36.3916 110.155 36.1858 110.071 35.954L109.829 35.2516C109.64 34.714 109.58 34.2355 109.65 33.8162C109.722 33.3953 109.957 33.0554 110.355 32.7967C110.687 32.581 111.034 32.4809 111.397 32.4964C111.762 32.5144 112.114 32.6334 112.452 32.8534C112.793 33.0758 113.092 33.386 113.351 33.7838C113.615 34.1891 113.775 34.5882 113.831 34.9814C113.89 35.3729 113.851 35.734 113.713 36.0648C113.577 36.394 113.351 36.6657 113.032 36.8799L112.325 35.7931C112.533 35.6297 112.643 35.4241 112.653 35.1764C112.664 34.9311 112.579 34.6685 112.397 34.3885C112.274 34.1994 112.142 34.0549 112 33.955C111.858 33.8551 111.716 33.8006 111.574 33.7917C111.433 33.7852 111.302 33.8219 111.179 33.9018C111.044 33.9896 110.957 34.1036 110.919 34.2438C110.883 34.3823 110.881 34.5375 110.913 34.7093C110.946 34.8796 110.994 35.0528 111.057 35.229L111.258 35.8054C111.357 36.0698 111.427 36.3302 111.468 36.5867C111.509 36.8431 111.513 37.0885 111.48 37.323C111.45 37.5559 111.373 37.7703 111.249 37.9664C111.126 38.1649 110.949 38.3392 110.719 38.4894C110.387 38.705 110.043 38.81 109.686 38.8043C109.332 38.7971 108.984 38.679 108.643 38.45C108.302 38.221 107.987 37.8843 107.698 37.4398ZM111.456 44.4096C111.218 43.8807 111.125 43.3524 111.176 42.8248C111.229 42.2998 111.429 41.8129 111.776 41.3641C112.125 40.9179 112.622 40.5492 113.269 40.2581C113.918 39.9657 114.526 39.8382 115.092 39.8755C115.661 39.9117 116.16 40.0853 116.589 40.3964C117.018 40.7075 117.351 41.1248 117.587 41.6484C117.74 41.9876 117.834 42.3245 117.869 42.659C117.907 42.9949 117.887 43.3173 117.808 43.6262C117.728 43.9351 117.589 44.2212 117.389 44.4845C117.193 44.7467 116.936 44.9763 116.62 45.1733L116.062 43.9352C116.216 43.8339 116.338 43.7162 116.429 43.5822C116.523 43.4496 116.589 43.3061 116.625 43.1515C116.665 42.9984 116.675 42.8382 116.654 42.6708C116.636 42.5022 116.589 42.3325 116.512 42.1615C116.372 41.8516 116.172 41.6141 115.911 41.4488C115.652 41.2862 115.344 41.2062 114.989 41.2089C114.637 41.213 114.25 41.3101 113.828 41.5002C113.398 41.6939 113.066 41.9224 112.831 42.1856C112.596 42.4489 112.456 42.7304 112.411 43.0301C112.366 43.3299 112.413 43.6334 112.551 43.9406C112.628 44.1115 112.722 44.2589 112.832 44.3827C112.947 44.508 113.074 44.6082 113.214 44.6833C113.357 44.76 113.51 44.8068 113.672 44.8238C113.835 44.8436 114.005 44.8314 114.181 44.7874L114.739 46.0255C114.446 46.1186 114.143 46.1555 113.829 46.1362C113.517 46.1197 113.211 46.047 112.912 45.9181C112.613 45.7893 112.338 45.5999 112.087 45.3498C111.836 45.0997 111.626 44.7863 111.456 44.4096ZM113.658 50.3931C113.492 49.8405 113.468 49.3046 113.586 48.7853C113.706 48.2688 113.967 47.8092 114.369 47.4064C114.771 47.0065 115.312 46.7042 115.991 46.4994C116.672 46.2938 117.291 46.2463 117.848 46.3569C118.408 46.4694 118.881 46.7078 119.266 47.072C119.652 47.439 119.929 47.8988 120.096 48.4514C120.263 49.0067 120.287 49.5427 120.167 50.0592C120.048 50.5757 119.785 51.0343 119.38 51.4351C118.978 51.8378 118.436 52.142 117.755 52.3476C117.076 52.5523 116.458 52.598 115.9 52.4846C115.344 52.3741 114.873 52.1367 114.488 51.7725C114.102 51.4083 113.826 50.9485 113.658 50.3931ZM114.799 50.0492C114.897 50.3745 115.061 50.6341 115.29 50.828C115.524 51.0238 115.815 51.1425 116.164 51.184C116.516 51.2247 116.915 51.1778 117.361 51.0433C117.813 50.9071 118.173 50.7251 118.441 50.4974C118.711 50.2689 118.888 50.0089 118.972 49.7175C119.059 49.4281 119.053 49.1207 118.955 48.7953C118.858 48.4727 118.693 48.2136 118.459 48.0178C118.226 47.822 117.933 47.7037 117.581 47.663C117.232 47.6214 116.833 47.6683 116.384 47.8037C115.938 47.9382 115.581 48.1193 115.313 48.347C115.045 48.5747 114.868 48.8347 114.782 49.127C114.696 49.4192 114.701 49.7266 114.799 50.0492ZM115.123 56.6838C115.033 56.1523 115.052 55.6691 115.181 55.2343C115.312 54.802 115.536 54.4447 115.85 54.1626C116.165 53.8833 116.558 53.7038 117.029 53.624L121.219 52.914L121.443 54.2355L117.362 54.9271C117.11 54.9697 116.896 55.0625 116.718 55.2056C116.543 55.351 116.417 55.533 116.338 55.7514C116.262 55.9722 116.247 56.2169 116.293 56.4855C116.339 56.757 116.434 56.9831 116.577 57.1638C116.724 57.3469 116.904 57.477 117.116 57.5539C117.331 57.6333 117.565 57.6517 117.816 57.6091L121.898 56.9174L122.122 58.2433L117.932 58.9533C117.462 59.0331 117.031 58.9916 116.641 58.8289C116.251 58.6662 115.922 58.401 115.655 58.0333C115.391 57.668 115.214 57.2181 115.123 56.6838ZM115.742 60.2444L122.285 59.9969L122.342 61.4899L119.109 63.6835C118.943 63.7954 118.763 63.9092 118.568 64.025C118.373 64.1409 118.156 64.259 117.917 64.3795C117.678 64.5029 117.409 64.6259 117.109 64.7487L117.104 64.6126C117.346 64.5829 117.604 64.554 117.879 64.5261C118.153 64.501 118.416 64.4779 118.668 64.4566C118.919 64.4354 119.132 64.4215 119.308 64.4148L122.448 64.296L122.5 65.6662L115.957 65.9137L115.9 64.4162L118.833 62.4231C119.053 62.2769 119.266 62.1413 119.472 62.0163C119.682 61.8911 119.911 61.7593 120.161 61.6208C120.414 61.4852 120.716 61.3228 121.066 61.1336L121.073 61.3049C120.757 61.3344 120.455 61.3634 120.166 61.392C119.876 61.4205 119.613 61.4436 119.377 61.4614C119.143 61.482 118.951 61.4951 118.802 61.5007L115.794 61.6145L115.742 60.2444ZM115.592 69.6706C115.64 69.0925 115.815 68.5854 116.117 68.1492C116.418 67.7158 116.829 67.3873 117.35 67.1636C117.872 66.9429 118.486 66.8622 119.192 66.9216C119.902 66.9813 120.495 67.165 120.972 67.4726C121.451 67.7805 121.803 68.1747 122.028 68.6551C122.252 69.1355 122.34 69.6619 122.292 70.2341C122.26 70.6048 122.179 70.9449 122.047 71.2543C121.918 71.5668 121.744 71.8388 121.524 72.0703C121.305 72.3017 121.044 72.4841 120.742 72.6174C120.442 72.751 120.107 72.8272 119.735 72.8459L119.848 71.4927C120.032 71.4788 120.196 71.4352 120.34 71.3621C120.487 71.2921 120.614 71.1984 120.721 71.081C120.831 70.9667 120.917 70.8314 120.98 70.675C121.046 70.5189 121.087 70.3474 121.103 70.1605C121.131 69.8219 121.072 69.517 120.924 69.2458C120.776 68.9776 120.546 68.7583 120.234 68.588C119.925 68.4209 119.539 68.3179 119.078 68.2791C118.608 68.2396 118.206 68.2779 117.873 68.3939C117.54 68.51 117.281 68.6881 117.096 68.9283C116.911 69.1686 116.805 69.4566 116.777 69.7923C116.761 69.9791 116.771 70.1535 116.808 70.3153C116.847 70.4803 116.909 70.6296 116.995 70.7632C117.083 70.9 117.194 71.0152 117.327 71.1087C117.46 71.2051 117.615 71.2769 117.79 71.324L117.676 72.6771C117.375 72.6166 117.093 72.5016 116.828 72.3323C116.562 72.166 116.33 71.9539 116.131 71.6961C115.933 71.4383 115.784 71.1391 115.686 70.7987C115.589 70.4583 115.557 70.0822 115.592 69.6706ZM121.551 75.6328L115.101 74.5057L115.331 73.1854L121.781 74.3125L121.551 75.6328ZM114.902 75.4041L121.257 76.979L120.935 78.28L115.658 76.9725L114.979 79.7152L113.9 79.4478L114.902 75.4041Z" fill="#F5F3F0"/>
<path d="M110.927 89.99L110.624 87.36L112.412 89.334L114.821 88.2096L113.533 90.515L115.34 92.4549L112.737 91.9405L111.453 94.2391L111.144 91.6053L108.529 91.1114L110.927 89.99ZM105.773 97.7169L105.922 95.0736L107.348 97.3227L109.913 96.624L108.252 98.677L109.703 100.896L107.225 99.9465L105.569 101.994L105.712 99.3454L103.219 98.4144L105.773 97.7169ZM99.3297 104.427L99.9593 101.855L100.95 104.327L103.599 104.11L101.591 105.824L102.612 108.271L100.349 106.884L98.3471 108.594L98.9716 106.017L96.6914 104.645L99.3297 104.427ZM91.8127 109.882L92.8699 107.455L93.4265 110.06L96.0743 110.295L93.804 111.644L94.3941 114.228L92.4001 112.478L90.1365 113.822L91.1897 111.388L89.1756 109.65L91.8127 109.882ZM83.4348 113.93L84.9224 111.74L84.9879 114.403L87.5466 115.124L85.0661 116.029L85.1683 118.678L83.5323 116.589L81.0592 117.492L82.5441 115.295L80.8861 113.214L83.4348 113.93ZM74.4799 116.407L76.3236 114.507L75.928 117.141L78.3236 118.293L75.7239 118.756L75.3668 121.383L74.1164 119.043L71.5245 119.504L73.3668 117.597L72.0934 115.261L74.4799 116.407ZM65.2261 117.28L67.3773 115.737L66.5213 118.258L68.6749 119.817L66.0342 119.812L65.2174 122.334L64.4014 119.809L61.7686 119.805L63.9198 118.254L63.0804 115.729L65.2261 117.28ZM55.9627 116.5L58.3531 115.362L57.0641 117.693L58.9076 119.608L56.3095 119.136L55.0589 121.473L54.703 118.844L52.1126 118.373L54.5044 117.227L54.1255 114.594L55.9627 116.5ZM46.9845 114.095L49.5382 113.397L47.8581 115.463L49.3347 117.674L46.8607 116.75L45.2172 118.83L45.331 116.179L42.8643 115.259L45.4207 114.554L45.5125 111.894L46.9845 114.095ZM38.5742 110.125L41.2119 109.899L39.1864 111.628L40.2397 114.069L37.973 112.714L35.981 114.463L36.5714 111.877L34.3115 110.526L36.9533 110.294L37.5236 107.695L38.5742 110.125ZM31.0101 104.723L33.6466 104.963L31.3491 106.311L31.958 108.898L29.9641 107.167L27.6962 108.54L28.7312 106.096L26.7432 104.37L29.3847 104.605L30.402 102.146L31.0101 104.723ZM24.5109 98.0802L27.0645 98.7786L24.5667 99.7027L24.7132 102.357L23.0532 100.303L20.58 101.258L22.0267 99.0336L20.3716 96.9861L22.9312 97.6795L24.3633 95.437L24.5109 98.0802ZM19.2655 90.4117L21.6608 91.5391L19.0413 92.0196L18.7288 94.6595L17.4469 92.3508L14.8464 92.8654L16.6543 90.9233L15.3763 88.6215L17.7784 89.7451L19.575 87.7825L19.2655 90.4117Z" fill="#F5F3F0"/>
<circle cx="65" cy="65" r="43" stroke="#F5F3F0" stroke-width="2"/>
<mask id="mask0_370_1270" style="mask-type:alpha" maskUnits="userSpaceOnUse" x="21" y="21" width="88" height="88">
<circle cx="65" cy="65" r="43.5" fill="#D9D9D9" stroke="#F5F3F0"/>
</mask>
<g mask="url(#mask0_370_1270)">
<path d="M26.351 111.064H-11.565C-12.8255 111.064 -13.7717 109.912 -13.5269 108.676L-9.64899 89.0964C-9.52092 88.4503 -9.08316 87.9086 -8.47809 87.6482L32.9174 69.8415L26.351 111.064ZM47.6479 63.5056C49.0987 62.8816 50.667 64.107 50.4125 65.6658L43.2739 109.386C43.1158 110.354 42.2803 111.064 41.3002 111.064H30.6987L37.5854 67.8337L47.6479 63.5056Z" fill="#F5F3F0"/>
<path d="M104.089 111.064H142.004C143.265 111.064 144.211 109.912 143.966 108.676L140.089 89.0964C139.961 88.4501 139.523 87.9086 138.918 87.6482L97.523 69.8416L104.089 111.064ZM82.7916 63.5056C81.3408 62.8819 79.7734 64.1072 80.0279 65.6658L87.1656 109.386C87.3236 110.354 88.1593 111.064 89.1392 111.064H99.7417L92.855 67.8337L82.7916 63.5056Z" fill="#F5F3F0"/>
<path d="M79.8116 46.6875C79.6098 46.2839 79.2801 45.9601 78.8681 45.7761C76.0948 44.5376 70.6944 42.4336 67 42.0642C64.3477 41.799 61.817 42.3984 60.0241 43.0754C58.6542 43.5927 57.8195 44.8986 57.6046 46.347L48 111.064H81.8174L73.7422 56.6511C73.3836 54.2346 75.2563 52.0642 77.6992 52.0642H82.5L79.8116 46.6875Z" fill="#F5F3F0"/>
</g>
<path d="M65.5 29L66.5103 32.1094H69.7798L67.1347 34.0312L68.145 37.1406L65.5 35.2188L62.855 37.1406L63.8653 34.0312L61.2202 32.1094H64.4897L65.5 29Z" fill="#F5F3F0"/>
</svg>
