<?xml version="1.0" encoding="utf-8" ?><svg xmlns="http://www.w3.org/2000/svg" xmlns:xlink="http://www.w3.org/1999/xlink" width="1024" height="1024" viewBox="0 0 1024 1024"><path fill="white" d="M0 0L1024 0L1024 1024L0 1024L0 0Z"/><path d="M672.289 29.056C683.046 28.7998 711.417 46.5577 722.247 51.8387C725.211 53.935 729.254 59.6071 729.467 63.1535C730.403 78.7861 730.013 94.5444 730.03 110.194L730.075 186.434L730.04 395.546L730.017 493.683L729.985 524.25C729.969 534.728 730.595 546.056 727.825 556.069C724.365 568.577 715.802 581.803 705.632 589.873C700.333 594.078 687.704 600.117 681.181 603.569L636.857 627.204C580.875 656.964 525.116 687.143 469.586 717.738C476.058 720.897 483.966 725.674 490.317 729.313L525.387 749.352C531.421 752.773 538.101 756.761 544.434 759.702C546.753 760.778 547.649 756.099 551.117 754.413C564.429 747.941 577.514 740.557 590.532 733.449C590.454 730.206 590.406 726.962 590.389 723.719C593.778 721.631 596.364 719.548 599.629 717.417C602.826 719.37 603.764 720.161 606.222 722.852C611.17 719.649 619.101 715.489 624.566 713.245C635.669 718.431 647.555 724.742 648.576 738.377C660.165 745.907 671.895 752.318 683.15 759.515C683.786 765.545 684.995 772.513 680.449 776.953L680.915 808.518C689.679 812.74 706.353 823.006 715.65 828.296L739.578 841.967C746.57 846.001 757.021 849.537 755.671 857.771C755.12 861.127 754.521 864.179 751.396 866.123C747.487 868.556 743.492 870.628 739.55 872.821L710.535 888.848L569.644 967.586L534.618 987.062C510.68 1000.67 515.012 1001.63 490.612 987.812L464.551 973.123C437.073 957.688 409.464 942.488 381.727 927.524L320.678 894.162C314.352 890.681 301.057 884.008 295.746 880.455C293.328 878.851 291.173 876.881 289.359 874.616C285.316 869.481 284.296 863.411 284.89 857.056C286.2 843.05 289.543 829.204 290.937 815.22C276.509 822.014 256.752 833.449 242.332 841.18L149.89 890.331L122.115 904.984C109.006 911.972 98.5361 920.644 83.979 911.443C76.2932 906.585 66.3345 903.092 59.0413 897.372C56.4285 895.35 54.2621 892.81 52.678 889.91C49.3986 883.828 50.5794 849.389 50.5862 840.562L50.5616 771.38L50.5014 552.267L50.4106 448.804L50.3463 411.544C50.3367 402.095 49.4348 385.361 52.1082 377.043C59.4429 354.222 68.171 351.944 87.1059 341.896C89.3407 333.605 93.4505 321.609 102.415 318.491C109.071 316.176 116.139 320.259 122.007 323.18C127.173 320.7 132.13 317.765 137.111 314.925C139.383 306.383 142.955 294.825 152.729 292.052C159.007 290.272 165.374 294.355 170.563 297.495C175.517 294.719 180.504 292.003 185.525 289.349C190.13 272.839 197.789 259.544 216.611 271.156C226.317 267.051 241.959 258.22 251.526 253.089L312.211 220.437L518.276 109.29C522.757 88.4107 533.025 83.4734 552.561 91.4088C556.561 89.1866 560.605 87.0435 564.689 84.9809C568.463 66.6983 579.049 56.2927 596.999 67.9505C601.06 65.6556 605.807 63.3851 610.008 61.2613C611.247 50.7025 613.985 38.1745 627.472 36.578C633.452 35.8701 639.136 39.4838 643.638 43.1959C650.174 40.133 666.432 30.6696 672.289 29.056Z"/><path fill="white" d="M712.493 125.39C712.962 125.684 712.655 125.452 713.22 126.287C713.704 135.316 713.429 146.647 713.449 155.809L713.505 209.85L713.548 364.018L713.475 480.426L713.518 518.239C713.527 535.657 714.66 551.426 703.984 566.483C696.713 576.738 683.175 581.996 672.257 587.828L633.815 608.448L529.298 664.83C425.042 722.292 320.337 778.934 215.192 834.752L142.694 873.29C134.502 877.635 103.648 895.051 97.6056 896.055C96.6986 894.86 96.5351 894.55 96.5246 892.766C96.4336 877.217 96.4768 861.504 96.4801 845.967L96.4804 752.127L96.5276 459.462C105.771 454.027 117.082 448.401 126.675 443.404L175.557 417.863L320.971 341.202C452.969 272.003 583.505 200.049 712.493 125.39Z"/><path d="M683.956 198.412C684.298 198.565 685.396 198.905 685.406 199.362C686.931 269.496 685 340.057 685.644 410.268C685.961 440.77 686.099 471.273 686.059 501.776C686.074 512.27 686.611 525.743 685.548 535.935C684.924 541.93 662.117 552.077 656.314 555.081C643.162 561.846 630.075 568.736 617.054 575.751L464.017 656.625C439.566 669.518 413.344 682.987 389.351 696.547C386.703 695.594 386.946 690.589 386.931 688.172C386.788 665.678 386.868 643.181 386.905 620.687L386.884 492.305C386.72 462.275 386.737 432.245 386.936 402.215C386.971 390.405 386.275 368.87 387.175 358.333C389.594 355.758 408.93 345.718 413.687 343.118C444.227 326.532 474.865 310.127 505.599 293.903L627.506 228.567C645.74 218.825 665.615 207.614 683.956 198.412Z"/><path fill="white" d="M681.452 242.117C682.666 245.924 681.714 313.573 681.707 320.933L682.008 528.953C682 529.945 681.834 535.214 681.525 535.498C674.115 542.302 651.862 552.822 643.703 557.115L589.756 585.742L391.595 690.536L391.26 690.23C390.641 687.863 390.796 673.513 390.784 670.44L390.677 621.824L390.843 397.043C400.119 392.908 413.948 384.898 423.222 379.9C442.185 369.869 461.084 359.719 479.918 349.451L601.468 284.643C628.182 270.388 654.411 255.854 681.452 242.117Z"/><path d="M665.032 268.841C665.543 269.03 666.156 269.439 666.65 269.73C667.917 272.153 667.526 450.731 667.515 471.518C658.634 477.176 644.563 484.148 634.959 489.315L559.627 528.891L463.849 579.249C445.446 588.898 425.866 599.336 407.226 608.391C406.109 608.249 406.651 608.38 405.606 607.456C403.992 602.233 404.882 557.566 404.874 549.586L404.886 460.917C404.879 443.311 404.588 424.814 405.011 407.318C413.064 402.329 427.977 395.023 436.616 390.483L499.339 357.369L583.138 312.539C600.359 303.142 617.642 293.856 634.983 284.681C644.748 279.48 655.138 273.667 665.032 268.841Z"/><path fill="white" d="M662.821 393.49C664.095 394.832 663.635 461.452 663.691 469.501C654.379 475.233 637.44 483.476 627.224 488.742C626.028 487.146 626.671 421.621 626.69 412.966L662.821 393.49Z"/><path d="M647.72 441.009C664.029 440.872 659.241 466.061 643.81 470.449C626.026 470.835 632.998 445.73 647.72 441.009Z"/><path fill="white" d="M646.253 445.517C659.26 444.113 653.913 461.06 644.672 466.387C630.764 467.868 637.904 451.018 646.253 445.517Z"/><path d="M646.649 411.519C664.543 410.282 658.154 432.292 645.518 439.182C629.787 441.641 631.136 418.904 646.649 411.519Z"/><path fill="white" d="M647.702 415.38C654.277 415.764 655.111 422.866 652.268 426.717C650.843 426.291 651.106 426.164 649.96 424.861C649.572 422.639 651.052 424.57 651.75 421.4C651.182 419.671 651.267 419.393 649.859 418.233C647.35 417.7 645.421 418.519 644.222 420.933C642.884 423.627 640.434 424.661 640.487 427.704C641.687 429.483 640.903 428.993 642.745 429.477L643.098 430.36C643.232 432.045 643.293 432.518 644.603 433.354C646.2 432.693 646.8 431.368 647.985 429.814C648.643 429.928 649.145 430.028 649.82 430.003L649.781 431.022C638.327 443.245 632.072 423.94 647.702 415.38Z"/><path fill="white" d="M448.185 506.918L448.894 507.309C449.471 510.06 449.281 538.526 449.3 543.406C436.849 550.353 422.864 557.293 410.157 563.848L409.281 563.988C408.442 562.454 408.865 531.441 408.876 527.529C420.088 522.386 436.64 512.882 448.185 506.918Z"/><path fill="white" d="M492.354 442.444C492.616 442.72 492.879 442.996 493.141 443.272C493.44 450.729 493.283 472.939 493.285 479.244L454.147 499.498L453.588 499.661L453.04 499.258C452.665 487.842 452.948 475.121 452.993 463.588C465.725 456.229 479.293 449.301 492.354 442.444Z"/><path fill="white" d="M579.409 437.985C580.034 440.694 579.931 469.727 579.95 474.564C569.737 480.965 551.538 489.575 540.238 495.52C539.01 493.898 539.559 463.602 539.574 459.162C552.067 451.957 566.542 444.74 579.409 437.985Z"/><path fill="white" d="M492.477 400.936C493.645 402.233 493.215 433.278 493.233 437.72C480.762 443.928 465.834 452.002 453.693 458.737C452.358 457.232 452.945 426.214 452.958 421.985C466.024 414.809 479.371 408.184 492.477 400.936Z"/><path fill="white" d="M579.297 355.496C580.413 357.089 579.872 388.114 579.853 392.432L540.093 412.987C539.189 411.578 539.561 380.925 539.56 376.48C551.333 371.28 567.09 361.638 579.297 355.496Z"/><path fill="white" d="M448.349 424.453C448.415 424.504 448.5 424.538 448.548 424.607C449.889 426.561 449.055 456.254 449.03 460.872C438.661 466.87 427.419 471.954 416.876 477.677C414.313 479.068 411.578 480.431 408.864 481.485C408.473 470.087 408.742 457.02 408.732 445.493C421.169 438.302 435.504 431.186 448.349 424.453Z"/><path fill="white" d="M579.454 397.035C580.226 398.331 579.891 429.034 579.889 433.393C568.451 440.176 552.363 447.707 540.222 454.191C539.101 452.655 539.662 421.781 539.68 417.582C552.892 410.645 566.151 403.796 579.454 397.035Z"/><path fill="white" d="M448.023 465.932C448.657 466.017 448.294 465.907 449.033 466.459L449.207 501.903C436.26 508.904 422.894 515.682 409.846 522.59L409.432 522.492C408.645 521.309 408.913 490.401 408.906 486.28C421.922 479.253 434.886 472.71 448.023 465.932Z"/><path fill="white" d="M492.447 483.954C493.824 485.735 493.175 515.806 493.198 520.009C481.901 526.874 465.736 534.619 453.648 541.006C452.695 539.352 453.145 508.424 453.194 504.329L492.447 483.954Z"/><path fill="white" d="M622.461 415.506C623.448 418.527 622.729 446.945 622.719 452.847L584.132 472.546C583.063 469.342 583.631 440.795 583.629 435.75L622.461 415.506Z"/><path fill="white" d="M621.944 332.994C623.087 334.615 622.517 365.558 622.494 369.897C610.008 376.766 596.863 383.423 584.21 390.134C583.479 388.556 583.748 357.18 583.713 353.257L621.944 332.994Z"/><path fill="white" d="M535.046 378.949C535.26 379.188 535.474 379.427 535.688 379.666C536.001 386.837 535.747 409.575 535.711 415.557C523.259 422.262 510.648 428.67 497.89 434.776L497.315 434.308C496.557 427.512 497.114 406.082 497.185 398.497C509.763 391.898 522.384 385.382 535.046 378.949Z"/><path fill="white" d="M535.081 461.466C536.661 463.29 535.707 493.498 535.733 497.943C524.184 504.591 509.851 511.529 497.899 517.582L497.221 517.219C496.769 514.137 496.96 508.068 496.963 504.614L497.004 481.463L535.081 461.466Z"/><path fill="white" d="M621.418 374.936C622.214 374.98 621.842 374.837 622.49 375.464L622.529 410.887L584.342 430.91C583.133 429.382 583.703 399.207 583.72 395.029C596.177 388.193 608.88 381.659 621.418 374.936Z"/><path fill="white" d="M534.903 420.449L535.394 420.842C535.913 423.341 535.692 430.616 535.683 433.404L535.615 456.879C523.059 462.993 510.276 470.534 497.635 476.305C496.733 473.536 497.337 444.505 497.388 439.845C509.113 433.323 522.813 426.734 534.903 420.449Z"/><path fill="white" d="M492.573 524.972L492.815 525.195C493.663 527.176 493.207 555.297 493.193 559.333C480.16 566.445 467.009 573.341 453.746 580.016C453.716 579.992 453.677 579.974 453.654 579.942C452.222 577.963 453.063 550.305 453.088 545.634L492.573 524.972Z"/><path fill="white" d="M579.317 479.482C580.378 480.98 579.869 509.564 579.853 513.709C566.952 520.909 553.224 527.79 540.072 534.567C539.348 531.972 539.634 505.373 539.632 500.461C552.713 493.198 566.12 486.698 579.317 479.482Z"/><path fill="white" d="M448.924 547.991C449.464 550.272 449.079 577.438 449.057 582.073C445.099 584.696 437.409 588.472 433.095 590.694C425.244 594.737 417.104 599.146 409.158 602.868C408.674 600.387 408.851 592.783 408.87 589.955C408.933 582.993 408.93 576.031 408.861 569.07C420.403 563.771 437.209 554.202 448.924 547.991Z"/><path fill="white" d="M662.293 311.45C663.785 312.992 663.209 319.098 663.187 321.434C663.104 330.466 663.108 339.49 663.129 348.522C651.073 354.758 639.063 361.081 627.098 367.489C626.001 366.068 626.49 334.733 626.501 330.575C638.245 324.71 650.672 317.726 662.293 311.45Z"/><path fill="white" d="M535.323 502.475C536.55 504.133 535.844 532.652 535.81 536.83C523.562 543.671 510.097 550.43 497.606 556.976C496.723 553.824 497.196 527.318 497.23 522.554C509.868 515.748 522.566 509.055 535.323 502.475Z"/><path fill="white" d="M621.873 457.454C623.16 459.106 622.603 487.099 622.591 491.537C610.385 497.325 596.273 505.167 584.132 511.51C583.044 509.709 583.647 481.525 583.679 477.381C595.743 470.583 609.456 463.954 621.873 457.454Z"/><path fill="white" d="M662.188 353.408L662.607 353.505C663.67 354.916 663.166 384.585 663.191 388.831L627.623 408.056L627.104 407.889C626.182 406.023 626.57 376.404 626.577 372.05C638.278 366.283 650.47 359.465 662.188 353.408Z"/><path fill="white" d="M579.077 319.424L579.484 319.582C580.312 321.588 579.895 346.459 579.87 350.908C569.714 356.94 551.681 365.907 540.748 371.528L539.991 371.412C539.051 369.223 539.582 344.482 539.603 340.378C551.397 334.725 567.479 325.781 579.077 319.424Z"/><path fill="white" d="M492.953 365.451C493.485 368.005 493.193 392.46 493.192 396.286C479.729 403.111 466.675 410.436 452.928 417.291C452.812 407.338 453.241 396.351 452.74 386.551C465.751 379.354 479.716 372.338 492.953 365.451Z"/><path fill="white" d="M448.528 389.04C449.55 390.655 449.095 415.624 449.089 419.702C436.031 426.846 422.805 433.187 409.702 440.179C408.251 438.942 408.783 413.73 408.783 409.913C421.969 402.838 435.218 395.88 448.528 389.04Z"/><path fill="white" d="M621.883 296.489C623.049 298.09 622.497 324.038 622.483 328.03C610.066 335.017 596.68 341.857 584.043 348.56C583.478 346.178 583.717 321.252 583.729 317.039C595.693 310.046 609.559 303.02 621.883 296.489Z"/><path fill="white" d="M535.398 342.507C536.048 343.883 535.613 370.739 535.607 373.911C523.027 380.888 510.069 387.005 497.559 393.991C496.641 391.591 497.282 367.292 497.331 363.108C509.653 356.111 522.854 349.436 535.398 342.507Z"/><path fill="white" d="M662.242 274.951C662.792 275.011 662.463 274.919 663.119 275.482C663.058 285.793 663.058 296.105 663.117 306.416C651.261 312.998 639.314 319.414 627.278 325.662L627.047 325.705L626.492 325.286C625.974 318.016 626.464 301.929 626.494 294.113C638.14 288.141 650.565 281.144 662.242 274.951Z"/><path d="M516.805 575.422C530.067 576.499 524.679 597.608 512.264 602.801C497.979 601.698 504.918 580.283 516.805 575.422Z"/><path d="M559.938 551.125C573.944 552.628 567.632 574.183 555.182 578.497C541.762 575.561 548.683 554.86 559.938 551.125Z"/><path d="M474.115 598.973C488.084 599.15 482.688 620.033 470.774 625.484C456.44 625.767 462.36 604.598 474.115 598.973Z"/><path d="M602.186 529.433C603.212 529.467 604.346 529.496 605.303 529.881C607.118 530.622 608.555 532.066 609.289 533.884C612.356 541.679 606.605 553.233 598.483 556.158C583.974 555.345 590.942 534.889 602.186 529.433Z"/><path d="M645.74 505.971C659.094 506.498 653.809 527.584 642.124 532.64C627.803 531.963 633.925 511.696 645.74 505.971Z"/><path d="M430.817 622.435C444.872 622.414 438.35 642.613 427.487 648.234C414.751 650.377 418.606 629.123 430.817 622.435Z"/><path fill="white" d="M680.92 204.978C682.121 206.608 681.541 233.34 681.524 237.444C656.611 249.756 630.999 263.879 606.353 276.983L475.233 347.163L421.259 376.312C413.97 380.272 398.603 389.158 391.626 392.017C390.441 390.03 391.075 364.14 391.107 359.993C403.813 352.713 418.031 345.63 431.003 338.574L551.078 274.218L631.383 231.316C647.77 222.507 664.258 213.172 680.92 204.978Z"/><path d="M674.556 214.895C675.329 214.799 675.755 214.982 676.576 215.141L676.78 215.989C675.951 218.03 657.703 227.237 654.67 228.881C633.258 240.37 611.785 251.745 590.252 263.007L470.852 327.073C455.294 335.278 439.803 343.61 424.38 352.067C416.008 356.606 406.137 361.678 398.114 366.571L397.668 366.736C396.304 366.192 396.93 366.581 395.996 365.195C396.964 363.085 424.587 348.735 428.752 346.47L497.134 309.634L674.556 214.895Z"/><path d="M675.441 222.952C675.629 223.095 676.217 223.823 676.397 224.034L676.299 225.113C673.812 227.916 665.909 230.893 662.143 232.941C638.276 246.211 614.196 259.095 589.914 271.59C551.447 291.848 513.105 312.345 474.892 333.078C458.177 341.962 441.516 350.949 424.91 360.037C415.858 364.979 406.115 370.021 397.377 375.404C396.503 374.381 396.458 374.449 396.072 373.184C397.635 371.164 419.605 359.94 423.255 357.937C490.583 321.148 558.23 284.947 626.19 249.338C642.539 240.664 658.991 231.303 675.441 222.952Z"/><path d="M675.866 231.008C676.505 231.948 676.238 231.463 676.198 232.929C672.686 237.133 566.374 292.134 552.101 299.763C500.614 327.15 449.309 354.877 398.188 382.942C397.885 382.35 397.663 381.621 397.433 380.98C398.561 378.557 421.663 367.15 426.112 364.672C459.734 346.017 493.554 327.721 527.566 309.788L617.404 262.091C635.818 252.243 657.301 239.948 675.866 231.008Z"/><path d="M328.312 390.444C329.304 390.675 328.923 390.554 329.769 391.335C330.681 394.354 330.156 416.903 330.146 422.052L330.187 480.565L330.411 731.942C323.948 736.123 313.283 741.38 306.277 745.052C292.025 752.436 277.829 759.929 263.691 767.528L182.785 810.578C166.379 819.324 146.31 830.591 129.726 838.546C128.488 838.526 128.564 838.455 127.542 837.711C125.395 834.29 126.41 805.869 126.43 800.138L126.544 739.645C126.671 659.472 127.814 577.677 126.891 497.698C163.663 477.848 200.545 458.203 237.537 438.764L298.804 406.003C307.989 401.13 319.056 394.849 328.312 390.444Z"/><path fill="white" d="M325.443 431.46L325.775 431.768C326.315 433.718 326.037 449.826 326.032 452.687L326.079 502.045L326.401 729.689C306.441 740.931 284.031 751.996 263.683 762.79L131.496 833.081L131.062 832.881C129.406 829.528 131.279 561.845 131.409 536.099L244.082 475.399C271.082 460.531 298.203 445.884 325.443 431.46Z"/><path d="M190.532 573.28C191.375 573.459 192.201 573.716 192.997 574.049C194.755 574.764 195.03 575.387 195.612 576.901C195.124 580.7 177.848 607.228 174.669 612.539C176.6 614.094 178.741 615.531 180.777 616.958C183.094 613.388 187.244 603.05 190.578 601.948L191.394 602.723C192.44 606.153 192.898 616.059 192.072 619.664C191.116 623.837 181.236 627.633 176.765 629.915C168.342 634.273 159.579 639.082 151.101 643.17C150.359 630.844 150.985 611.933 151.002 599.111C158.523 594.648 173.015 587.409 181.209 584.758C184.328 580.934 187.315 577.006 190.532 573.28Z"/><path fill="white" d="M171.849 613.878C170.09 618.631 167.728 619.777 167.698 624.769L168.482 624.984C171.741 622.286 172.418 620.197 173.986 616.409L180.82 621.866L180.759 622.603C173.895 627.591 162.908 632.814 155.056 636.84L155.24 628.733C157.716 625.848 159.776 619.098 161.114 615.333C161.552 617.848 160.964 620.162 163.525 621.274C165.254 620.938 170.24 615.465 171.849 613.878Z"/><path fill="white" d="M175.747 590.972C176.224 591.058 175.965 590.95 176.416 591.483C174.894 593.59 163.663 610.585 162.947 611.069C161.806 609.947 160.84 608.646 159.251 608.742C158.312 609.874 157.594 614.932 156.763 617.352L156.558 617.935C156.027 619.08 156.172 618.794 155.38 619.791C153.885 617.95 154.724 604.968 154.828 601.634C160.72 598.004 169.455 594.008 175.747 590.972Z"/><path fill="white" d="M168.631 609.937C172.658 602.303 184.648 585.043 190.82 579.105C188.011 585.816 176.22 602.902 171.711 610.058C171.307 610.231 170.903 610.403 170.499 610.576L168.631 609.937Z"/><path fill="white" d="M188.601 610.83C190.598 617.147 189.568 619.231 183.695 621.683L183.28 621.116C184.067 618.616 187.184 613.373 188.601 610.83Z"/><path fill="white" d="M168.631 609.937L170.499 610.576C169.42 611.474 166.052 615.75 164.841 617.189C166.165 614.266 166.859 612.616 168.631 609.937Z"/><path d="M190.47 700.92C192.426 701.146 193.719 701.632 195.072 703.039C195.719 705.57 193.326 708.586 191.994 710.896C187.026 719.514 182.14 728.176 177.183 736.799C182.678 742.98 181.389 743.25 189.002 747.867C188.564 743.973 188.322 742.466 187.286 738.705C188.233 736.591 188.656 734.638 191.017 734.102L191.902 734.943C193.295 738.781 193.317 745.331 192.35 749.261C190.313 752.181 180.629 756.547 177.072 758.453C172.668 760.93 158.413 769.169 154.169 769.515C153.464 769.572 153.477 769.682 153.016 769.185C150.212 766.163 151.408 732.86 151.435 726.565C160.875 722.048 173.709 716.705 182.216 710.494C184.176 709.064 188.001 703.321 190.47 700.92Z"/><path fill="white" d="M177.915 718.045C177.729 720.588 170.082 730.145 168.089 732.48C166.222 732.422 163.793 732.047 162.356 733.027C161.601 734.564 162.045 736.63 162.222 738.43C160.177 741.314 157.859 744.3 155.728 747.146C155.199 744.782 155.485 732.092 155.512 729.044C162.896 725.21 170.366 721.543 177.915 718.045Z"/><path fill="white" d="M159.345 747.504C159.772 748.206 160.118 748.804 160.517 749.515C162.968 750.922 165.871 750.306 168.748 750.08L169.467 757.819L170.363 757.151L164.355 760.679C161.373 762.331 158.499 763.733 155.435 765.229L155.454 751.808C156.626 750.337 158.051 748.885 159.345 747.504Z"/><path fill="white" d="M174.848 741.239C176.197 742.013 182.131 748.404 183.936 750.167L178.873 752.97C176.909 754.062 174.333 755.183 172.259 756.154C172.787 751.32 173.338 745.818 174.848 741.239Z"/><path fill="white" d="M189.456 707.443C189.143 711.32 175.452 732.135 173.134 736.979C172.064 739.216 170.943 742.442 169.911 744.764C169.493 745.703 167.255 745.505 165.866 745.592C165.976 743.725 186.964 710.262 189.456 707.443Z"/><path fill="white" d="M165.654 736.78L166.375 737.761C165.852 739.858 164.381 741.493 163.073 743.286L162.736 742.946C163.458 740.618 164.5 738.919 165.654 736.78Z"/><path d="M303.846 468.891C305.57 469.311 305.838 469.636 305.94 471.222C303.694 475.543 252.399 500.191 244.133 505.203C240.064 507.67 222.678 516.486 217.843 518.507C217.392 518.39 216.797 518.027 216.352 517.794L216.009 516.686C217.306 513.985 246.116 499.828 250.402 497.6C268.302 488.191 286.118 478.62 303.846 468.891Z"/><path d="M304.043 484.864L305.214 485.554C306.831 489.456 298.285 492.208 295.01 493.883C288.762 497.053 282.546 500.286 276.363 503.583C258.189 513.248 235.844 525.837 217.58 534.542C216.21 533.23 216.639 533.985 216.121 532.27C216.596 531.093 217.228 530.578 218.337 529.98C236.37 520.245 254.536 510.703 272.68 501.174C282.985 495.762 293.55 489.812 304.043 484.864Z"/><path d="M304.235 550.504C305.59 551.954 305.195 551.138 305.591 552.975C304.277 555.329 292.172 560.88 289.048 562.51L261.672 576.87C248.055 583.93 231.234 593.342 217.648 599.548C216.821 598.247 216.737 598.321 216.624 596.818C217.945 594.565 295.769 554.406 304.235 550.504Z"/><path d="M304.094 677.394L305.083 677.773C305.944 679.115 305.797 678.399 305.499 680C302.658 683.198 291.639 687.973 287.435 690.125L259.126 704.889C246.553 711.431 230.772 720.478 218.398 726.11C216.831 725.435 217.448 725.951 216.526 724.453L216.925 723.18C219.105 720.982 244.747 708.182 248.904 705.996C267.161 696.396 285.642 686.617 304.094 677.394Z"/><path d="M303.412 535.435C304.708 535.466 304.067 535.368 305.34 536.239L305.523 537.45C303.542 541.405 251.868 566.136 244.404 570.63C240.232 573.141 224.114 581.014 218.724 583.525L217.293 583.456C216.268 582.235 216.503 582.924 216.586 581.313C217.096 580.531 217.225 580.298 218.096 579.845C246.509 565.071 275.177 550.522 303.412 535.435Z"/><path d="M303.736 612.963C305.38 613.199 304.712 612.843 305.826 614.035L305.743 615.388C304.329 617.618 299.574 619.81 297.159 620.963C270.603 633.641 244.689 649.236 218.201 661.859C217.801 661.818 217.203 661.567 216.79 661.424C216.187 660.146 216.266 660.808 216.656 659.362C219.356 656.09 294.169 618.226 303.736 612.963Z"/><path d="M301.464 725.937L302.571 726.275C303.433 727.92 303.328 727.073 302.85 728.906C300.78 731.586 226.519 769.758 217.606 773.657C216.564 772.779 216.899 773.028 216.222 771.699C216.637 770.504 216.378 770.606 217.625 769.889C226.951 764.528 236.978 759.668 246.514 754.72L301.464 725.937Z"/><path d="M303.512 597.901C304.93 598.066 304.316 597.837 305.338 598.71L305.368 599.95C303.84 602.438 297.51 605.668 294.777 606.999C269.097 619.513 243.903 634.262 218.213 646.57C216.661 646.238 217.314 646.592 216.19 645.464L216.296 644.249C218.851 640.79 291.98 604.561 303.512 597.901Z"/><path d="M303.269 662.869C304.957 663.314 304.306 662.864 305.334 664.197L305.063 665.366C302.515 668.256 228.78 705.76 218.641 710.727C218.116 710.883 217.708 710.834 217.133 710.848C216.196 709.538 216.403 710.262 216.602 708.574C219.005 705.628 241.574 694.855 246.362 692.376L303.269 662.869Z"/><path d="M192.846 781.45L194.192 781.738C195.067 783.073 194.902 782.348 194.587 784.007C191.728 787.31 157.893 804.036 151.664 807.179C149.995 806.771 149.777 806.276 149.604 804.787C150.996 802.001 187.039 784.43 192.846 781.45Z"/><path d="M192.795 542.011L193.897 542.469C194.48 543.907 194.302 543.157 194.064 544.826C191.657 547.647 157.223 565.35 151.513 568.069L150.134 567.802C149.403 566.546 149.569 567.212 149.854 565.72C152.592 562.319 186.701 545.289 192.795 542.011Z"/><path d="M192.985 525.467C194.216 526.57 194.278 527.184 194.083 528.628C191.289 531.665 157.207 548.428 151.534 551.108C149.596 549.95 150.055 550.726 149.56 549.054C150.625 546.803 161.327 541.988 164.172 540.506L192.985 525.467Z"/><path d="M193.225 652.478C194.606 654.075 194.292 653.201 194.512 655.051C192.317 657.991 155.057 676.408 150.138 678.134L149.562 677.767C149.337 677.214 149.038 676.886 149.256 676.28C150.41 673.066 187.344 655.404 193.225 652.478Z"/><path d="M192.594 669.397L193.241 669.63C194.274 671.058 194.017 670.282 194.049 672.037C192.45 674.668 155.879 692.896 150.625 695.187C149.345 694.102 149.886 694.752 149.22 692.955C149.384 692.572 149.548 692.189 149.712 691.807C162.329 684.467 180.222 676.212 192.594 669.397Z"/><path fill="white" d="M325.432 396.492C326.526 398.062 326.049 422.815 326.041 426.644C306.938 436.049 287.35 447.333 268.492 457.497C223.081 482.324 177.462 506.77 131.639 530.83C131.047 528.672 131.241 504.585 131.051 500.022C146.068 492.481 161.258 483.946 176.184 476.073L325.432 396.492Z"/><path d="M319.044 405.39C320.354 406.174 319.9 405.635 320.45 407.061C319.534 409.281 305.419 415.978 302.277 417.707C287.185 426.053 272.022 434.27 256.79 442.357L139.042 505.568C137.889 505.084 138.425 505.371 137.561 504.107C138.426 501.628 155.143 493.514 158.373 491.777L205.462 466.729L319.044 405.39Z"/><path d="M319.064 421.407C320.241 421.768 319.788 421.409 320.404 422.506C319.926 423.596 318.889 424.45 317.848 424.993C305.662 431.352 293.608 437.957 281.508 444.471L194.01 491.411C176.364 500.786 155.95 510.803 139.102 521.103C138.595 520.946 138.228 520.623 137.754 520.306L137.683 519.33C140.198 516.001 164.28 503.892 170.155 500.768L223.464 472.461C254.765 455.788 287.548 437.133 319.064 421.407Z"/><path d="M319.054 413.961C320.236 414.695 319.849 414.207 320.16 415.515C319.126 417.218 304.431 424.046 301.282 425.743L252.519 452.213L138.733 513.113C137.708 511.867 137.916 512.572 137.8 511.076C138.854 509.687 140.225 508.947 141.749 508.126L254.054 448.45C264.643 442.814 275.184 437.088 285.676 431.271C296.339 425.362 307.955 418.737 319.054 413.961Z"/><path fill="white" d="M703.931 65.5303C716.323 64.5319 713.437 81.3113 713.44 89.9337L713.415 119.907C613.777 177.807 513.174 234.03 411.649 288.553L96.4927 454.59C96.3865 442.241 94.98 406.618 97.9124 396.706C99.2184 392.292 101.457 387.488 104.823 384.292C109.886 379.486 127.361 371.973 134.453 368.054C133.34 374.3 131.039 380.12 130.378 386.184C130.275 387.129 130.708 387.147 131.647 388.042C136.111 387.897 138.37 369.737 138.662 365.719C147.149 361.101 155.674 356.554 164.237 352.078C170.479 348.69 176.781 345.413 183.139 342.246C181.792 347.996 180.138 353.67 178.186 359.244C177.312 361.726 174.047 368.351 175.217 370.168C178.826 370.879 179.763 367.852 180.785 365.03C183.773 356.78 185.951 348.604 187.517 339.991C201.499 331.874 216.912 324.184 231.305 316.74C230.111 328.791 226.266 332.554 223.734 342.531C224.258 344.332 224.035 343.736 225.799 345.12L226.921 344.883C231.135 340.167 235.371 320.75 236.059 313.948C253.094 305.517 270.725 295.165 287.693 286.272L477.273 184.544C498.427 173.026 519.666 161.666 540.989 150.464C550.856 145.216 560.733 139.654 570.691 134.625C570.522 140.749 569.749 145.303 566.842 150.818C564.794 154.704 559.256 157.463 557.567 160.999C558.036 162.59 557.587 161.972 558.973 162.904C563.813 162.658 568.946 155.835 571.001 151.787C574.188 145.511 574.921 138.811 575.513 131.921C586.441 126.929 601.063 118.958 611.768 113.354C611.272 120.855 608.731 129.592 603.636 135.298C601.828 137.322 596.696 138.754 596.187 141.417C597.328 143.122 596.603 142.389 598.714 143.395C600.775 143.153 602.513 141.871 604.13 140.582C613.386 133.209 615.051 121.766 616.496 110.907L658.152 88.839C657.863 97.0607 655.714 105.463 649.233 111.514C647.563 113.073 643.594 114.035 641.676 116.278L641.942 117.738C642.551 118.181 642.935 118.684 643.678 118.594C658.703 116.785 661.613 97.5094 662.509 86.6256C677.255 79.265 687.695 71.5864 703.931 65.5303Z"/><path d="M451.269 217.506C462.438 216.824 464.516 226.341 461.196 235.217C458.439 242.588 452.845 244.914 446.335 248.29C438.321 252.447 430.309 256.656 422.339 260.909L389.288 278.603C382.955 282.007 376.088 285.976 369.625 288.913C359.493 289.916 356.244 280.095 359.87 271.796C364.144 262.015 374.864 258.216 383.988 253.367L413.515 237.596C420.855 233.694 428.172 229.749 435.465 225.76C440.144 223.192 446.493 219.403 451.269 217.506Z"/><path fill="white" d="M453.463 221.485C463.202 224.194 457.75 237.326 451.944 240.614C442.474 245.977 432.574 250.749 422.961 255.902C410.519 262.653 398.035 269.327 385.51 275.923C381.393 278.083 371.708 283.419 367.729 284.613C360.691 284.121 361.784 276.017 364.158 271.626C365.294 269.48 366.933 267.64 368.933 266.264C371.817 264.264 379.437 260.458 382.725 258.712L410.773 243.828C419.17 239.391 427.539 234.903 435.882 230.367C440.064 228.094 449.218 222.755 453.463 221.485Z"/><path d="M446.357 232.478C447.513 233.937 447.163 233.134 447.437 234.983C446.268 237.506 424.263 248.452 419.845 250.795L375.632 274.314C374.442 273.339 374.4 272.739 374.42 271.253C375.339 269.476 439.824 235.455 446.357 232.478Z"/><path d="M168.283 373.094C183.105 373.392 179.374 394.003 164.768 399.091C150.236 398.593 153.018 376.573 168.283 373.094Z"/><path fill="white" d="M166.556 377.939C178.781 377.802 172.581 390.045 166.042 394.476C155.999 395.157 158.703 382.51 166.556 377.939Z"/><path d="M203.126 352.052C218.714 351.093 215.906 371.48 201.637 377.22C187.557 379.794 188.217 357.823 203.126 352.052Z"/><path fill="white" d="M203.034 356.448C215.074 356.962 207.997 368.992 201.567 372.87C190.702 373.639 196.684 360.381 203.034 356.448Z"/><path d="M131.174 392.58C146.798 390.621 145.609 410.441 132.153 416.888C117.613 420.257 117.461 399.778 131.174 392.58Z"/><path fill="white" d="M132.04 396.939C142.717 397.181 137.682 408.488 131.625 412.52C120.715 413.013 125.267 400.882 132.04 396.939Z"/><path fill="white" d="M681.036 813.276C684.205 814.927 687.937 817.15 691.002 819.008C710.425 830.782 731.944 841.141 750.794 853.7C745.08 857.893 726.237 867.906 719.537 871.611L663.645 902.708C628.024 922.787 592.266 942.623 556.373 962.214C545.833 968.002 535.327 973.82 524.699 979.452C518.703 982.926 512.509 985.201 505.822 981.89C493.63 975.853 481.572 968.793 469.628 962.19L382.765 913.413C373.411 908.078 361.687 901.741 352.977 895.852C357.381 893.936 362.6 890.738 366.902 888.38L390.259 875.721L460.521 836.996L460.481 895.701C467.236 899.989 477.111 905.086 484.256 909.002C497.691 916.262 511.049 923.662 524.33 931.201C529.329 929.315 548.277 918.799 553.727 915.736C561.576 911.325 579.369 902.425 586.064 897.657C586.739 886.703 586.317 870.576 586.372 859.233C597.671 865.167 608.36 871.9 619.406 878.04C622.425 876.673 625.939 874.812 628.83 873.156C645.721 863.477 663.985 854.754 680.692 844.866C681.351 835.55 681.016 822.825 681.036 813.276Z"/><path fill="white" d="M709.163 51.0933C714.406 51.311 719.953 54.2915 723.048 58.5184C725.172 61.4206 725.869 66.1312 725.863 69.6766C725.84 82.9931 725.81 96.3094 725.806 109.626L725.91 182.014L725.643 412.331L725.708 505.879C725.729 518.557 726.322 538.497 724.926 550.511C723.441 563.29 710.73 582.664 699.661 589.126C693.395 592.784 683.936 597.526 676.965 601.198C662.34 608.878 647.756 616.636 633.214 624.47L479.74 707.316C392.511 755.968 304.716 803.599 216.373 850.196L136.394 892.502C126.028 897.911 115.864 903.741 105.418 908.993C101.762 910.831 96.1009 912.312 92.0515 911.235C85.687 909.541 84.1147 901.126 84.0837 895.505C84.0602 885.193 84.1508 874.926 84.1562 864.636L84.1557 799.254L84.248 589.25L84.2568 472.516L84.198 432.644C84.1816 421.732 83.3186 405.225 86.2854 395.163C88.8152 386.584 96.6462 375.68 104.247 370.926C107.833 368.683 112.7 366.381 116.57 364.362C122.694 361.109 128.839 357.896 135.005 354.724C135.114 357.225 135.096 359.892 135.125 362.408C130.128 366.206 121.599 370.297 115.873 373.195C106.838 377.664 100.751 380.14 95.9658 389.975C93.3738 395.302 92.188 400.492 92.139 406.458C92.0379 418.751 92.1182 431.129 92.1535 443.424L92.1632 507.535L92.2586 786.708L92.1949 859.066C92.2552 866.297 92.2659 873.528 92.2269 880.76C92.1365 889.769 89.9327 905.48 104.703 898.252C117.409 892.035 130.12 884.893 142.588 878.219L210.842 841.986L445.634 715.052L608.786 626.498L663.052 597.432C674.324 591.441 685.959 585.535 696.92 578.788C708.838 571.452 716.721 554.443 717.439 540.78C717.852 532.919 717.601 524.321 717.593 516.426L717.539 473.365L717.521 344.995L717.508 161.067C717.494 132.7 718.258 104.007 717.564 75.6739C717.495 72.8402 717.179 69.9589 715.986 67.3551C714.686 64.5204 712.344 62.4386 709.397 61.4316C700.362 58.3441 671.82 76.779 662.658 81.5652C662.514 78.9732 662.142 76.2418 661.845 73.6508C673.999 66.9219 696.381 53.5593 709.163 51.0933Z"/><path fill="white" d="M120.636 328.864C128.482 329.836 133.281 343.028 134.411 349.779C128.863 352.97 123.267 356.077 117.624 359.099C105.908 365.263 98.4771 367.626 90.3124 378.641C77.0413 396.546 79.9868 415.342 79.9803 436.42L79.9097 497.145L79.8824 695.114L79.8777 836.801L79.8118 877.428C79.8017 885.911 79.4329 896.667 80.6819 904.839L72.1737 900.26C60.0628 894.498 54.8734 891.219 54.7292 876.945C54.564 860.608 54.7846 844.285 54.7803 827.954L54.7211 729.95L54.5296 501.47L54.5392 424.725C54.5326 413.94 53.5594 387.873 55.8214 378.922C61.0689 358.157 73.3234 353.912 90.1636 345.099C100.392 339.822 110.55 334.41 120.636 328.864Z"/><path fill="white" d="M552.048 96.4274C561.314 99.9105 566.24 108.373 569.193 117.287C544.581 130.004 519.129 144.134 494.687 157.295L319.683 251.607C292.352 266.483 264.887 281.112 237.292 295.492L235.455 296.347C234.032 296.033 234.115 294.616 233.353 292.537C230.613 285.064 227.057 279.833 221.479 274.254C252.242 256.773 284.111 240.687 315.199 223.774C393.881 180.829 472.832 138.379 552.048 96.4274Z"/><path fill="white" d="M433.741 790.473C435.676 790.689 463.656 806.516 467.725 808.686C467.227 811.613 460.184 809.763 457.02 813.338C454.508 816.177 454.55 818.279 454.423 822.073C454.315 825.293 457.852 826.897 460.391 829.427C460.554 830.146 460.877 830.591 460.428 831.258C458.985 833.404 356.868 889.922 353.093 890.832C352.188 891.05 351.528 890.338 350.768 889.893C341.483 884.296 311.652 867.649 306.628 860.643C310.792 857.673 319.099 853.265 323.775 850.658C334.248 844.825 344.763 839.069 355.319 833.39L433.741 790.473Z"/><path fill="white" d="M430.457 739.395C430.802 739.5 431.075 739.766 431.374 739.968C431.758 755.149 431.502 771.368 431.524 786.63C407.153 800.415 382.625 813.922 357.946 827.148L306.391 855.29L305.718 854.711C306.03 848.912 307.732 839.058 308.658 833.148C310.177 823.453 311.533 812.537 313.686 803.117C323.026 797.765 333.218 792.649 342.771 787.463C372.198 771.805 401.429 755.781 430.457 739.395Z"/><path fill="white" d="M464.614 720.365C468.377 720.754 537.438 761.004 546.621 766.214C545.993 773.176 546.649 780.546 546.459 787.769C537.267 783.452 521.684 773.899 512.315 768.503C508.51 769.616 507.094 770.029 503.569 771.785C498.069 776.957 499.235 784.414 499.338 791.336C491.239 795.215 481.88 801.641 473.341 806.08C466.132 803.814 442.783 790.355 435.733 786.07C435.6 769.545 435.56 753.019 435.612 736.493L464.614 720.365Z"/><path fill="white" d="M465.265 830.243C483.759 839.554 502.234 850.962 520.509 860.923L520.553 899.172C520.555 906.578 520.833 917.072 520.264 924.18C502.182 913.949 482.385 903.745 464.671 893.31C464.343 873.482 464.257 849.985 465.265 830.243Z"/><path d="M473.965 843.081C475.553 843.564 484.01 848.72 486.176 849.98C494.316 854.716 504.139 859.159 511.914 864.218C511.951 870.696 512.535 900.927 511.361 905.279C506.906 905.518 488.908 893.177 483.531 890.998C481.551 890.196 475.41 886.39 473.505 885.091C473.445 878.54 472.822 847.993 473.965 843.081Z"/><path fill="white" d="M477.667 850.276C487.672 855.602 497.559 861.176 507.628 866.365C507.67 877.338 507.63 888.311 507.509 899.283C498.584 894.461 485.901 887.976 477.781 882.456C477.407 872.172 477.661 860.65 477.667 850.276Z"/><path fill="white" d="M581.475 839.042C582.502 840.709 581.953 889.083 581.937 895.212C569.596 902.172 557.184 909.005 544.704 915.71C539.636 918.461 530.601 923.758 525.7 925.827L524.801 925.448C524.52 904.891 524.961 883.661 524.873 862.989C527.166 863.982 529.473 864.944 531.791 865.876C536.998 863.997 545.169 859.302 550.308 856.481L581.475 839.042Z"/><path d="M570.998 852.385C572.388 852.31 572.297 852.347 573.57 852.955C576.5 856.59 575.119 882.5 575.042 888.659C571.496 891.347 565.487 894.255 561.399 896.396C552.644 900.981 544.485 904.912 536.226 910.406C534.568 911.046 535.267 911.146 533.952 910.718C532.433 907.937 533.128 879.303 533.169 873.597C537.179 870.775 542.863 867.951 547.257 865.531L570.998 852.385Z"/><path fill="white" d="M570.553 857.564C571.489 859.011 570.934 882.625 570.905 886.165C560.959 892.084 548.577 898.401 538.213 904.04C536.374 901.958 537.445 879.556 537.472 875.319C548.57 869.535 559.598 863.616 570.553 857.564Z"/><path d="M563.883 873.475C564.481 873.784 564.71 874.097 565.226 874.577L565.063 875.577C563.029 877.472 559.436 879.105 556.845 880.448C555.688 879.746 556.183 880.184 555.526 878.94C556.639 876.44 561.235 874.751 563.883 873.475Z"/><path d="M549.82 880.924C551.219 881.271 550.66 880.909 551.55 882.055C550.452 884.465 546.293 886.013 543.759 887.246C543.281 887.286 542.948 887.063 542.42 886.861L542.706 885.447C544.95 883.517 547.246 882.377 549.82 880.924Z"/><path fill="white" d="M569.473 121.924L570.23 122.216C570.916 124.348 570.949 126.871 571.111 129.144C554.135 139.361 530.082 151.426 512.183 160.788C492.247 171.341 472.386 182.036 452.603 192.873C380.923 231.965 308.951 270.517 236.691 308.526L235.87 308.294C235.255 306.707 235.437 303.405 235.432 301.555L569.473 121.924Z"/><path fill="white" d="M503.771 789.205C504.212 789.505 504.808 790.026 505.237 790.376C505.588 792.201 505.747 794.521 507.473 795.534C510.803 797.49 514.187 799.357 517.569 801.221C526.137 805.978 534.787 810.589 543.513 815.05C543.446 819.544 542.182 827.751 546.722 829.949C551.793 829.538 551.598 822.882 551.514 819.377C555.305 821.356 559.157 824.515 563.053 826.047C564.203 826.499 564.776 825.696 565.672 824.979L565.753 823.8C563.636 820.535 555.453 816.823 551.701 815.151L552.068 801.957C562.503 807.474 573.408 813.787 583.773 819.553C576.636 823.25 569.55 827.045 562.518 830.938C554.381 835.541 540.046 844.149 531.822 847.227C524.127 844.12 514.28 838.231 506.867 834.072C494.589 827.09 482.221 820.266 469.767 813.601C472.499 811.435 495.117 798.107 498.699 796.305C498.69 800.946 498.202 811.159 499.488 815.545C499.764 816.486 500.549 816.608 501.25 816.827C504.344 813.948 503.03 794.865 503.771 789.205Z"/><path fill="white" d="M590.4 738.528C591.134 742.632 589.213 754.247 591.164 756.177C600.585 765.494 598.55 742.332 598.518 739.946C611.352 747.432 626.508 754.493 638.852 762.114C638.376 768.557 636.757 775.559 645.101 776.115L645.403 776.737C643.541 779.637 633.067 784.55 629.331 786.523C625.959 788.333 624.861 788.914 621.227 790.069C615.502 787.932 597.936 777.579 591.625 773.827C581.416 767.757 568.956 761.418 559.085 755.295C569.565 749.784 580.004 744.195 590.4 738.528Z"/><path fill="white" d="M676.034 778.58C676.987 779.643 676.707 835.781 676.597 842.219C666.915 848.069 655.388 853.949 645.365 859.384C637.583 863.604 627.372 869.405 619.528 872.83C619.056 851.085 618.901 829.334 619.063 807.585C622.46 807.395 623.581 807.517 626.926 806.437L626.693 844.063C626.624 847.801 625.884 857.291 627.877 860.018C630.27 859.886 633.252 854.185 635.594 852.909C647.209 846.582 659.103 840.41 670.432 833.566C670.562 828.595 671.317 795.511 669.352 793.328C663.667 794.008 638.652 808.809 631.049 812.384C631.011 809.422 631.058 807.523 630.487 804.574L676.034 778.58Z"/><path fill="white" d="M307.968 806.086C311.89 812.776 291.77 857.676 308.402 868.884C320.869 877.285 336.029 885.025 347.812 893.428L348.546 893.957C348.391 897.228 348.462 901.068 348.445 904.387L341.289 900.646C331.473 895.353 321.706 889.972 311.987 884.503C307.233 881.884 302.431 879.434 297.762 876.655C285.011 869.064 289.767 852.786 291.624 840.686C293.088 831.346 294.426 821.987 295.639 812.612C299.649 810.395 303.901 808.231 307.968 806.086Z"/><path fill="white" d="M750.499 859.01L750.897 859.546C750.828 859.726 750.778 859.915 750.69 860.087C748.551 864.252 706.829 886.094 699.448 890.171L566.09 964.487L535.227 981.981C508.077 997.483 514.007 996.082 487.058 980.878L450.238 960.255C418.426 942.53 385.17 925.298 353.734 907.382C353.301 906.047 353.092 903.089 353.748 901.72C385.83 920.858 420.508 939.479 453.101 957.863L485.945 976.313C492.4 979.906 500.221 984.697 507.13 986.995C510.704 988.185 517.654 987.564 521.099 986.001C531.002 981.506 540.808 975.635 550.356 970.38C568.842 960.317 587.273 950.152 605.647 939.887L699.412 887.736C716.561 878.376 733.592 868.8 750.499 859.01Z"/><path fill="white" d="M550.584 768.709C554.019 770.377 558.024 772.641 561.297 774.606C578.932 785.194 597.538 794.954 614.824 806.04C615.313 826.721 614.034 850.133 615.333 870.481C609.369 867.099 603.277 863.796 597.268 860.483C593.752 858.627 589.955 856.377 586.46 854.409L586.49 844.025C590.199 845.795 601.295 851.756 604.278 852.421C607.357 849.154 606.052 816.175 605.961 809.42C602.854 806.889 594.863 802.644 591.104 800.54C583.21 796.104 575.363 791.583 567.567 786.978C562.225 783.847 555.325 779.999 550.567 776.213L550.584 768.709Z"/><path fill="white" d="M642.586 48.4188C649.495 51.3438 655.17 64.1245 657.008 70.9617C643.269 78.288 629.493 85.5431 615.679 92.7265L615.382 92.7965C614.125 92.2447 613.559 89.0695 612.851 87.2634C610.13 80.324 606.439 75.9553 601.095 70.9718C614.193 63.3485 629.146 55.6708 642.586 48.4188Z"/><path fill="white" d="M217.536 276.971C224.398 281.031 228.866 291.47 231.059 298.769C216.52 306.607 201.887 314.268 187.161 321.749C186.354 320.856 185.586 318.348 185.182 317.174C182.323 308.871 180.466 305.931 173.742 300.534C188.17 293.213 203.361 284.844 217.536 276.971Z"/><path fill="white" d="M169.275 302.901C176.074 304.155 181.112 318.042 182.591 324.089C168.199 331.895 153.749 339.594 139.243 347.186L138.996 347.239C137.516 346.235 137.187 341.187 135.992 338.662C133.357 333.092 130.662 330.159 126.064 326.323C137.34 319.043 157.207 309.275 169.275 302.901Z"/><path fill="white" d="M665.501 798.926C665.573 798.955 665.662 798.96 665.718 799.014C667.294 800.559 666.356 827.497 666.284 831.169C655.834 837.638 642.902 844.284 631.904 850.309C630.656 848.937 631.259 821.897 631.301 817.171C643.041 810.933 653.406 805.011 665.501 798.926Z"/><path d="M643.805 818.403C644.866 818.55 644.477 818.451 645.439 819.007L645.538 819.963C644.361 821.819 642.548 822.95 640.771 824.313C639.48 824.02 640.017 824.329 639.133 823.433L639.499 821.758C641.071 819.682 641.435 819.536 643.805 818.403Z"/><path d="M641.869 831.801C643.587 831.96 644.175 831.727 645.202 833.007C644.839 834.5 643.582 835.252 642.347 836.31C640.639 836.514 641.407 836.661 639.939 836.009L639.639 835.002C640.157 833.122 640.41 833.035 641.869 831.801Z"/><path d="M657.711 810.134C658.841 809.92 659.945 810.616 660.239 811.729C660.532 812.841 659.916 813.992 658.827 814.363C658.051 814.628 657.191 814.438 656.6 813.869C656.008 813.301 655.783 812.45 656.017 811.663C656.251 810.877 656.905 810.287 657.711 810.134Z"/><path d="M657.045 822.797C658.703 822.906 659.242 822.891 660.06 824.234C659.859 825.707 659.007 826.251 657.914 827.321C656.413 826.776 656.398 826.894 655.387 825.701C655.603 823.993 655.706 824.374 657.045 822.797Z"/><path fill="white" d="M459.955 815.169C469.458 815.641 517.688 846.946 531.384 851.735C541.491 848.703 582.333 823.753 586.284 823.535C587.863 826.126 587.628 829.178 585.731 831.465C577.575 836.813 565.318 842.993 556.746 847.959C550.91 851.34 537.211 859.12 531.361 861.201C524.607 858.758 515.401 852.949 508.984 849.434C492.525 840.42 476.606 830.197 459.277 822.918C459.294 819.536 459.381 818.498 459.955 815.169Z"/><path fill="white" d="M596.145 73.5383C604.084 77.643 608.542 87.2093 610.953 95.3712C605.424 97.8421 576.296 114.526 573.009 114.286C568.682 104.328 565.912 100.221 557.259 93.8377C569.419 87.0916 583.659 80.0705 596.145 73.5383Z"/><path fill="white" d="M555.569 756.986C560.092 761.784 613.54 791.997 621.17 794.82C627.526 792.818 636.922 787.232 643.011 783.858C654.841 777.183 666.735 770.622 678.692 764.178C678.965 766.544 678.992 769.423 679.08 771.842L675.098 774.448L643.482 792.399C636.553 796.268 628.259 801.19 620.952 803.82C615.013 801.209 552.029 764.832 550.47 762.6C550.188 762.196 550.193 762.149 550.325 761.649C550.902 759.469 553.771 758.095 555.569 756.986Z"/><path fill="white" d="M674.001 32.9562C678.906 33.2757 700.079 44.6503 706.03 47.5853C693.018 50.9955 685.507 55.9149 673.796 62.3061C669.573 64.6514 665.292 66.892 660.958 69.0258C657.947 59.6886 654.47 52.7045 647.024 46.2641C655.019 42.1227 665.767 36.2085 674.001 32.9562Z"/><path fill="white" d="M565.179 790.662C576.788 796.516 589.949 805.164 601.909 811.647L601.913 833.267C601.924 837.123 602.151 842.562 601.666 846.252L600.954 846.708L599.3 845.892C595.767 844.164 589.196 841.473 587.212 838.456C587.201 835.66 589.321 834.791 590.435 832.467C597.407 817.91 574.288 809.481 565.238 804.53L565.179 790.662Z"/><path fill="white" d="M648.43 743.608C657.618 748.568 667.579 755.086 676.728 760.541L666.911 765.955C660.808 769.403 654.642 772.737 648.416 775.956C648.351 765.173 648.355 754.39 648.43 743.608Z"/><path fill="white" d="M182.914 329.006C183.736 330.515 183.478 335.032 183.469 336.929C169.974 344.505 153.383 353.094 139.586 359.987C138.818 358.15 139.059 354.689 139.064 352.548C150.657 345.277 170.399 335.596 182.914 329.006Z"/><path fill="white" d="M230.258 303.975L231.104 304.197C231.807 306.071 231.541 309.345 231.509 311.475C217.038 319.109 202.626 326.854 188.275 334.709L187.788 334.709C187.122 332.882 187.369 328.986 187.387 326.865C201.208 319.079 216.151 311.326 230.258 303.975Z"/><path fill="white" d="M656.835 75.9554L657.303 76.3493C658.225 78.6177 658.179 81.2243 658.337 83.7208L616.69 105.68C616.043 104.398 615.591 99.6897 615.368 98.001C628.16 90.614 643.636 82.9217 656.835 75.9554Z"/><path fill="white" d="M511.718 782.157C515.231 783.722 521.263 787.384 524.813 789.377C530.945 792.838 537.176 796.118 543.5 799.215L543.486 810.271C533.512 804.975 521.205 798.799 511.994 792.618L511.718 782.157Z"/><path fill="white" d="M612.484 730.938C621.28 735.201 630.369 740.113 639.073 744.64C639.107 748.005 639.365 753.04 638.868 756.199L638.01 756.571C634.379 754.616 612.379 743.318 610.94 741.579C613.16 738.551 612.492 734.956 612.484 730.938Z"/><path fill="white" d="M610.938 100.001C612.224 101.382 612.062 106.023 612.11 108.046C602.923 113.679 585.706 122.084 575.727 127.005C574.669 125.686 574.621 121.56 574.4 119.472C586.618 113.056 598.798 106.565 610.938 100.001Z"/><path fill="white" d="M626.654 41.0956C631.967 40.7613 634.847 42.5489 639.27 45.0349C633.768 48.2435 627.977 51.3608 622.388 54.4483C619.804 55.8534 617.205 57.231 614.591 58.5809C615.894 49.7777 617.696 44.2767 626.654 41.0956Z"/><path fill="white" d="M104.997 322.081C107.524 322.093 113.506 323.082 115.682 324.321C115.979 324.954 116.356 325.346 116.031 325.812C114.188 328.45 104.398 332.869 101.314 334.463C98.482 336.075 95.1858 337.645 92.2461 339.12C92.7377 337.488 93.3089 335.88 93.9578 334.304C96.4327 328.281 98.8648 324.619 104.997 322.081Z"/><path fill="white" d="M154.494 295.556C159.631 296.298 161.302 297.299 165.716 299.725C160.928 302.423 155.433 305.171 150.527 307.75C147.666 309.3 145.399 310.384 142.425 311.715C144.934 303.783 146.937 299.601 154.494 295.556Z"/><path fill="white" d="M616.338 721.925C617.889 722.5 622.112 724.739 623.559 725.64C627.619 728.17 639.914 733.078 638.849 738.758L638.063 739.188L635.864 738.291C628.904 735.06 617.112 729.194 610.59 725.444C612.595 723.965 614.181 723.129 616.338 721.925Z"/><path fill="white" d="M537.673 91.6529C541.549 91.8706 544.277 92.6365 547.964 93.7115C543.316 96.5694 535.479 100.438 530.46 103.124C528.039 104.415 525.494 105.657 523.039 106.897C525.513 98.2264 528.343 93.2923 537.673 91.6529Z"/><path fill="white" d="M202.074 271.053C207.035 271.334 209.104 272.351 213.479 274.366C209.531 276.735 203.044 279.907 198.806 282.132C196.206 283.584 193.626 284.851 190.961 286.174C191.354 284.804 191.782 283.445 192.245 282.097C194.256 276.252 196.649 273.688 202.074 271.053Z"/><path fill="white" d="M582.278 67.6013C584.78 67.5859 589.292 67.7937 590.818 69.8564C589.755 72.8299 580.262 76.8408 576.876 78.5346C574.66 79.7745 573.182 81.0237 570.861 80.609L570.321 79.4624C571.229 73.5587 576.562 68.8608 582.278 67.6013Z"/><path fill="white" d="M550.943 782.213C554.32 783.855 557.711 786.188 560.885 788.252L560.824 801.821C558.102 800.627 556.277 799.133 553.914 797.38C552.473 789.266 550.401 792.597 550.943 782.213Z"/><path fill="white" d="M513.524 774.407C517.897 776.794 544.12 790.398 545.427 793.156L544.406 795.168C533.711 789.753 522.717 782.954 511.855 777.276C511.785 776.047 512.497 775.696 513.524 774.407Z"/><path fill="white" d="M623.969 717.868C649.796 728.181 643.592 740.568 644.414 763.549C644.477 765.316 644.806 768.793 644.045 770.192L642.694 770.374C641.787 759.819 645.544 742.408 640.897 732.317C639.553 729.397 625.899 722.219 622.319 720.049L622.264 719.437L623.969 717.868Z"/><path fill="white" d="M604.306 729.445C606.042 731.323 607.914 737.421 604.794 738.61L602.544 737.492C600.296 735.991 598.615 735.581 599.136 732.786C600.516 731.12 602.336 730.447 604.306 729.445Z"/><path fill="white" d="M506.381 774.937L506.717 775.341C506.597 778.899 507.047 782.812 506.666 786.149L505.718 786.747C501.753 782.853 503.703 779.196 506.381 774.937Z"/><path fill="#2F2F32" d="M547.009 801.268C548.841 802.679 547.923 821.157 548.025 824.857L547.074 823.917C546.782 816.587 546.965 808.65 547.009 801.268Z"/><path fill="#2F2F32" d="M594.19 734.327C595.789 735.627 594.953 750.308 594.889 753.201C593.245 751.183 594.001 737.629 594.19 734.327Z"/><path d="M863.517 487.609C872.618 487.075 875.739 489.417 883.678 491.16C919.709 499.069 935.454 528.919 911.763 559.841C907.588 565.29 903.211 568.679 897.634 573.158C903.093 574.657 917.743 579.63 921.731 583.744C935.375 598.817 944.141 623.754 946.494 643.781C948.371 659.758 938.386 667.683 923.517 668.195C923.492 680.214 923.325 692.897 923.602 704.873C923.842 715.282 924.737 726.42 925.193 736.907L929.418 830.242L930.995 870.192C931.353 878.788 932.241 890.874 931.386 899.061C926.793 905.299 917.935 908.109 911.647 904.763C902.582 899.94 887.391 892.354 879.594 886.468C877.989 869.18 887.781 867.69 902.471 870.881C897.086 850.332 890.274 820.1 886.867 799.426C886.219 811.451 883.721 827.897 882.2 840.244C880.299 855.409 878.633 870.602 877.202 885.818C876.719 890.706 876.332 895.674 875.782 900.544C874.466 912.202 875.35 923.771 875.786 935.491C874.786 946.689 862.344 948.165 853.423 945.88C848.064 944.508 841.948 939.842 836.957 937.134C830.43 933.592 820.609 931.291 819.713 922.676C819.391 919.3 820.502 915.945 822.775 913.428C830.516 904.758 840.042 911.976 849.733 911.419L850.539 911.369C847.53 880.538 844.757 849.684 842.22 818.81C841.451 809.341 840.354 799.893 839.591 790.436C837.715 767.163 840.003 743.601 839.189 720.272C831.946 723.801 825.851 730.433 816.731 729.024C815.302 728.803 811.823 726.601 810.543 725.723C800.919 719.119 791.37 712.351 781.765 705.721C769.592 697.455 757.349 689.293 745.037 681.234C739.759 677.768 734.25 674.077 728.864 670.799C723.626 667.611 714.105 661.887 723.743 656.313C750.78 640.675 779.1 626.716 805.974 610.833C812.966 615.057 818.465 619.925 826.144 623.854C826.601 622.352 827.086 620.859 827.599 619.375C832.793 604.601 847.258 596.426 860.572 590.035C861.277 585.606 861.528 581.399 861.851 576.937C850.256 575.842 844.334 573.514 844.333 560.219C844.332 547.546 845.969 534.361 848.371 521.904C833.898 506.789 846.952 491.227 863.517 487.609Z"/><path fill="white" d="M901.359 578.428C905.571 580.024 908.088 581.081 912.085 583.119C920.192 601.545 919.071 624.578 919.226 644.507L919.493 704.714C910.943 713.85 894.563 721.801 882.141 722.931C870.29 724.008 849.847 721.761 843.627 709.923C843.602 706.952 843.394 694.39 844.277 692.264C850.514 677.459 855.095 662.364 858.376 646.607C859.798 639.777 863.131 620.178 855.315 616.002C853.348 618.051 855.809 626.951 855.95 629.813C856.047 631.774 855.977 633.157 855.859 635.119C854.206 649.769 845.938 685.443 835.448 695.894C825.838 704.258 817.883 704.497 805.263 704.492C796.313 704.488 780.037 701.674 791.71 688.775C795.322 684.784 810.133 684.488 815.221 684.559C815.894 684.568 816.751 686.671 818.988 686.962C819.839 686.268 827.654 624.146 834.533 615.257C844.991 601.744 848.857 601.187 863.201 593.776C870.546 597.95 877.546 599.793 885.892 597.603C895.784 595.007 904.314 589.897 901.359 578.428Z"/><path fill="white" d="M843.6 717.667C847.337 719.623 849.967 721.7 854.161 723.146C874.185 730.054 887.393 727.737 905.759 719.941C898.688 738.19 890.425 760.587 885.696 779.48C883.337 788.905 882.074 806.223 880.864 816.43C878.181 837.775 875.679 859.142 873.356 880.529C872.124 889.202 870.899 904.535 870.412 913.351C866.092 917.718 855.417 921.62 854.655 912.689C854.132 906.553 853.692 900.421 853.154 894.288L849.558 855.526L845.764 812.999C844.787 802.352 843.171 790.303 843.15 779.679C843.109 759.053 843.468 738.301 843.6 717.667Z"/><path fill="white" d="M918.658 711.404L919.387 711.754C920.734 723.139 921.025 737.552 921.551 749.244L924.21 810.495L925.856 848.619C926.207 856.183 926.993 866.858 926.473 874.099C922.273 880.806 914.278 878.604 908.524 875.434C907.877 873.913 907.378 872.307 906.852 870.736C903.291 857.787 888.356 792.36 889.333 782.457C890.516 770.471 898.158 752.809 902.502 741.197C905.542 733.067 908.342 724.846 911.461 716.747L918.658 711.404Z"/><path fill="white" d="M865.215 491.599C866.144 491.588 867.072 491.626 867.997 491.715C879.361 492.73 905.056 501.195 911.876 510.894C929.059 535.33 911.895 555.988 892.902 571.311C891.475 573.095 891.673 573.149 889.563 572.987C887.695 571.74 887.457 570.803 886.543 568.812C882.747 560.545 892.536 552.13 889.67 543.253C887.928 537.857 880.597 535.646 876.055 532.796C872.474 530.777 869.089 527.765 865.45 525.9C855.78 520.945 839.403 516.001 848.608 501.935C852.711 495.666 857.9 493.045 865.215 491.599Z"/><path fill="white" d="M805.696 629.423C810.462 631.295 818.296 637.21 822.679 640.359C819.306 655.386 817.84 665.332 816.047 680.443C807.247 680.592 793.282 680.711 786.36 686.654L774.555 678.393C770.654 675.809 750.12 663.074 749.893 659.851C753.997 655.901 798.845 632.731 805.696 629.423Z"/><path d="M777.231 655.762C779.354 657.008 781.326 657.387 782.722 658.527L782.644 659.526C779.704 662.029 779.857 660.468 776.803 659.924C776.945 660.733 777.075 661.545 777.192 662.358C774.624 664.137 771.815 664.222 770.177 661.235L770.61 659.807C772.151 658.663 771.862 659.113 774.458 659.344C775.417 657.25 775.471 657.2 777.231 655.762Z"/><path d="M780.777 653.538C783.374 653.215 785.503 653.079 787.211 655.423C787.51 657.498 787.675 656.533 786.639 658.409C783.82 658.451 781.994 657.265 780.48 654.974L780.777 653.538Z"/><path d="M802.72 641.699C805.021 641.909 806.671 642.145 807.896 644.314C807.955 646.309 808.176 645.34 806.809 647.207C805.011 646.832 803.129 646.212 801.97 644.761C801.623 642.722 801.503 643.729 802.72 641.699Z"/><path d="M799.584 644.386C801.396 644.938 802.557 647.083 802.033 649.061L799.936 650.24C798.451 649.261 796.868 648.553 796.365 646.972C797.312 645.207 797.48 645.564 799.584 644.386Z"/><path d="M787.137 650.396C789.333 650.433 792.991 651.383 793.316 653.873L792.343 654.586C791.211 655.194 791.265 655.17 789.997 655.39C787.352 654.414 786.197 653.384 787.137 650.396Z"/><path d="M793.625 647.175L794.88 648.031C796.393 649.046 796.637 648.987 797.66 650.609C797.55 652.232 797.51 651.76 795.859 653.256C793.819 652.298 791.802 650.893 791.993 648.521L793.625 647.175Z"/><path d="M793.042 671.4C794.79 671.472 795.397 672.109 795.773 673.652C794.925 675.939 795.301 675.174 793.006 676.825C791.711 675.784 790.861 675.27 790.036 673.816C790.809 672.277 791.227 672.454 793.042 671.4Z"/><path d="M798.889 668.049C800.011 669.279 800.499 669.664 801.147 671.228C800.496 672.839 800.436 672.434 798.483 673.532C796.803 672.659 796.171 672.288 795.643 670.723C796.617 668.972 796.871 669.255 798.889 668.049Z"/><path d="M810.828 661.04C812.912 660.8 813.997 660.523 815.727 661.952C816.369 663.658 816.192 663.747 815.768 665.492C813.849 665.551 813.596 665.663 811.994 664.546C810.906 662.926 810.971 663.01 810.828 661.04Z"/><path d="M804.033 665.365C805.571 666.185 805.579 666.726 805.683 668.297C804.61 670.402 805.177 669.676 803.058 670.995C801.446 669.24 801.255 669.56 800.76 667.552C801.839 666.051 802.106 666.293 804.033 665.365Z"/><path d="M807.452 662.599C810.219 663.098 812.092 665.206 810.493 667.948C808.569 667.702 807.579 667.273 806.461 665.661C806.248 663.587 806.07 664.605 807.452 662.599Z"/><path d="M767.653 661.092C770.502 662.236 772.538 663.868 770.687 666.854C768.49 666.003 767.1 665.13 766.482 662.819L767.653 661.092Z"/><path fill="white" d="M852.43 524.236C857.919 527.109 862.257 527.641 867.589 532.125C867.55 535.807 866.494 545.891 867.147 548.359C870.079 551.771 874.766 546.864 877.331 544.79C873.715 548.9 863.007 561.836 874.743 564C877.018 564.42 878.965 560.847 881.171 559.839C880.646 563.887 880.958 565.83 881.863 569.556C884.106 578.79 888.77 576.161 895.932 580.119C897.523 580.999 897.705 581.674 898.11 583.17C897.498 586.141 895.768 587.593 893.514 589.568C883.223 596.176 875.452 595.116 865.107 589.744C865.771 585.326 866.169 580.632 866.622 576.169C868.247 574.209 872.831 569.456 870.698 566.862C868.08 567.079 866.758 569.254 865.26 571.151C847.694 576.134 847.729 562.282 848.904 549.538C849.706 540.848 850.43 532.805 852.43 524.236Z"/><path fill="white" d="M805.546 616.406C807.511 616.4 821.969 626.564 824.912 628.452C824.489 631.074 823.955 632.972 823.259 635.505C818.061 632.163 812.655 628.025 807.417 624.488C800.109 626.699 748.494 653.278 745.679 658.083C745.041 659.172 745.035 660.633 745.319 661.825C746.237 665.692 772.943 682.362 777.752 685.584C780.169 687.148 782.579 688.434 785.096 689.82L783.679 694.6C769.884 685.647 756.579 675.859 742.45 667.348C738.035 664.689 733.117 661.527 729.09 658.36C736.685 653.488 748.803 647.31 756.965 642.8C773.012 633.734 789.208 624.935 805.546 616.406Z"/><path fill="white" d="M917.816 585.907C925.621 591.471 934.304 612.591 937.065 621.512C940.65 633.1 946.497 648.386 938.068 658.931C933.557 663.228 929.341 663.442 923.53 663.54C923.529 641.121 925.32 606.549 917.816 585.907Z"/><path fill="white" d="M830.728 913.521C835.404 913.272 844.683 915.834 850.432 916.519C854.72 925.239 864.26 923.074 871.124 918.826L871.254 928.885L866.836 931.623C863.833 932.897 857.41 934.615 854.496 933.342C846.136 929.69 831.194 924.152 824.091 918.931L824.16 917.881C825.728 915.375 828.027 914.533 830.728 913.521Z"/><path fill="white" d="M888.885 874.067C893.885 873.75 898.272 874.444 903.218 875.031C909.446 883.621 918.235 884.752 927.266 879.897C927.457 885.192 929.257 888.327 924.819 891.733C923.002 892.46 918.97 893.62 917.33 893.462C911.987 892.947 887.797 880.933 884.798 877.918L885.006 876.797C886.515 875.143 886.824 875.095 888.885 874.067Z"/><path fill="white" d="M828.947 706.126C831.839 707.247 833.155 708.549 835.489 710.514C828.935 713.908 824.326 716.086 817.045 717.061C815.495 716.27 813.859 715.294 812.335 714.429C809.353 712.537 806.253 710.211 803.364 708.13C814.332 708.848 818.454 708.733 828.947 706.126Z"/><path fill="white" d="M824.468 924.868C830.454 925.628 845.889 936.819 855.121 937.924C864.815 939.083 867.339 934.772 870.97 935.007C871.796 936.377 871.45 936.374 871.275 938.342C863.183 947.139 849.682 940.102 841.576 935.096C836.226 931.792 829.242 928.892 824.468 924.868Z"/><path fill="white" d="M724.4 660.399C731.535 664.089 782.004 697.763 785.21 702.428C779.804 699.552 726.234 664.8 724.082 662.247L724.4 660.399Z"/><path fill="white" d="M882.998 882.883C893.282 886.144 907.844 898.323 920.14 897.62C921.278 897.555 925.187 896.004 926.996 895.578L927.493 896.125L927.098 898.054C923.308 901.827 914.735 902.791 911.204 900.232C905.164 895.853 887.168 888.091 882.998 882.883Z"/><path fill="white" d="M837.307 713.912L838.421 714.001L838.678 714.67C836.846 717.962 826.803 723.456 823.179 725.104C822.352 725.481 819.597 725.466 818.579 725.452C816.419 724.901 815.884 725.107 815.803 722.853C817.46 720.382 824.23 719.249 827.22 718.2C830.897 716.911 833.785 715.615 837.307 713.912Z"/><path fill="white" d="M871.639 535.263C875.731 537.94 882.172 540.517 884.945 544.02C886.046 545.412 885.315 548.941 884.922 550.709L884.864 550.432C882.901 539.664 880.128 539.027 870.9 543.844C871.387 540.952 871.472 538.187 871.639 535.263Z"/><path fill="white" d="M793.436 708.408C796.86 708.522 811.975 718.248 813.701 720.878C810.37 721.611 796.994 710.984 793.436 708.408Z"/><path fill="white" d="M878.01 545.751C879.893 547.192 879.977 549.152 879.644 551.338C879.148 554.767 877.276 557.845 874.461 559.864C874.006 555.118 876.92 554.718 877.654 550.093C877.177 549.102 877.084 548.893 876.787 547.838L878.01 545.751Z"/><path fill="white" d="M839.223 698.425C839.849 700.598 840.113 704.116 838.899 706.042C837.148 706.223 837.164 705.76 835.242 704.6C835.067 704.492 834.156 703.718 833.967 703.562C834.664 702.002 837.824 699.699 839.223 698.425Z"/><path d="M913.097 134.979C916.272 135.649 918.44 136.637 921.256 138.161C929.98 142.882 932.578 143.403 932.668 153.707C932.909 181.433 932.899 209.131 932.947 236.844L933.01 271.791C933.048 284.674 935.348 302.276 922.448 310.774C916.161 314.915 908.202 318.779 901.527 322.439L857.155 346.768L814.961 370.046C808.561 373.573 797.448 380.068 790.911 382.562C783.941 384.051 775.103 377.53 771.547 371.826C771.18 363.524 771.447 353.274 771.453 344.82L771.497 295.288L771.501 252.43C771.498 239.171 768.561 217.505 780.825 209.3C786.034 205.815 792.645 202.393 798.22 199.317L828.919 182.187L884.514 150.744C893.594 145.647 903.898 139.481 913.097 134.979Z"/><path fill="white" d="M925.496 145.868C926.819 146.38 927.21 146.449 927.906 147.772C928.818 149.504 928.666 153.074 928.7 155.057C929.147 180.939 928.765 206.908 928.829 232.803C928.858 244.633 930.23 287.984 927.822 295.978C926.723 299.627 924.285 303.787 921.266 306.17C916.368 310.037 910.168 312.813 904.722 315.872C893.609 322.219 882.42 328.43 871.155 334.504C844.762 348.781 818.633 363.719 792.203 377.837C791.949 377.927 790.949 378.131 790.649 378.198C789.744 376.559 790.005 361.361 789.988 358.523C789.776 329.292 789.765 300.06 789.954 270.829C789.951 259.346 789.365 245.285 789.748 234.089C789.86 230.826 790.388 227.592 791.318 224.463C792.394 220.882 793.39 220.068 796.527 217.914C800.968 214.865 806.32 212.122 811.063 209.493L836.449 195.383C865.509 179.005 896.165 161.489 925.496 145.868Z"/><path d="M888.142 208.53C892.308 208.227 898.512 210.126 900.596 213.642C903.055 217.791 895.633 230.101 893.627 234.125L881.027 259.527L867.974 286.514C856.032 311.239 858.115 308.99 834.193 295.774C822.944 290.11 816.077 288.025 823.273 274.251C826.337 268.387 827.285 265.894 833.644 263.026C837.878 264.515 849.103 270.685 853.469 272.98C856.146 268.343 859.581 260.609 862.023 255.583L875.525 228.368C878.536 222.271 882.488 212.094 888.142 208.53Z"/><path fill="white" d="M889.824 212.347C892.401 212.863 895.065 214.568 897.393 215.873C893.961 225.65 885.57 240.517 880.985 250.047L865.232 282.979C862.713 288.152 858.437 297.774 854.991 301.856C849.646 299.792 839.291 293.803 833.838 290.821C830.036 288.795 827.597 287.489 824.1 285.037C826.108 278.425 828.336 272.352 832.776 266.978C856.798 278.115 851.987 284.88 863.094 263.09C868.122 253.226 883.837 217.589 889.824 212.347Z"/><path fill="white" d="M782.772 213.261C784.938 213.727 789.179 215.617 791.384 216.529C788.794 219.87 786.218 224.58 785.896 228.781C785.13 238.774 785.498 250.356 785.511 260.436L785.668 349.221C785.678 353.097 786.319 376.303 784.967 378.1C780.889 375.633 778.823 374.163 775.61 370.695C775.283 362.323 775.568 352.067 775.577 343.492L775.615 292.478L775.575 251.64C775.557 243.937 775.416 236.028 775.674 228.333C775.906 221.429 777.66 217.813 782.772 213.261Z"/><path fill="white" d="M913.536 139.354C916.164 139.557 918.752 141.748 921.018 143.294C880.151 167.026 836.549 190.517 795.171 213.485C792.143 212.301 790.749 211.729 787.877 210.131C800.691 202.276 816.665 193.804 829.949 186.294C857.711 170.47 885.574 154.823 913.536 139.354Z"/><path d="M962.572 370.337C965.335 371.299 973.84 376.059 974.267 379.251C975.85 391.14 974.987 404.062 974.773 416.08C974.683 421.154 971.222 428.062 966.562 430.253C957.089 434.707 942.49 445.418 932.728 447.875C926.844 446.941 923.68 443.916 919.586 439.826C919.26 433.563 919.05 405.412 920.236 400.865C921.12 397.392 922.947 394.231 925.516 391.732C929.842 387.539 955.161 374.831 962.572 370.337Z"/><path fill="white" d="M968.119 379.424C968.92 379.472 970.081 379.538 970.258 380.618C971.677 389.278 970.33 398.414 971.001 407.216C971.176 409.373 970.966 412.013 970.97 414.105C970.978 418.762 968.405 424.456 963.93 426.764C955.588 431.066 940.932 441.107 932.531 443.649C931.055 442.904 930.171 442.224 929.493 440.666C928.195 437.685 928.642 405.939 930.151 402.535C933.637 394.667 959.679 382.939 968.119 379.424Z"/><path d="M959.364 393.154C961.332 393.919 961.918 394.095 962.397 396.043C961.673 398.443 949.966 424.611 948.499 426.617L947.572 426.729C944.895 425.45 942.25 423.06 939.918 421.147C939.387 420.719 938.861 420.286 938.341 419.845C936.842 418.555 936.582 418.403 936.46 416.785C937.252 415.531 937.191 415.336 938.46 414.669C939.985 415.222 945.103 419.616 946.756 420.917C948.971 416.489 958.006 395.066 959.364 393.154Z"/><path fill="white" d="M962.179 375.38C962.913 375.512 962.533 375.359 963.247 375.985C961.819 377.741 958.766 378.415 957.005 379.619C950.349 384.169 935.826 390.1 930.599 395.052C928.089 397.4 926.299 400.415 925.44 403.743C924.398 407.901 925.039 432.488 925.009 438.28L924.299 438.303C924.226 438.183 924.154 438.062 924.082 437.941C923.896 427.883 922.541 410.541 924.676 401.231C926.902 391.52 953.397 380.1 962.179 375.38Z"/></svg>