<?xml version="1.0" encoding="utf-8" ?><svg xmlns="http://www.w3.org/2000/svg" xmlns:xlink="http://www.w3.org/1999/xlink" width="1024" height="1024" viewBox="0 0 1024 1024"><path fill="white" d="M0 0L1024 0L1024 1024L0 1024L0 0Z"/><path fill="#1D1C1C" d="M504.098 250.655C510.465 250.397 517.928 252.544 523.395 255.734C552.857 272.921 582.858 289.783 612.216 307.084L758.738 392.707L861.357 452.551L894.517 472.13C917.494 485.572 935.879 495.467 944.814 522.738C949.495 537.026 948.165 550.438 948.152 565.203L948.246 613.95L948.101 768.307L948.191 865.498C948.18 879.584 948.515 893.703 948.277 907.775C948.158 914.834 944.042 927.57 937.974 931.753C925.864 940.104 911.807 947.553 898.544 953.979C895.674 955.369 887.964 954.671 884.934 953.379C850.986 935.951 818.256 915.608 785.079 896.728C773.882 890.357 763.209 883.569 752.039 877.667C752.914 881.764 753.529 884.191 754.848 888.15C759.923 891.911 768.882 897.145 774.481 900.644C784.94 906.882 798.054 913.688 807.48 921.483C810.914 924.322 810.543 937.818 806.214 940.663C802.418 943.158 798.066 945.768 793.98 948.216L771.422 961.677C765.372 965.283 743.469 979.064 738.223 980.912C731.468 983.3 724.248 984.075 717.14 983.174C708.524 982.052 694.702 972.921 686.662 968.336C670.498 959.165 654.443 949.802 638.5 940.25L593.027 913.384C583.278 907.698 573.624 902.15 563.803 896.324C557.243 894.068 556.308 882.768 558.042 876.622C560.054 869.49 580.226 859.415 586.565 855.681C602.162 846.46 617.837 837.372 633.589 828.418C635.783 823.534 638.212 818.712 640.458 813.831C608.605 795.922 575.905 776.663 544.226 758.219L517.29 742.477C510.899 738.741 503.833 734.39 497.15 731.374C491.843 733.661 480.287 743.13 475.705 739.397C473.618 733.946 485.125 728.928 489.256 726.472C481.643 722.123 474.263 717.947 468.614 711.062C460.504 701.177 453.671 686.287 453.459 673.37C453.173 655.853 453.396 638.244 453.408 620.711L453.477 516.113L453.609 363.805C453.653 340.159 452.286 305.445 455.352 281.589C455.549 280.06 461.415 273.754 463.076 272.933C475.235 266.927 491.723 255.009 504.098 250.655Z"/><path fill="white" d="M479.737 355.451C485.956 358.719 493.748 363.69 500.151 367.369C522.323 380.231 544.349 393.342 566.224 406.702C581.233 415.821 595.969 424.127 610.893 432.982C633.993 446.967 657.187 460.794 680.475 474.464L809.016 549.791L854.581 576.272C866.364 583.118 878.366 589.711 889.408 597.711C890.148 656.752 889.396 716.7 889.417 775.797L889.488 833.132C889.494 839.273 889.869 855.882 889.193 861.002C879.076 855.848 865.654 847.407 855.603 841.452L814.292 817.227C803.802 810.957 793.432 804.31 782.873 798.181L479.557 620.074C478.855 613.587 479.377 599.205 479.384 591.817L479.5 533.411L479.737 355.451Z"/><path fill="#1D1C1C" d="M567.566 469.536C574.973 468.929 578.335 471.953 584.411 475.554C588.434 477.938 592.432 480.521 596.487 482.843L664.181 521.997L765.386 581.131C777.626 588.389 789.928 595.548 802.198 602.749C812.303 608.679 810.039 624.464 810.02 634.79L809.941 669.268L809.861 712.468C809.868 719.354 809.946 726.261 809.918 733.145C809.877 742.851 810.95 752.327 800.934 757.422C798.981 757.693 795.973 757.784 794.198 757.01C785.708 753.309 776.366 747.541 768.421 742.841L724.78 717.136C708.896 708.138 693.059 699.059 677.268 689.899C667.399 684.161 657.243 677.871 647.364 672.325C629.702 662.577 612.227 652.495 594.948 642.085C588.249 638.108 578.372 632.748 572.275 628.557C568.335 625.842 565.16 622.159 563.054 617.863C560.756 613.17 559.328 608.1 558.838 602.898C558.314 597.064 558.524 588.402 558.508 582.354L558.446 547.13L558.481 509.135C558.423 499.696 557.423 486.782 559.675 477.589C560.655 473.589 563.842 471.194 567.566 469.536Z"/><path fill="white" d="M568.98 476.444C571.837 476.421 573.644 476.844 576.12 478.316C582.708 482.231 589.353 486.05 595.99 489.881L650.017 521.488C685.489 541.804 720.759 562.468 755.825 583.477C769.056 591.291 782.497 598.857 795.683 606.713C798.238 608.672 802.792 610.413 803.08 614.067C803.863 623.983 803.531 634.626 803.534 644.581C803.577 658.517 803.538 672.452 803.418 686.387C803.405 689.677 804.311 699.992 802.777 702.168L801.385 701.579L671.835 626.994L609.57 590.776C595.891 582.847 579.09 572.895 565.049 565.72C564.887 549.354 564.859 532.986 564.966 516.619C565.004 506.34 564.999 495.944 565.289 485.671C565.424 480.848 565.528 479.605 568.98 476.444Z"/><path fill="#1D1C1C" d="M607.682 518.071C634.308 516.674 652.894 562.159 628.2 571.096C605.311 574.574 582.276 527.468 607.682 518.071Z"/><path fill="white" d="M609.976 524.53C626.624 525.176 643.09 557.005 626.979 564.232C609.191 564.106 593.648 533.513 609.976 524.53Z"/><path fill="#1D1C1C" d="M699.976 571.714C705.044 571.924 714.162 578.132 718.908 580.878C729.746 587.07 740.476 593.45 751.093 600.013C761.631 606.384 772.457 612.014 783.013 618.324C786.95 620.678 789.875 622.548 790.886 627.348C791.542 630.46 790.721 632.652 789.069 635.238C784.602 635.851 781.117 632.419 777.233 630.078L751.949 615.109L717.529 594.913C708.629 589.628 692.599 584.017 699.976 571.714Z"/><path fill="#1D1C1C" d="M701.873 593.887C708.127 595.004 726.371 607.859 733.251 611.373C737.844 613.719 742.373 621.689 735.66 625.968C732.722 625.521 703.956 608.464 700.079 605.57C697.837 600.221 697.414 597.918 701.873 593.887Z"/><path fill="white" d="M565.492 581.216C571.057 584.129 578.45 589.089 584.347 592.422L656.497 633.979C691.336 653.762 726.043 673.777 760.616 694.022C774.578 702.198 789.505 710.396 803.129 718.932C803.176 728.325 804.678 742.007 800.53 749.718C796.025 754.498 786.339 745.963 781.54 743.053L757.738 728.93L625.366 652.244C615.726 646.666 576.916 625.292 571.774 619.861C562.802 610.386 565.09 593.048 565.492 581.216Z"/><path fill="#1D1C1C" d="M579.495 603.008C583.835 603.707 600.592 614.213 605.433 616.927C623.457 626.887 641.331 637.115 659.048 647.61C668.25 652.955 677.728 658.249 686.687 663.966C688.66 665.323 690.697 666.634 691.615 668.972C693.525 673.84 690.821 676.126 686.8 677.689C684.078 677.361 678.288 673.558 675.587 672.019L655.043 660.364C639.505 651.589 624.323 642.772 609.003 633.636C599.903 628.209 590.018 623.398 581.068 617.58C579.248 616.217 575.803 614.672 575.005 612.411C573.46 608.03 575.196 604.462 579.495 603.008Z"/><path fill="#1D1C1C" d="M705.979 675.823C713.642 676.065 748.617 700.259 758.38 704.584C761.905 706.146 768.966 711.103 771.344 714.31C773.483 717.193 771.626 722.478 770.029 725.31C768.628 725.196 767.089 725.033 765.857 724.283C746.612 712.568 726.806 701.74 707.581 690.022C702.378 686.852 702.571 680.396 705.979 675.823Z"/><path fill="white" d="M460.356 638.433C462.729 639.605 465.668 641.319 467.936 642.732C479.589 649.994 491.475 656.82 503.268 663.844L595.5 718.524C700.8 779.209 805.595 840.763 909.876 903.18C909.807 916.676 912.327 930.793 904.721 942.093C896.618 950.741 889.034 949.209 879.607 943.826C871.066 938.949 862.578 933.919 854.049 929.022L792.084 893.228L648.666 810.623C605.85 786.526 563.304 761.954 521.035 736.911C509.953 730.41 484.55 717.704 476.539 709.674C461.562 694.658 460.344 681.1 460.359 661.252L460.356 638.433Z"/><path fill="white" d="M507.296 256.617C517.095 257.966 552.106 280.089 562.658 286.127L702.326 367.605C755.401 397.92 808.194 428.726 860.697 460.02C878.756 470.876 897.474 481.215 915.275 492.287C927.79 500.071 939.57 521.211 941.209 535.544C941.975 542.242 941.654 553.001 941.677 559.936L941.863 601.575L941.717 751.061L941.6 861.702L941.65 890.617C941.682 898.143 942.1 905.411 940.95 912.825C938.277 930.072 926.624 929.756 914.23 938.491C917.779 925.77 916.474 913.889 916.526 900.586L916.512 854.715L916.225 698.343L916.479 603.768C916.501 588.263 916.728 572.24 916.272 556.827C915.8 540.902 904.793 519.851 891.515 510.835C872.255 497.756 851.328 486.669 831.339 474.611C774.9 441.056 718.254 407.851 661.403 374.998C621.422 351.078 581.31 327.379 541.068 303.901L508.948 284.96C500.707 280.07 490.51 273.32 481.641 270.312C489.857 265.171 498.165 259.905 507.296 256.617Z"/><path fill="white" d="M481.973 300.93C488.48 302.28 528.825 326.68 536.267 331.086C559.735 344.763 583.109 358.599 606.387 372.594L722.068 440.248C762.753 463.809 803.179 487.814 843.341 512.258C867.736 527.143 895.245 534.584 889.885 568.501C889.261 572.451 890.459 586.661 888.785 589.269C866.019 575.139 843.067 562.307 819.986 548.722L687.541 470.955L480.007 347.965L479.885 320.62C479.868 314.952 478.93 305.513 481.973 300.93Z"/><path fill="#1D1C1C" d="M832.336 521.253C837.014 521.77 865.247 539.817 870.311 544.37C872.774 546.586 871.983 560.227 871.075 563.821C870.454 563.898 870.178 563.955 869.598 563.96C866.239 563.987 835.636 544.655 832.037 541.331C831.355 536.936 830.983 525.134 832.336 521.253Z"/><path fill="#1D1C1C" d="M499.068 324.519C510.179 323.381 521.483 341.593 518.992 351.575C518.382 354.019 516.135 355.439 514.072 356.488C513.626 356.43 513.181 356.362 512.737 356.287C500.709 354.21 484.761 333.575 499.068 324.519Z"/><path fill="#1D1C1C" d="M530.415 342.129C545.931 343.752 557.886 370.516 542.8 373.797C533.024 371.088 527.068 363.17 523.996 353.814C522.096 348.025 524.414 343.556 530.415 342.129Z"/><path fill="#1D1C1C" d="M589.043 377.511C604.042 377.527 617.506 403.474 605.701 409.429C592.084 406.826 575.056 386.198 589.043 377.511Z"/><path fill="#1D1C1C" d="M559.756 360.495C573.393 362.89 588.545 385.948 574.023 391.87C559.579 389.521 544.508 365.429 559.756 360.495Z"/><path fill="white" d="M472.295 275.587C476.725 275.912 482.391 277.05 486.248 279.389C495.384 284.928 504.497 290.514 513.728 295.904L587.915 339.45L740.479 429.014L838.713 486.843L868.005 504.492C876.368 509.504 887.126 515.044 893.861 521.558C900.312 527.796 907.795 541.895 908.866 550.765C909.899 559.322 909.499 573.093 909.526 582.189L909.704 645.247L909.896 873.214C905.287 870.244 900.639 867.338 895.951 864.495C894.511 760.851 896.507 656.758 896.1 553.143C891.696 528.921 876.958 524.348 858.327 513.211C841.405 502.897 824.336 492.826 807.126 483.001L682.922 410.14C672.94 404.315 663.243 398.15 653.313 392.268L561.327 338.254C539.706 325.515 518.154 312.638 496.483 299.98C493.296 298.119 486.71 293.962 483.103 294.002C477.386 294.066 473.658 299.258 473.556 304.76C473.418 312.244 473.459 319.775 473.4 327.292C473.186 344.919 473.175 362.548 473.368 380.175L473.361 473.215L472.953 570.194C472.889 584.027 472.244 602.54 472.824 616.044C469.343 614.678 463.527 610.646 460.29 608.427L460.498 409.725L460.424 334.157C460.397 320.491 460.286 306.82 460.448 293.156C460.557 283.92 463.178 278.594 472.295 275.587Z"/><path fill="white" d="M629.044 838.11C630.123 839.531 616.277 866.569 615.855 871.729C620.095 876.442 642.834 888.668 649.569 892.6L698.115 921.032C703.864 924.41 732.768 942.667 737.119 943.709C741.875 943.083 747.443 938.078 751.739 935.801C755.439 933.839 759.804 932.192 762.928 929.422C764.738 926.138 757.751 903.305 756.532 897.728L784.128 914.143C789.604 917.423 797.501 921.986 802.438 925.888C795.955 931.331 784.407 937.875 776.762 942.448C767.475 947.951 758.217 953.503 748.988 959.104C739.213 964.98 725.992 974.946 714.131 968.401C705.946 963.885 697.868 958.814 689.727 954.13L592.314 897.675C583.482 892.513 574.085 887.455 565.694 881.718C562.155 879.299 567.739 874.289 569.79 873.009C577.068 868.464 584.524 864.235 591.955 859.944C604.376 852.764 616.739 845.486 629.044 838.11Z"/><path fill="white" d="M460.227 616.451C465.402 618.92 475.781 625.707 481.217 628.926L524.323 654.435L635.139 720.36L834.8 836.829L884.623 865.944C892.921 870.789 902.124 875.822 910.111 881.028C910.067 885.671 910.104 890.349 909.671 894.968C907.129 894.124 900.04 889.68 897.517 888.165L877.458 876.11L801.123 830.966L460.402 630.564C460.194 625.863 460.136 621.156 460.227 616.451Z"/><path fill="white" d="M646.124 816.689C666.413 827.053 690.557 841.972 710.586 853.579C711.386 859.283 714.374 870.824 715.751 876.68C720.068 895.217 724.922 913.626 730.309 931.882L716.226 924.027C697.585 913.342 679.004 902.551 660.484 891.656C649.964 885.347 634.343 875.265 623.702 869.984C628.985 853.991 639.163 832.203 646.124 816.689Z"/><path fill="white" d="M718.429 858.232C726.42 862.312 736.636 868.793 744.753 873.451C745.126 875.752 745.713 878.348 746.241 880.63C749.658 895.396 751.917 911.026 756.795 925.392L750.775 928.76C746.46 931.389 742.823 933.615 738.286 935.893C736.179 930.954 732.461 915.847 730.992 910.183C726.373 892.973 722.184 875.65 718.429 858.232Z"/><path fill="#87878A" d="M563.735 888.404C566.099 888.834 584.85 900.433 588.077 902.348C620.296 921.533 652.697 940.411 685.275 958.98C724.607 981.167 720.059 984.009 760.027 959.908L802.237 934.412L803.235 934.529C803.122 934.656 803.018 934.79 802.897 934.909C799.257 938.519 741.592 972.682 735.311 975.334C730.972 977.144 726.284 977.967 721.588 977.741C711.689 977.276 692.651 964.482 683.31 959.17C657.892 944.608 632.607 929.815 607.458 914.792C600.607 910.751 566.86 891.81 563.735 888.404Z"/><path fill="#1D1C1C" d="M119.269 163.645C131.097 163.558 147.129 175.094 157.706 181.141L210.029 211.206L289.926 257.348C309.728 268.755 329.589 280.373 349.19 292.127C357.815 297.299 364.791 308.296 366.602 317.913C367.543 322.913 367.21 338.538 367.224 344.227L367.065 402.939L367.064 496.745C367.062 512.882 367.16 529.22 366.857 545.356C366.59 549.162 366.577 552.698 364.195 555.919C359.68 562.025 350.182 566.584 342.88 568.002C339.673 568.037 336.597 568.322 333.688 566.811C311.67 555.372 290.466 541.864 268.991 529.557C243.144 514.641 217.401 499.545 191.764 484.268C165.521 468.938 139.312 453.632 113.324 437.875C90.4403 424.001 93.393 411.387 93.386 387.708L93.4699 328.979L93.4419 236.8C93.4343 221.346 93.2857 205.639 93.5806 190.172C93.6757 185.183 94.1092 182.371 96.7926 178.101C100.066 172.893 113.628 164.596 119.269 163.645Z"/><path fill="white" d="M105.344 180.535C117.553 180.056 121.834 184.689 132.13 190.389C139.544 194.493 146.878 198.835 154.236 203.046C185.113 220.618 215.876 238.39 246.523 256.36C268.119 268.669 289.644 281.1 311.098 293.655C319.897 298.803 328.851 303.906 337.605 309.134C339.335 310.167 342.91 313.246 343.895 314.937C344.74 316.388 345.112 322.226 345.106 324.097C345.055 339.148 344.881 354.212 344.894 369.265L345.092 482.139C345.132 503.847 345.631 535.176 345.099 557.466C345.062 559.033 342.667 560.469 341.238 561.249C340.718 561.221 340.198 561.185 339.679 561.141C332.295 560.477 306.446 543.913 298.496 539.181C282.407 529.528 266.228 520.024 249.963 510.671C228.543 498.396 207.247 486.111 186.144 473.291C162.036 458.645 137.041 445.32 113.044 430.466C107.671 427.14 102.265 421.17 100.983 414.902C99.8419 409.326 100.301 403.186 100.32 397.52L100.279 373.498C100.197 344.355 100.26 315.211 100.47 286.069L100.495 221.741C100.492 210.617 100.208 198.937 100.921 187.857C101.161 184.124 102.533 182.778 105.344 180.535Z"/><path fill="#1D1C1C" d="M131.957 231.482C139.99 231.089 191.356 264.836 202.209 269.625C212.93 274.355 212.38 288.608 212.119 298.788C211.758 312.867 212.998 328.958 211.44 343.071C211.184 345.707 206.909 348.348 204.909 349.472C202.978 349.234 201.295 348.884 199.513 348.086C191.788 344.625 135.215 313.635 130.115 308.58C128.121 306.604 126.151 303.96 125.422 301.207C123.591 294.299 124.638 283.896 124.622 276.56C124.551 262.966 124.562 249.37 124.653 235.776C127.625 233.469 128.581 232.958 131.957 231.482Z"/><path fill="white" d="M132.135 238.28C132.345 238.296 132.557 238.297 132.766 238.327C136.954 238.938 189.614 269.304 196.667 273.82C198.929 275.268 201.803 277.155 203.419 279.308C204.751 281.082 205.013 284.735 205.204 286.961C205.926 295.386 205.392 304.274 205.374 312.745C205.358 320.781 206.363 330.481 204.733 338.296C204.425 339.771 204.084 341.509 202.761 342.391C199.559 341.444 189.609 335.833 186.049 333.915C186.758 328.909 186.58 323.23 186.581 318.125L186.509 291.113C184.353 289.051 179.587 285.358 178.063 283.259C174.649 278.558 170.308 264.096 162.384 273.288C160.156 275.871 155.376 274.051 152.3 273.917C149.711 276.505 150.608 307.828 150.572 313.647C139.445 307.2 129.574 304.372 131.493 290.66C132.726 281.844 129.6 244.275 132.135 238.28Z"/><path fill="white" d="M157.431 287.405C164.317 291.718 172.386 296.096 179.506 300.163L179.565 330.373C171.975 325.713 165.382 321.735 157.489 317.626L157.431 287.405Z"/><path fill="white" d="M166.65 277.933L167.134 277.879C168.214 278.438 179.072 292.432 180.876 294.564C178.558 293.376 177.199 292.513 175.043 291.105C169.946 287.845 163.978 284.725 158.608 281.37C161.51 280.272 163.839 279.223 166.65 277.933Z"/><path fill="#1D1C1C" d="M243.394 296.45C244.122 296.48 244.127 296.459 244.971 296.623C246.776 296.975 248.606 297.781 250.235 298.619C262.294 304.825 273.778 312.424 285.489 319.268C294.131 324.319 303.629 328.808 311.783 334.595C314.194 336.306 316.005 338.396 317.57 340.903C319.548 344.072 320.812 347.455 321.345 351.163C322.095 356.379 322.168 401.418 321.207 405.199C320.284 408.831 318.322 410.954 315.173 412.838C314.365 412.944 311.163 413.385 310.468 412.971C289.68 400.576 268.635 388.522 247.794 376.176C241.019 372.163 237.265 366.952 237.017 358.895C236.438 340.073 235.724 320.573 237.086 301.832C237.261 299.434 241.534 297.424 243.394 296.45Z"/><path fill="white" d="M243.598 303.713C249.423 304.483 273.807 320.496 280.927 324.311C286.247 328.129 309.532 338.692 312.267 343.802C317.833 354.204 315.283 391.339 314.62 404.024C314.341 409.371 300.573 399.976 298.119 398.467C298.123 390.602 298.017 382.738 297.802 374.876C297.644 373.159 297.264 371.621 297.989 370.137C299.094 369.163 299.554 368.722 300.576 367.593C301.046 366.194 301.334 363.001 300.689 361.946C297.669 357.001 283.495 335.468 279.531 333.59C278.634 333.723 275.682 335.133 274.85 335.999C271.185 339.81 260.45 337.836 260.278 344.542C260.235 346.22 261.976 348.635 261.992 350.627C262.064 359.451 262.029 368.26 262.015 377.077C258.474 375.05 246.381 368.604 245.263 365.294C242.448 356.962 243.547 338.406 243.449 329.589C243.374 322.886 242.485 308.828 243.598 303.713Z"/><path fill="white" d="M268.931 352.183C276.214 356.669 283.736 360.955 291.08 365.431C291.056 375.046 291.168 384.662 291.416 394.274C285.777 391.349 275.033 384.368 268.909 380.808C268.777 371.38 268.918 361.636 268.931 352.183Z"/><path fill="white" d="M279.528 341.474C280.426 342.286 283.746 348.063 284.789 349.581C287.387 353.36 289.965 356.641 292.873 360.189L285.707 355.424C280.536 352.268 274.721 349.1 269.415 346.085C273.839 345.003 276.293 344.774 279.528 341.474Z"/><path fill="#1D1C1C" d="M131.159 343.312C133.279 344.034 140.183 348.547 142.663 350.023L167.871 364.848L209.287 388.306C215.863 392.035 222.666 395.754 228.837 400.117C231.274 401.84 229.255 404.853 227.783 406.395C221.453 403.935 210.309 396.223 203.707 392.492C178.744 378.385 153.3 364.65 129.087 349.31C128.142 348.711 128.203 347.156 128.199 346.228C129.044 344.378 129.292 344.368 131.159 343.312Z"/><path fill="#1D1C1C" d="M130.547 381.209C133.695 381.756 152.49 393.49 156.38 395.756L192.394 416.424L212.663 428.11C216.038 430.036 227.273 435.66 228.245 438.944C227.944 440.68 227.051 441.434 225.905 442.797C224.084 442.366 131.426 389.484 129.234 387.625C128.209 386.755 128.091 386.002 127.946 384.724C128.414 382.97 129.224 382.465 130.547 381.209Z"/><path fill="#1D1C1C" d="M129.15 362.338C129.594 362.344 131.342 362.3 131.691 362.517C161.203 380.902 192.237 396.892 221.997 414.916C224.131 416.209 226.71 417.674 228.062 419.777C228.489 421.39 228.152 421.821 227.543 423.378C226.67 423.511 225.744 423.596 224.863 423.519C222.253 423.291 140.734 375.911 132.559 370.708C131.322 369.92 129.8 369.028 129.009 367.744C127.966 366.053 128.688 364.088 129.15 362.338Z"/><path fill="#1D1C1C" d="M251.495 410.188C255.285 411.126 262.002 415.598 265.643 417.651C273.598 422.07 281.517 426.554 289.399 431.102C297.473 435.779 306.07 440.662 313.971 445.679C315.444 446.613 315.232 446.757 315.749 448.223C315.506 450.244 315.229 450.427 314.016 452.167C313.131 451.925 311.816 451.529 311.029 451.083C293.096 440.914 275.061 430.893 257.249 420.516C254.735 419.051 250.595 416.834 249.759 414.041C249.986 412.241 250.513 411.699 251.495 410.188Z"/><path fill="#1D1C1C" d="M251.158 429.033C254.886 430.256 264.135 435.811 267.999 437.997L296.969 454.27C302.531 457.4 308.422 460.502 313.662 464.133C316.66 466.21 316.545 468.393 314.667 471.093C305.883 469.218 283.312 452.753 273.983 448.549C267.35 445.56 259.069 440.076 252.396 436.66C250.789 435.837 250.009 435.245 249.44 433.579C249.666 431.474 250.118 430.955 251.158 429.033Z"/><path fill="#1D1C1C" d="M277.024 461.166C283.765 462.499 306.492 478.777 314.214 482.022C317.024 483.202 315.737 486.449 314.523 488.543C309.777 488.078 299.87 480.791 294.987 478.276C289.334 475.365 283.213 471.554 277.63 468.393C274.347 466.534 275.58 463.833 277.024 461.166Z"/><path fill="white" d="M119.383 170.562C122.14 170.236 123.952 170.236 126.519 171.463C135.863 175.929 144.709 181.72 153.741 186.782C201.187 213.453 248.352 240.622 295.228 268.282C306.555 274.741 317.832 281.288 329.058 287.922C334.645 291.163 341.674 294.914 346.886 298.411C350.234 300.674 353.09 303.589 355.284 306.982C357.254 310.021 360.186 316.211 360.391 319.746C360.929 329.014 360.728 338.677 360.706 347.976L360.621 397.75L360.673 505.83C360.65 519.389 361.125 536.756 359.81 550.316C359.507 553.44 354.642 556.003 352.007 557.551C351.749 555.821 351.948 545.758 351.956 543.281C351.995 533.229 351.983 523.177 351.92 513.125L351.674 378.292L351.919 339.224C352.032 314.863 353.765 308.898 329.894 296.595C323.112 293.099 313.979 287.556 307.218 283.599C273.989 264.163 240.634 244.947 207.153 225.949L145.005 190.131C135.602 184.82 120.684 174.38 110.395 173.718L119.383 170.562Z"/><path fill="#1D1C1C" d="M288.036 775.211C303.408 774.739 321.182 788.901 334.437 796.984L371.558 819.3C382.214 825.639 393.335 831.756 403.986 838.138C406.115 839.413 408.129 842.5 409.433 844.634C410.006 863.234 410.636 864.025 394.31 873.339C382.848 879.879 370.602 887.026 359.122 893.69C323.524 914.824 287.781 935.711 251.896 956.352C238.75 963.974 225.418 972.057 212.079 979.377C207.455 981.915 202.225 982.5 197.042 982.77C184.392 983.032 173.091 974.3 162.478 968.084L126.335 947.207L97.6546 930.921C89.6239 926.379 75.6951 920.829 75.535 910.866C75.4664 906.604 74.757 894.609 78.5547 891.798C92.9718 881.128 109.997 872.556 125.641 863.635L170.702 837.609L233.874 800.834C246.789 793.313 260.093 785.677 273.253 778.578C277.772 776.14 282.972 775.63 288.036 775.211Z"/><path fill="white" d="M233.546 809C264.559 829.532 297.366 847.894 328.842 867.669C336.392 872.412 344.176 876.763 351.593 881.724C343.368 885.732 331.345 893.241 323.329 897.897L263.615 932.739C259.927 934.868 240.306 946.572 238.007 947.44L236.794 946.829C210.995 932.185 184.79 916.529 159.173 901.52C145.87 893.725 129.22 884.883 116.573 876.926C155.42 854.037 194.412 831.395 233.546 809Z"/><path fill="#1D1C1C" d="M258.22 837.405C259.354 837.699 268.152 842.797 269.126 843.804C273.306 848.125 300.152 859.643 299.518 865.435C295.802 870.722 277.314 880.35 271.221 884.381C265.758 887.995 255.824 893.837 250.045 896.549L242.665 892.976C236.311 889.58 203.777 872.234 202.038 868.177C201.32 866.503 201.747 864.606 202.595 863.076C205.242 858.296 215.735 852.304 220.944 851.126C223.826 850.474 226.957 853.2 229.221 854.709C237.757 848.791 249.039 842.645 258.22 837.405Z"/><path fill="white" d="M258.285 845.473C264.35 848.181 283.658 860.257 289.564 864.425C284.642 868.843 274.068 875.007 268.301 877.87C258.109 872.72 246.515 864.626 235.526 858.93C242.804 853.943 250.408 849.447 258.285 845.473Z"/><path fill="white" d="M220.277 858.394C223.131 858.331 256.541 878.692 261.67 881.659C260.559 882.757 259.428 883.835 258.278 884.891C252.003 883.555 222.702 865.956 215.547 861.724C216.981 860.601 218.761 859.439 220.277 858.394Z"/><path fill="white" d="M110.264 880.477C112.706 882.922 118.018 885.47 121.091 887.287C157.768 908.967 195.068 929.698 231.607 951.588C227.606 954.159 207.014 966.355 203.647 967.468C201.009 967.957 198.387 968.223 195.705 968.068C192.828 967.901 190.37 967.131 187.799 965.884C178.161 961.209 86.737 909.025 84.0612 905.7C82.7819 904.11 82.0541 901.852 82.449 899.815C83.6607 893.566 104.521 883.722 110.264 880.477Z"/><path fill="#1D1C1C" d="M142.771 908.405C143.906 908.396 181.263 930.093 183.62 932.064C184.958 938.301 173.989 941.983 169.203 944.839C165.701 945.595 138.833 928.083 133.906 925.394C120.322 917.976 135.966 912.257 142.771 908.405Z"/><path fill="white" d="M142.08 916.389C144.386 916.131 170.273 931.403 174.44 933.645L168.785 937.086C166.418 937.701 160.26 933.142 157.878 931.742L136.712 919.518C138.369 918.444 140.346 917.38 142.08 916.389Z"/><path fill="white" d="M286.252 781.619C299.181 780.965 306.628 787.775 317.145 794.184L351.747 815.274L384.097 834.5C388.927 837.343 400.765 843.905 404.208 847.154C399.764 855.511 393.443 857.569 385.362 862.069L266.481 790.142C273.526 785.95 278.092 782.969 286.252 781.619Z"/><path fill="#1D1C1C" d="M314.813 803.246C318.635 803.778 351.108 824.979 357.099 828.449C359.046 829.576 359.285 829.914 359.641 831.723C359.068 833.75 358.815 833.884 357.383 835.528C351.947 834.765 320.877 812.8 313.947 809.721C311.61 808.683 313.453 804.931 314.813 803.246Z"/><path fill="white" d="M259.505 793.923C264.102 795.05 303.925 820.603 310.253 824.488L357.928 853.51C364.629 857.625 371.844 861.765 378.337 866.114C372.203 869.192 364.734 873.734 358.694 877.206C356.612 877.392 251.787 812.286 239.911 805.401C246.44 801.988 253.158 797.764 259.505 793.923Z"/><path fill="white" d="M400.431 861.594L400.523 861.639L400.544 862.21C397.793 864.466 390.886 867.612 387.343 869.675L346.556 893.411C315.074 912.121 283.466 930.617 251.734 948.899C238.268 956.72 224.913 964.754 211.378 972.467C194.426 982.129 182.255 972.103 167.699 963.681L133.293 943.719L101.587 925.764C96.5028 922.871 87.5273 918.078 83.3858 914.443L83.0528 913.616C84.3003 913.63 94.6456 920.242 96.5483 921.352L153.444 954.117C165.073 960.848 177.374 968.616 189.739 973.905C194.261 975.752 202.809 975.236 207.293 972.98C220.841 966.164 234.516 957.305 247.661 949.775L358.668 885.176C372.123 877.485 386.503 868.223 400.431 861.594Z"/><path fill="#1D1C1C" d="M296.414 38.7054C296.866 38.6075 297.24 38.4951 297.712 38.526C301.07 38.7456 405.715 100.087 414.88 106.031C417.948 108.021 420.677 110.232 423.114 112.97C427.443 117.832 430.837 124.141 432.015 130.577C433.112 136.567 432.627 143.048 432.61 149.111L432.566 178.509L432.665 240.773C432.674 251.582 433.045 265.213 432.449 275.836C428.003 282.51 415.853 289.862 407.684 289.223C398.296 285.796 394.365 282.845 385.778 277.861L360.007 263.056L309.077 233.869C300.029 228.608 290.192 223.338 281.823 217.14C267.921 206.845 270.692 188.313 270.622 173.119L270.546 123.331L270.502 79.8667C270.496 72.2794 270.284 64.3673 270.777 56.853C271.734 50.6444 278.556 46.0709 283.427 43.0281C288.34 39.9593 290.95 39.2295 296.414 38.7054Z"/><path fill="white" d="M282.028 53.4821C288.359 53.8184 318.862 72.965 326.971 77.7288L382.074 109.81C390.274 114.62 402.498 119.481 407.268 127.603C413.437 138.105 411.58 156.029 411.591 168.11L411.64 223.251L412.1 262.783C412.122 266.476 412.388 276.923 411.633 280.054C410.349 281.561 410.197 281.572 408.363 282.447C403.374 281.168 378.62 265.881 372.845 262.597L326.923 236.508C314.061 229.281 301.186 222.106 288.691 214.247C284.014 211.305 277.775 204.356 277.597 198.665C277.313 189.56 277.466 180.319 277.485 171.195L277.598 116.442C277.63 98.8138 277.028 75.0924 277.828 57.038C277.895 55.5208 280.671 54.198 282.028 53.4821Z"/><path fill="#1D1C1C" d="M295.519 80.998C302.87 80.8474 309.28 85.9179 315.628 89.5706L343.124 105.4C351.75 110.321 360.436 115.171 369.047 120.118C380.524 126.712 392.562 130.614 397.881 143.842C399.209 147.135 400.025 150.612 400.302 154.152C401.235 165.566 400.122 178.644 400.476 190.309C400.854 202.761 400.62 215.399 400.83 227.869C400.87 230.271 400.753 233.132 398.36 234.055C394.158 233.726 307.764 183.283 295.964 177.234L295.891 187.612L301.399 190.9C310.314 195.637 395.002 243.474 396.379 245.068C397.426 246.281 397.227 247.521 397.144 249.003C396.584 249.74 396.005 250.422 395.003 250.217C388.705 248.927 378.688 242.12 373.479 239.203L332.243 216.01C321.41 209.866 298.534 197.672 289.238 190.936C289.193 177.69 287.848 91.5729 290.137 85.6745C291.096 83.2032 293.267 82.0952 295.519 80.998Z"/><path fill="white" d="M296.829 87.7148C297.99 87.8508 299.116 88.2026 300.148 88.7522C303.562 90.5794 307.701 93.3427 311.21 95.3614C322.205 101.701 333.247 107.96 344.335 114.137L370.25 128.536C374.445 130.862 380.4 134.062 384.503 136.687C388.72 138.782 393.389 148.103 393.37 152.402C393.339 159.238 394.294 213.051 392.844 215.047C385.346 210.243 375.717 205.122 367.828 200.709C355.757 193.823 343.614 187.065 331.4 180.436C319.809 174.154 307.126 166.408 295.492 160.882L295.496 114.605C295.497 109.408 294.743 91.6332 296.829 87.7148Z"/><path fill="#1D1C1C" d="M347.016 118.435C348.564 118.347 348.59 118.278 350.066 118.657C350.909 119.94 354.66 130.292 354.889 131.839C356.168 140.509 375.673 176.643 369.815 181.989C364.984 183.246 355.326 176.625 350.622 173.957C343.719 170.136 321.834 160.103 318.322 154.446C317.834 153.66 317.446 152.632 317.72 151.712C318.58 148.827 343.591 120.466 347.016 118.435Z"/><path fill="white" d="M346.823 129.316C347.182 129.586 347.712 130.08 347.847 130.491C352.574 144.915 358.154 159.019 363.264 173.31L349.762 165.982C342.115 161.762 333.851 156.542 326.044 152.831C327.377 151.066 328.894 149.45 330.391 147.824C335.977 141.753 341.198 135.351 346.823 129.316Z"/><path fill="white" d="M295.01 168.383C298.135 168.833 312.333 177.297 316.308 179.498L374.787 212.58C380.378 215.736 387.5 219.641 393.312 222.726C393.589 223.214 393.866 223.702 394.143 224.19C391.804 224.436 384.936 219.96 382.58 218.681C372.636 212.698 357.844 205.427 348.577 199.274C340.71 194.051 297.2 171.976 295.01 168.383Z"/><path fill="white" d="M288.4 46.2254C293.605 45.3506 298.131 46.2108 302.757 48.727C311.053 53.2382 319.09 58.2626 327.302 62.9588C346.48 73.8595 365.56 84.9334 384.538 96.1791C395.48 102.586 409.221 109.402 418.583 117.71C426.439 124.681 425.814 139.935 425.846 149.256L425.911 175.586L425.87 273.97C424.974 274.772 423.792 275.65 422.83 276.41L418.451 279.226C419.714 253.313 418.681 223.03 418.664 196.568L418.714 161.265C418.757 144.786 420.294 126.261 404.501 114.879C397.715 109.988 388.042 105.314 380.61 101.137C362.938 91.2043 345.761 80.3373 328.155 70.3361L305.313 57.3182C301.459 55.1545 291.008 49.4576 287.867 46.8032L288.4 46.2254Z"/><path fill="#1D1C1C" d="M217.524 535.575C218.185 535.79 218.164 535.749 218.863 536.169C222.596 538.41 313.347 675.009 321.661 688.274C323.01 690.426 325.097 693.207 325.473 695.735C323.911 699.972 314.527 704.709 310.338 707.184C303.182 704.242 293.538 698.591 286.433 694.962C272.179 687.68 257.517 679.613 242.938 673.056C240.386 691.97 237.701 710.865 234.883 729.741C233.47 739.061 231.752 751.657 229.712 760.685C227.417 762.412 224.671 764.103 222.243 765.684C218.886 767.536 213.142 772.649 209.498 771.508C206.912 765.067 205.521 758.371 203.856 751.634C201.785 743.042 199.576 734.483 197.231 725.961C189.138 696.533 179.677 665.733 172.211 636.388C164.313 631.954 155.757 627.912 147.651 623.781L114.379 606.605C108.981 603.855 91.0013 594.951 87.4321 591.804C86.8301 589.947 86.8368 590.848 87.3685 589.003C90.7697 585.716 104.15 581.041 109.414 578.623C132.098 568.205 155.455 558.597 178.701 549.498C190.314 544.953 205.497 538.966 217.524 535.575Z"/><path fill="white" d="M204.513 549.679C205.713 550.98 211.061 559.238 212.268 561.099C217.711 569.491 222.997 577.884 228.629 586.172C253.528 622.067 277.876 658.341 301.665 694.981C282.211 686.316 263.241 675.222 244.028 665.958C240.7 664.353 230.022 657.909 227.014 659.479C223.766 665.676 216.229 721.852 214.693 731.881C213.497 738.694 212.369 745.519 211.308 752.355C206.56 737.256 202.596 719.979 198.345 704.511L177.458 630.581C169.757 628.157 161.562 623.414 154.266 619.628L122.907 603.365C119.965 601.845 103.907 593.95 102.196 592.507L102.3 591.824C104.709 590.47 107.369 589.923 109.889 588.77C133.453 577.979 157.823 569.129 181.66 558.986C188.716 555.984 198.028 553.476 204.513 549.679Z"/><path fill="white" d="M215.259 542.939L216.046 543.079C219.282 545.705 245.865 586.697 249.514 592.102C266.901 617.328 284.028 642.731 300.892 668.309C305.752 675.82 313.973 687.531 317.938 695.244L312.242 698.488L210.133 546.2C211.784 545.071 213.558 544.003 215.259 542.939Z"/><path fill="white" d="M231.748 667.051C233.546 667.9 235.404 668.885 237.185 669.789C234.471 679.503 233.732 691.946 232.111 702.007C229.204 720.051 226.933 738.311 223.734 756.289C223.571 757.205 222.304 758.101 221.631 758.615C220.091 759.609 218.247 760.627 216.646 761.565C217.173 758.06 217.742 754.35 218.403 750.88C223.651 723.305 226.082 694.465 231.748 667.051Z"/><path fill="#1D1C1C" d="M449.294 750.482C451.208 750.348 452.969 750.886 454.282 752.255C454.822 757.596 435.873 766.704 431.281 769.328C428.434 769.806 426.944 769 426.419 766.13C427.689 761.673 444.382 753.299 449.294 750.482Z"/><path fill="#1D1C1C" d="M401.204 779.511C403.385 779.227 405.139 779.324 407.021 780.568C408.581 785.68 390.246 794.7 385.862 797.368C383.893 797.421 382.695 796.745 381.226 795.579C379.691 792.105 383.635 789.921 386.281 788.275C391.15 785.246 396.121 782.163 401.204 779.511Z"/><path fill="#1D1C1C" d="M367.795 798.9C370.143 798.894 370.236 798.907 372.41 799.722C373.673 801.14 373.35 800.325 373.355 802.271C371.366 806.367 367.794 808.351 363.747 810.012C361.589 810.19 360.361 809.872 358.558 808.825C356.55 804.672 364.957 800.577 367.795 798.9Z"/></svg>