<?xml version="1.0" encoding="utf-8" ?><svg xmlns="http://www.w3.org/2000/svg" xmlns:xlink="http://www.w3.org/1999/xlink" width="1024" height="1024" viewBox="0 0 1024 1024"><path fill="white" d="M0 0L1024 0L1024 1024L0 1024L0 0Z"/><path fill="#0D0D0D" d="M622.002 45.1064C624.242 44.8451 628.576 44.7141 630.542 45.7741C646.683 54.4806 662.625 63.695 678.554 72.8C681.712 74.6052 684.809 76.4281 687.488 78.8507C691.236 82.2396 692.654 87.3121 692.799 91.975C693.183 104.364 692.974 116.721 692.97 129.073L692.935 204.649L693.092 447.735C706.79 442.72 719.47 453.205 731.012 460.029L771.16 483.754L879.525 547.317L912.245 566.542C920.598 571.362 937.833 579.229 942.862 587.954C943.645 589.887 944.746 593.327 944.801 595.437C945.218 611.312 945.232 627.394 944.91 643.266C944.782 649.553 941.154 656.356 935.679 659.578C925.123 665.791 914.449 671.948 903.84 678.141L839.077 716.02C756.146 764.722 672.784 812.688 589.002 859.913L458.643 934.798L425.535 953.56C416.861 958.521 407.257 964.384 398.122 968.155C387.304 972.164 374.576 972.687 363.359 970.156C358.31 969.015 353.444 967.18 348.898 964.703C343.217 961.671 336.53 957.303 330.855 953.944C317.965 946.43 305.115 938.848 292.306 931.196L197.802 875.648C169.229 859.041 140.746 842.278 112.356 825.36C104.183 820.431 95.8059 815.77 87.5747 810.941C85.435 809.685 82.9678 806.978 81.6886 804.841C80.1021 802.234 79.0827 799.323 78.6967 796.296C77.8599 789.197 77.7858 745.042 79.2533 740.104C80.5166 735.852 85.2671 730.784 88.848 728.27C94.4153 724.36 100.534 721.086 106.407 717.651L134.79 701.188L208.768 658.784C264.255 627.304 319.386 594.013 374.82 562.346C373.984 534.772 374.781 503.506 374.805 475.571L374.841 329.641L374.91 251.777C374.895 238.528 374.588 224.471 375.243 211.248C376.054 203.056 379.216 195.316 383.358 188.428C391.347 175.14 400.321 170.383 413.178 163.021L437.01 149.382C460.554 135.713 484.187 122.196 507.907 108.834L588.99 62.3308C596.058 58.3485 615.5 46.5835 622.002 45.1064Z"/><path fill="white" d="M676.441 78.4941C685.246 79.3053 687.897 87.8929 687.991 95.4546C688.522 138.178 688.154 180.898 688.051 223.621L688.12 434.543L688.352 557.158L688.329 590.91C688.327 597.878 688.576 607.021 687.727 613.706C686.265 625.221 679.829 637.901 671.794 646.217C665.711 652.513 656.32 656.557 648.691 660.769C638.33 666.362 628.061 672.124 617.889 678.053L522.69 732.917C509.368 740.683 495.999 748.369 482.584 755.972C471.864 762.073 456.825 772.412 444.595 772.659C439.279 771.087 435.28 766.801 433.141 761.759C431.916 758.873 431.637 755.085 431.627 751.947C431.515 717.704 431.648 683.459 431.687 649.216L431.578 465.746L431.596 318.271L431.595 271.533C431.587 262.782 431.41 253.408 431.715 244.911C432.424 229.372 442.102 212.426 455.812 204.858C462.57 201.127 469.164 197.344 475.8 193.524L530.179 162.11L627.676 105.476C640.928 97.8359 663.526 83.5822 676.441 78.4941Z"/><path fill="#0D0D0D" d="M549.274 336.287C550.695 336.654 551.829 337.118 552.998 338.034C570.64 351.846 587.113 367.068 604.59 381.08C606.875 382.912 609.086 384.895 610.843 387.248C610.049 390.759 600.847 410.447 598.771 415.217C584.031 448.406 569.103 481.51 553.987 514.529C552.875 516.671 552.394 517.847 549.912 518.286C545.697 515.895 508.708 449.704 503.488 440.216C501.136 440.26 498.112 440.693 496.67 438.614C498.487 433.623 503.749 427.432 506.276 422.244C517.058 400.1 529.767 378.935 540.308 356.69C543.453 350.054 545.815 342.73 549.274 336.287Z"/><path fill="white" d="M551.581 355.745C554.213 357.277 563.277 365.171 566.185 367.6L596.622 392.885C591.746 400.4 579.695 413.008 573.297 420.091L551.486 443.941C551.222 414.669 551.494 385.03 551.581 355.745Z"/><path fill="white" d="M546.271 355.968L546.549 356.194C547.052 361.991 546.611 377.893 546.637 384.517L546.816 445.424C536.654 443.253 524.443 439.799 514.274 437.098C511.24 436.276 507.384 435.517 504.26 434.811C507.679 428.217 513.277 421.514 516.641 415.129C526.712 396.013 537.828 375.794 546.271 355.968Z"/><path fill="white" d="M511.599 441.72C522.675 443.778 534.803 447.962 546.849 450.195C547.044 464.506 546.433 478.811 546.443 493.122C546.446 496.612 546.386 500.13 546.997 503.577L546.472 503.566C534.821 481.736 524.496 463.032 511.599 441.72Z"/><path fill="white" d="M587.821 411.499C587.722 412.742 554.382 485.459 551.335 491.657C550.976 490.183 551.416 478.419 551.438 475.928C551.511 467.492 551.531 458.98 551.542 450.531C563.237 438.331 576.072 422.916 587.821 411.499Z"/><path fill="white" d="M551.46 344.361C557.601 348.65 569.317 359.125 575.405 364.314C585.284 372.617 595.277 380.782 605.382 388.807C597.705 402.609 554.112 506.457 550.424 509.695L549.451 509.578L547.451 505.722C548.769 504.928 551.175 503.622 551.857 502.337C554.607 497.157 557.099 491.488 559.527 486.163L575.432 450.409L594.569 408.037C597.055 402.567 600.307 396.697 602.437 391.261C599.805 388.4 588.301 379.157 584.583 376.169C573.539 367.296 561.673 356.291 550.354 348.182C550.108 346.425 550.564 346.315 551.46 344.361Z"/><path fill="#0D0D0D" d="M503.994 194.469C505.397 194.361 505.365 194.274 506.653 194.774C508.173 197.026 507.415 242.174 507.38 249.504C503.814 252.727 496.185 256.635 491.702 259.257C479.62 266.333 467.464 273.281 455.235 280.1C453.703 280.467 454.38 280.62 453.113 279.889C450.533 275.447 453.031 244.9 451.911 237.67C451.416 234.475 451.368 225.128 454.644 223.267C471.191 213.868 487.6 204.195 503.994 194.469Z"/><path fill="white" d="M501.427 201.906L502.099 202.023C502.834 203.412 502.237 242.453 502.198 247.436C496.813 250.12 490.98 253.814 485.692 256.89L457.821 272.925L457.654 272.881C456.645 271.71 457.095 233.043 457.161 227.753C471.99 219.265 486.746 210.649 501.427 201.906Z"/><path fill="#0D0D0D" d="M581.559 149.386C582.117 149.429 582.87 149.637 583.441 149.766C585.137 151.782 584.603 155.623 584.595 158.292C584.549 173.648 584.54 189.005 584.52 204.361C579.438 207.873 570.741 212.578 565.213 215.761L532.608 234.62C531.377 234.649 531.464 234.642 530.35 234.098C528.867 230.543 529.531 188.017 529.502 180.307C534.637 176.165 543.937 171.391 549.981 167.899L581.559 149.386Z"/><path fill="white" d="M578.722 156.954L579.082 157.183C579.886 158.706 579.453 196.545 579.437 201.575C564.805 210.302 550.062 218.841 535.212 227.19C534.359 225.149 534.605 187.919 534.588 182.695L578.722 156.954Z"/><path fill="#0D0D0D" d="M512.199 661.417C513.938 661.359 514.119 661.634 515.181 662.705C515.777 665.117 515.605 678.041 515.56 681.542C515.411 693.199 515.782 705.436 515.354 717.037C511.887 720.133 499.28 726.872 494.671 729.478C484.806 735.082 474.977 740.75 465.187 746.483C464.943 746.515 464.702 746.579 464.456 746.579C463.892 746.58 463.142 746.518 462.773 746.053C461.02 743.842 461.632 696.719 462.045 690.543C465.518 687.735 472.193 684.331 476.2 681.951C487.978 674.954 500.679 668.786 512.199 661.417Z"/><path fill="white" d="M509.347 668.924L510.085 669.008C510.787 670.266 510.541 709.78 510.548 714.73C496.101 722.895 481.696 731.133 467.333 739.444L466.874 739.07C466.389 735.232 466.644 727.153 466.672 722.841L466.92 693.499C471.099 690.56 477.846 686.925 482.365 684.373C491.433 679.352 500.428 674.202 509.347 668.924Z"/><path fill="#0D0D0D" d="M657.299 105.501C658.768 105.401 659.377 105.211 660.663 105.921C662.094 108.205 661.494 154.138 661.487 160.656C646.147 170.108 626.986 181.366 611.23 190.107C609.929 190.523 610.027 190.51 608.715 190.116C607.069 188.117 607.828 174.53 607.841 171.166C607.825 158.918 607.888 146.671 608.028 134.424C610.068 132.87 612.109 131.665 614.352 130.445C628.908 122.528 643.082 114.011 657.299 105.501Z"/><path fill="white" d="M655.781 112.468C656.958 113.904 656.547 119.807 656.544 122.009C656.529 134.037 656.488 146.065 656.451 158.093L613.716 182.703C612.544 181.423 612.929 142.758 612.897 137.258C614.861 136.035 617.078 134.815 619.122 133.693C631.494 126.902 643.482 119.369 655.781 112.468Z"/><path fill="#0D0D0D" d="M590.036 616.349C591.156 616.664 590.729 616.476 591.633 617.358C593.37 622.18 592.479 663.619 592.47 671.541C589.631 673.793 576.503 681.14 572.826 683.164C562.832 688.666 551.807 695.714 541.789 700.817L539.896 699.61C537.869 696.845 538.969 652.498 538.945 645.886C542.439 643.102 552.467 637.691 556.888 635.177L590.036 616.349Z"/><path fill="white" d="M586.836 623.944C588.451 626.079 587.468 663.227 587.444 668.919C583.653 671.381 578.605 674.005 574.607 676.336C564.668 682.166 554.673 687.902 544.625 693.543C543.39 691.865 543.98 654.005 543.996 648.755C558.167 640.299 572.449 632.028 586.836 623.944Z"/><path fill="#0D0D0D" d="M664.945 573.362C666.115 573.514 665.943 573.529 667.074 573.961C668.18 576.059 667.744 622.252 667.647 627.998C665.576 629.489 663.133 630.828 660.906 632.092C646.414 640.318 632.297 649.346 617.679 657.33C616.064 657.377 616.805 657.58 615.418 656.58C614.203 653.911 614.539 610.209 614.498 603.274C618.118 600.343 627.105 595.418 631.457 592.891C642.684 586.493 653.848 579.983 664.945 573.362Z"/><path fill="white" d="M662.168 580.961L662.459 581.009C663.293 581.861 662.892 620.229 662.886 624.98C649.605 633.381 634.03 642.049 620.328 649.857L619.989 649.805C619.066 648.554 619.503 610.187 619.509 605.582C623.617 603.662 630.105 599.579 634.278 597.153L662.168 580.961Z"/><path fill="#0D0D0D" d="M591.54 468.281C592.51 468.681 593.135 469.215 593.714 470.106C607.038 490.614 596.332 482.295 594.023 492.019C593.315 495.001 592.305 495.686 589.791 497.24C586.062 494.656 582.334 485.89 580.328 481.575C584.535 475.223 585.275 471.88 591.54 468.281Z"/><path fill="white" d="M589.858 474.896C591.457 475.923 594.889 481.229 594.436 482.863L593.822 482.816C592.588 481.094 589.771 476.934 589.858 474.896Z"/><path fill="#0D0D0D" d="M484.022 411.041C486.634 410.722 487.376 410.617 489.004 412.759C489.567 416.119 485.932 422.746 484.393 426.39C479.287 427.109 474.197 427.93 469.125 428.854C466.444 429.244 465.969 429.515 464.171 427.404C463.249 423.173 465.812 419.326 467.915 415.74C472.454 415.333 479.497 412.614 484.022 411.041Z"/><path fill="white" d="M482.095 418.103L482.767 418.483L482.438 419.268C480.14 420.503 473.954 421.786 471.106 422.473L470.476 422.411L470.217 421.881C471.487 420.284 479.626 418.695 482.095 418.103Z"/><path fill="#0D0D0D" d="M550.614 300.977C551.613 301.095 554.038 301.219 554.264 302.65C554.942 307.496 554.678 312.715 554.566 317.63C554.394 325.203 554.23 327.963 546.633 330.072C545.98 329.884 544.795 329.572 544.396 329.054C541.766 325.638 542.816 310.934 542.925 306.708C545.512 303.773 547.023 302.493 550.614 300.977Z"/><path fill="white" d="M548.657 307.384C550.655 309.104 549.496 321.866 548.653 324.565C547.017 321.335 547.199 310.523 548.657 307.384Z"/><path fill="#0D0D0D" d="M595.43 289.07C603.777 289.051 602.79 294.582 599.822 300.111C597.17 305.049 593.954 313.941 589.468 316.838C586.645 317.073 585.642 317.372 583.622 315.11C581.635 309.844 590.409 291.488 595.43 289.07Z"/><path fill="#BFC2C2" d="M595.948 294.251L596.439 294.434C596.721 295.497 589.785 309.656 588.816 311.724L588.381 311.795C588.075 309.453 594.301 296.706 595.948 294.251Z"/><path fill="#0D0D0D" d="M481.609 460.231C491.773 465.437 486.479 468.868 482.145 477.154C480.149 480.971 476.457 487.751 472.649 489.217C471.511 488.755 470.404 488.217 469.337 487.607C467.639 486.633 467.101 486.04 466.603 484.158C467.511 479.427 477.593 463.835 481.609 460.231Z"/><path fill="#BFC2C2" d="M480.623 468.449C480.706 470.859 474.167 481.1 472.455 483.369C471.519 480.749 478.762 470.968 480.623 468.449Z"/><path fill="#0D0D0D" d="M503.106 348.951C505.715 348.965 506.023 349.213 507.725 351.114L508.3 351.768C516.055 360.479 513.2 366.805 504.37 372.799C501.648 371.915 500.066 369.988 497.823 368.357C490.921 363.34 498.723 353.135 503.106 348.951Z"/><path fill="white" d="M502.789 355.753L504.133 356.112C506.067 358.121 506.983 360.02 507.93 362.638L506.907 362.592C505.223 360.18 503.879 358.504 502.789 355.753Z"/><path fill="#0D0D0D" d="M508.554 494.32C511.606 494.666 514.385 495.855 515.415 498.961C515.061 502.093 504.275 520.67 502.12 523.299C488.554 521.438 500.293 506.635 503.682 501C505.137 498.582 506.583 496.345 508.554 494.32Z"/><path fill="#BFC2C2" d="M509.359 500.847L509.747 501.227C509.591 503.088 502.594 513.485 501.132 515.652L500.681 515.179C500.809 513.188 507.734 503.258 509.359 500.847Z"/><path fill="#0D0D0D" d="M631.552 306.913C639.447 307.249 638.267 313.643 634.872 318.164C631.229 323.015 626.2 330.84 621.918 334.83C606.448 336.168 627.983 309.699 631.552 306.913Z"/><path fill="#0D0D0D" d="M646.005 354.413C653.171 356.14 648.727 364.791 646.992 369.07C642.61 371.635 637.717 373.938 633.144 376.201C631.064 376.139 630.525 375.457 629.48 373.904C629.152 371.334 629.922 370.202 630.479 367.936C632.661 359.045 637.67 358.595 646.005 354.413Z"/><path fill="white" d="M644.541 361.066C644.869 364.965 639.022 365.449 635.979 368.637C635.056 364.792 641.936 362.301 644.541 361.066Z"/><path fill="#0D0D0D" d="M630.92 415.577C632.135 415.442 632.239 415.518 633.48 415.623C638.088 418.732 635.764 425.109 633.156 428.862C630.828 432.213 625.997 430.74 621.867 431.346L621.168 431.454C610.381 431.533 615.983 422.231 620.065 417.867C624.527 417.221 626.625 416.84 630.92 415.577Z"/><path fill="white" d="M630.465 422.197C630.954 423.083 630.762 422.618 630.467 424.007C629.573 424.62 623.714 425.416 621.778 425.838L621.374 425.779L620.992 425.052C622.653 423.155 627.698 422.706 630.465 422.197Z"/><path fill="white" d="M697.267 451.627C699.378 451.441 702.008 451.106 704.106 451.454C710.567 452.527 753.992 479.589 763.17 485.006L819.937 518.341L890.468 559.629C904.039 567.515 917.685 575.176 931.136 583.338C937.317 587.088 941.063 591.454 939.148 599.2C937.433 606.136 928.764 610.153 923 613.554C913.882 618.936 904.698 624.298 895.548 629.668L814.511 676.726C736.729 722.511 658.552 767.619 579.988 812.048L465.429 877.502L428.416 898.757C406.095 911.506 391.123 920.772 364.009 915.008C357.874 913.747 351.953 911.611 346.425 908.666C339.402 904.942 331.351 899.812 324.416 895.702L294.783 878.34L211.506 828.754L139.918 786.772C126.656 779.131 113.569 771.356 100.194 763.761C93.8444 760.216 82.5489 754.085 83.2048 745.427C84.0844 733.815 103.534 725 112.321 719.908L149.01 698.744L265.697 631.245L374.925 567.872L374.95 607.632C367.799 611.093 360.782 615.552 353.886 619.586C343.822 625.471 333.719 631.29 323.578 637.042L204.462 705.426C191.726 712.742 164.931 727.683 151.38 736.529C150.947 736.812 151.297 737.592 151.452 738.253C153.628 740.759 178.629 754.599 182.764 757.013L278.377 812.596L352.313 855.691C365.313 863.278 380.375 872.559 393.542 879.491C402.793 874.922 418.148 865.235 427.668 859.837L515.967 808.95L708.101 698.586L819.039 634.244L851.523 615.147C856.356 612.298 861.473 609.354 866.255 606.395C867.424 605.672 867.379 604.7 867.486 603.623C864.013 599.813 831.838 581.768 825.37 577.937L734.447 523.607C721.046 515.523 706.003 507.333 693.094 498.726L693.037 470.414C693.035 465.626 692.802 458.084 693.349 453.496C694.289 452.201 695.643 452.086 697.267 451.627Z"/><path fill="#0D0D0D" d="M216.264 800.097C217.697 800.006 220.335 799.954 221.613 800.665C242.592 812.337 263.211 824.886 283.907 837.079C292.402 842.083 288.957 848.117 280.981 850.769C278.423 850.735 275.733 850.678 273.449 849.382C266.488 845.43 259.771 840.997 252.854 836.959L223.955 820.348C220.353 818.233 210.166 813.066 208.514 809.521C206.035 804.204 211.874 801.375 216.264 800.097Z"/><path fill="white" d="M216.691 804.871C220.476 804.584 227.844 809.684 231.341 811.738L254.804 825.667C258.577 827.917 281.835 841.048 282.828 843.286C282.371 844.953 282.553 844.407 280.737 845.659C279.66 845.632 278.573 845.606 277.503 845.467C275.527 845.21 214.812 808.98 213.66 807.385C214.514 805.788 214.863 805.985 216.691 804.871Z"/><path fill="#0D0D0D" d="M723.187 484.411C724.473 484.837 734.195 490.719 735.552 491.705C739.4 494.501 764.125 507.434 764.654 510.647C763.248 513.417 760.479 514.3 757.682 515.639C755.053 515.288 718.47 493.65 716.197 491.24L716.351 489.836C717.943 487.391 720.617 486.111 723.187 484.411Z"/><path fill="#0D0D0D" d="M795.243 527.45C798.831 527.225 803.577 531.215 805.986 533.744C803.013 535.968 801.072 537.038 797.804 538.853C794.964 539.27 786.821 536.002 788.782 532.074C790.032 529.57 792.926 528.611 795.243 527.45Z"/><path fill="#0D0D0D" d="M776.343 515.902C779.718 516.223 785.001 518.873 784.828 522.888C783.428 525.573 781.755 525.843 778.917 526.833C775.959 526.853 772.265 525.639 770.547 523.097C769.78 518.427 772.704 517.776 776.343 515.902Z"/><path fill="white" d="M693.148 505.138C695.128 505.913 707.896 513.742 710.328 515.185L753.182 540.665L815.93 578.232C828.382 585.528 848.263 596.311 859.351 604.273C855.093 607.25 847.678 611.42 843.065 614.171C831.624 620.963 820.141 627.684 808.617 634.333L706.407 693.485L528.014 796.336L445.783 843.845C428.79 853.673 410.431 864.68 393.225 873.913C381.419 867.484 367.38 858.68 355.51 851.75L283.395 809.727L159.056 737.466C163.858 734.938 168.605 731.918 173.246 729.076C184.441 722.112 197.421 714.939 208.934 708.355L260.038 679.084L374.921 613.053L374.921 689.539C354.871 689.231 338.533 690.514 319.467 698.034C305.038 703.831 289.46 713.407 283.278 728.306C269.872 760.617 297.658 783.616 324.986 794.122C330.627 796.29 335.364 797.373 341.108 798.976C374.265 808.227 411.236 807.435 443.29 794.47C456.249 789.101 466.812 781.153 472.184 767.832L594.291 697.785C602.401 701.646 611.555 706.692 619.624 710.88C629.744 704.597 640.964 698.805 650.762 692.411C647.197 690.378 642.84 688.459 639.054 686.446C648.279 680.106 658.883 675.132 668.525 668.808C664.689 666.795 660.024 664.942 655.99 663.226C662.997 659.561 668.488 656.569 674.169 650.953C682.434 642.67 688.302 632.304 691.15 620.955C694.096 609.154 693.098 586.381 693.09 573.234L693.148 505.138Z"/><path fill="white" d="M623.286 49.554C629.496 49.2703 636.203 54.6586 641.659 57.6853C651.751 63.2842 661.596 69.3046 671.764 74.7929C663.487 78.5989 655.185 83.5708 647.259 88.1355L615.378 106.57L516.785 164.015L469.349 191.469C451.181 201.929 438.406 206.533 430.423 228.1C424.926 242.953 426.842 258.97 426.821 274.654L426.874 337.281L427.044 502.119L426.989 672.638L426.979 726.816C426.979 736.34 426.94 745.955 427.074 755.482C427.131 759.542 428.424 762.496 430.014 766.111C418.71 760.773 407.726 753.877 396.418 748.531C384.693 742.988 379.834 736.617 379.776 723.343C379.74 715.193 379.847 706.856 379.833 698.695L379.719 644.973L379.764 473.154L379.639 312.713C379.593 280.391 379.546 248.087 379.956 215.733C380.144 200.841 388.8 185.685 400.383 176.492C404.57 173.17 411.24 169.702 415.993 166.979L440.643 152.933L519.883 107.822L588.59 68.2104C597.39 63.2019 614.802 52.8337 623.286 49.554Z"/><path fill="#0D0D0D" d="M393.306 306.88C398.404 306.97 406.3 312.596 410.544 315.545C411.457 346.53 409.91 378.476 410.388 409.547C410.433 412.467 409.881 413.733 407.706 415.629C403.024 415.244 394.004 408.903 390.738 405.729C390.536 401.424 390.616 396.697 390.608 392.362L390.736 336.997C390.768 328.299 390.665 319.002 391.051 310.285C391.112 308.901 392.322 307.868 393.306 306.88Z"/><path fill="white" d="M395.562 312.624C399.084 313.607 402.469 315.738 405.517 317.694L405.502 409.912C403.769 409.211 397.427 404.956 395.512 403.721L395.562 312.624Z"/><path fill="#0D0D0D" d="M393.956 429.27C398.701 429.525 406.459 435.402 410.476 438.198L410.395 503.568C410.384 513.375 410.701 523.455 410.405 533.25C410.322 536.019 409.251 536.564 407.137 538.368C403.517 538.576 398.191 534.627 394.882 532.945C391.38 531.164 390.886 529.67 390.895 525.88C390.962 495.119 390.547 464.287 391.155 433.544C391.183 432.102 393.034 430.244 393.956 429.27Z"/><path fill="white" d="M395.813 434.738C399.542 436.404 402.066 438.085 405.531 440.277C404.892 462.144 405.862 485.098 405.467 507.007C405.375 512.122 405.887 528.995 405.098 532.962C402.014 531.124 398.868 529.392 395.665 527.769C395.601 497.701 394.917 464.515 395.813 434.738Z"/><path fill="white" d="M939.38 608.498C940.191 609.91 940.082 646.393 938.675 648.617C933.419 656.927 908.287 669.618 899.251 674.968L810.914 726.424C703.795 789.04 596.255 850.933 488.302 912.1C463.065 926.567 437.219 940.875 412.158 955.562C410.958 953.929 411.457 918.871 411.464 913.867C542.192 840.034 672.473 765.411 802.298 690.001L892.731 637.163C903.046 631.141 931.865 615.608 939.38 608.498Z"/><path fill="#0D0D0D" d="M795.954 707.844L797.273 708.243C799.169 710.855 798.29 719.52 798.182 723.06C795.842 724.697 786.553 729.866 783.747 731.383C775.997 735.572 765.34 742.921 757.702 746.043C753.698 743.57 753.844 734.205 756.777 731.667C760.502 728.442 766.625 725.224 770.992 722.636L795.954 707.844Z"/><path fill="white" d="M792.341 716.461C792.93 717.042 792.67 716.815 792.848 717.939C791.418 720.128 765.328 735.41 760.721 738.21C759.996 737.282 760.188 737.686 760.041 736.475C761.445 734.793 788.638 718.752 792.341 716.461Z"/><path fill="#0D0D0D" d="M847.41 679.401C848.743 679.332 848.676 679.264 849.844 679.876C851.689 682.735 850.757 689.314 850.54 693.004C848.615 694.445 846.503 695.613 844.436 696.836C834.164 702.916 823.773 708.785 813.732 715.247C811.906 715.575 812.672 715.775 811.296 714.929C809.691 712.305 810.507 704.831 810.672 701.386C812.985 699.538 820.411 695.304 823.296 693.585C831.293 688.787 839.331 684.059 847.41 679.401Z"/><path fill="white" d="M845.35 686.987C845.51 687.786 845.397 687.75 845.235 688.625C842.696 691.623 820.415 704.122 815.748 706.853L815.709 705.496C817.12 702.947 840.642 689.742 845.35 686.987Z"/><path fill="white" d="M83.818 758.317C90.2031 764.338 101.116 769.93 108.841 774.46C121.915 782.126 135.24 789.5 148.298 797.213L279.663 875.227C294.817 884.009 309.921 892.877 324.975 901.829C331.691 905.773 338.507 909.463 345.078 913.645C345.254 928.062 345.279 942.481 345.152 956.898L169.604 853.346L114.117 820.907C108.05 817.343 90.7147 807.717 86.7266 803.75C81.8571 798.905 83.7584 766.201 83.818 758.317Z"/><path fill="white" d="M361.263 694.214C365.803 693.93 370.5 694.209 375.025 694.552C375.051 705.577 375.007 716.601 374.891 727.625C367.981 723.113 361.211 718.106 354.277 713.492C346.93 718.308 339.608 723.164 332.313 728.059C336.763 730.379 340.958 733.159 344.828 736.354C340.849 738.563 314.982 753.564 314.537 755.102C317.029 757.777 332.405 768.004 336.501 770.821C341.201 768.414 347.705 764.126 352.187 761.24C358.839 765.654 365.153 769.846 371.581 774.569C381.694 768.68 392.205 762.494 402.74 757.41C415.507 762.473 427.381 771.488 440.262 776.401C445.135 778.26 449.754 777.558 454.625 776.169C458.079 774.93 461.761 773.004 465.092 771.368C452.789 790.382 422.012 798.261 400.56 799.926C367.2 802.279 326.268 794.797 299.55 773.857C282.491 760.487 279.557 736.397 294.295 720.29C310.87 702.174 337.795 695.704 361.263 694.214Z"/><path fill="white" d="M350.194 916.07C370.54 923.107 385.801 923.268 406.223 916.561C406.135 925.059 406.164 933.558 406.312 942.056C406.385 946.84 406.536 952.391 406.322 957.217C406.267 958.469 404.692 959.235 403.534 960.095C388.001 969.264 365.267 969.273 350.069 959.338C349.687 946.654 349.832 928.751 350.194 916.07Z"/><path fill="#0D0D0D" d="M215.31 375.12C226.946 374.596 231.656 379.327 241.275 385.114C249.249 389.962 257.268 394.737 265.33 399.437L316.893 429.411C325.348 434.368 334.033 439.412 342.339 444.608C345.588 446.641 346.748 448.318 347.481 451.712C348.041 454.3 347.666 462.189 345.568 463.532C328.435 474.493 300.128 490.108 283.663 499.704L236.389 527.347C228.242 532.049 218.997 538.878 209.869 540.431C199.751 540.681 191.467 533.892 183.046 528.783C174.539 523.659 165.989 518.605 157.398 513.624C139.741 503.284 122.151 492.831 104.628 482.265C97.1226 477.756 88.4623 472.993 81.4911 467.897C75.7811 463.723 76.5284 455.164 82.9847 451.594C90.0459 447.689 97.0852 443.469 104.005 439.423L149.822 412.593L189.133 389.385C194.81 386.031 209.845 376.4 215.31 375.12Z"/><path fill="white" d="M215.811 380.219C218.24 380.122 221.996 379.895 224.087 380.984C229.473 383.79 235.138 387.436 240.349 390.573C249.84 396.229 259.359 401.837 268.907 407.395L317.805 435.793C323.186 438.952 336.55 446.468 340.985 449.958C341.731 451.696 341.595 451.753 341.369 453.579C339.909 455.059 328.217 461.506 325.787 462.903L281.754 488.021L236.293 514.686C230.553 518.038 218.621 525.439 212.959 527.727C201.797 529.057 195.788 523.429 186.587 517.979L157.625 500.692C141.405 491.267 125.276 481.685 109.24 471.948C103.13 468.234 92.2111 462.284 87.3944 457.672L87.5003 456.672C88.6324 455.086 90.0306 453.999 91.7036 453C123.901 433.774 156.13 414.423 188.567 395.608C193.04 393.014 212.556 380.844 215.811 380.219Z"/><path fill="#0D0D0D" d="M236.779 449.704C244.799 449.223 258.341 452.137 264.443 457.377C286.691 476.481 261.674 489.806 243.943 491.992C232.599 492.082 223.222 490.063 214.114 483.455C196.586 470.739 208.966 455.734 225.001 451.659C229.536 450.507 232.111 450.071 236.779 449.704Z"/><path fill="white" d="M227.213 455.449C229.133 456.159 235.18 460.519 237.316 461.834C246.685 467.603 255.594 473.12 264.558 479.508C259.859 482.791 257.521 484.251 252.123 486.113C248.893 484.521 240.791 478.897 237.203 476.482C230.556 472.007 220.625 466.539 214.595 461.76C219.218 458.358 221.769 457.415 227.213 455.449Z"/><path fill="white" d="M212.344 464.195C216.073 466.047 245.501 485.085 247.215 487.098L246.856 487.953C237.03 488.607 227.977 486.929 219.48 481.8C212.704 477.71 207.393 472.039 212.344 464.195Z"/><path fill="white" d="M237.891 453.703C248.126 453.346 270.115 458.554 268.393 473.713C268.244 475.017 267.503 475.479 266.492 476.077L264.96 475.59C257.327 471.326 239.301 459.469 231.777 454.332C233.668 454.053 235.956 453.892 237.891 453.703Z"/><path fill="#0D0D0D" d="M170.918 418.636C208.512 414.19 233.979 448.802 187.715 458.426C176.876 459.935 165.442 458.679 156.212 453.002C143.748 445.337 142.989 432.247 155.67 424.652C161.402 421.219 164.457 419.915 170.918 418.636Z"/><path fill="white" d="M165.297 424.437C175.971 432.586 190.656 440.198 202.226 448.643C198.169 451.142 194.341 452.404 189.861 453.922C187.082 453.649 158.492 435.634 153.844 432.477C157.337 428.515 160.65 426.628 165.297 424.437Z"/><path fill="white" d="M176.44 422.205C181.916 422.185 187.357 423.086 192.535 424.87C199.519 427.329 210.342 433.423 207.098 443.148C206.579 444.701 205.72 445.118 204.302 445.74L202.779 445.09C192.437 437.748 179.282 430.082 168.368 423.397C171.448 422.64 173.288 422.504 176.44 422.205Z"/><path fill="white" d="M152.521 435.313C152.863 435.489 153.203 435.668 153.541 435.851C157.369 437.912 181.955 452.826 182.663 455.165C171.512 455.205 147.558 451.453 152.521 435.313Z"/><path fill="#7A7B7E" d="M341.361 459.499L341.736 459.946C340.678 461.863 316.269 475.119 312.553 477.265C291.767 489.206 271.048 501.265 250.399 513.441C239.88 519.565 229.406 525.828 218.728 531.659C211.409 535.655 205.185 535.46 197.922 531.505C183.049 523.406 168.799 514.182 154.211 505.605L108.53 478.499C103.063 475.276 87.474 466.623 83.448 462.923L83.4411 461.528L84.209 461.75C87.3511 465.952 102.111 473.627 107.499 476.845C122.044 485.614 136.634 494.309 151.268 502.929L179.993 520.017C186.587 523.939 197.292 530.946 204.429 533.029C214.698 536.025 231.08 523.113 239.808 518.328C249.339 513.103 258.745 507.439 267.928 501.934C292.305 487.614 316.783 473.469 341.361 459.499Z"/><path fill="#0D0D0D" d="M796.246 199.936C796.48 204.935 784.845 240.118 782.418 246.73C781.026 250.52 776.722 258.729 774.522 262.715C784.401 252.444 789.155 251.081 802.017 244.738C810.288 240.565 818.599 236.47 826.947 232.454C816.186 245.846 801.142 258.99 789.819 272.29C785.459 277.411 779.165 283.093 776.256 289.154C793.88 281.315 802.34 276.484 821.197 270.757C818.798 274.21 812.212 281.054 809.16 284.385C799.653 294.875 789.885 305.126 779.865 315.129C774.734 320.192 769.698 325.35 764.757 330.599C769.343 319.288 783.507 297.286 791.172 287.313C783.012 292.129 759.524 301.782 749.84 305.171C759.019 294.35 768.467 283.565 776.929 272.173C780.628 267.194 784.239 262.19 788.13 257.354C784.504 260.025 781.328 263.09 777.377 265.76C769.672 270.97 761.62 275.57 753.372 279.839C763.331 258.604 774.096 237.758 785.645 217.345C788.083 213.082 793.425 203.327 796.246 199.936Z"/><path fill="white" d="M783.833 229.896C784.438 235.52 771.24 260.528 767.314 266.193C766.866 266.84 764.325 268.92 763.545 269.537C763.465 267.484 771.454 254.301 772.99 251.358C776.54 244.556 779.788 236.24 783.833 229.896Z"/><path fill="white" d="M804.559 280.503L804.795 280.717C804.773 282.534 785.198 303.297 782.656 305.949L782.345 305.649C787.138 299.198 795.807 289.129 799.584 282.972L804.559 280.503Z"/><path fill="white" d="M791.916 254.996L792.146 255.209C792.688 257.183 793.345 259.2 793.954 261.161C788.083 266.72 784.607 272.461 779.347 277.719C780.149 271.806 787.934 266.326 790.285 260.885C790.886 259.496 790.031 258.707 789.245 257.43C789.704 255.95 790.205 256.09 791.916 254.996Z"/><path fill="white" d="M776.741 278.788C777.582 279.505 777.326 279.043 777.443 280.207C775.845 283.386 771.971 285.4 772.242 288.48C772.969 289.168 773.708 289.759 774.543 290.31C772.851 291.011 771.168 291.736 769.496 292.485L766.473 293.871L766.266 293.574C769.677 288.968 773.19 282.871 776.741 278.788Z"/><path fill="white" d="M806.34 247.568L806.47 247.633L806.492 248.192C803.045 251.334 799.661 254.763 796.332 258.046C793.89 253.6 803.072 248.884 806.34 247.568Z"/><path fill="#0D0D0D" d="M277.358 78.3323C282.878 83.178 311.603 143.629 316.126 153.446C307.665 149.28 298.756 145.309 290.198 141.249C300.269 154.573 307.881 164.215 318.798 176.862C310.875 173.369 293.394 168.771 284.385 166.275C289.621 172.825 301.979 198.033 306.608 206.927C301.067 201.499 294.058 193.284 288.779 187.425L266.763 161.604C263.495 157.747 257.254 150.586 254.565 146.469C266.513 149.636 278.27 152.903 290.357 155.5C276.027 136.452 260.53 123.642 243.631 107.34C252.95 112.226 262.207 115.991 271.731 120.358C278.612 123.513 285.819 127.364 292.577 130.871C287.099 117.299 281.579 93.4616 277.358 78.3323Z"/><path fill="white" d="M289.712 109.637C296.047 119.689 301.524 134.302 307.43 144.959C303.619 142.833 283.923 132.843 280.573 133.54L280.179 134.381C280.786 135.551 280.866 135.767 281.69 136.775L280.777 137.187C276.885 133.007 271.585 127.392 267.387 123.542C272.171 125.85 295.518 137.643 298.606 137.312C299.713 134.791 291.125 113.972 289.712 109.637Z"/><path fill="white" d="M291.148 149.281C295.703 155.672 299.975 161.485 305.045 167.505C299.606 165.762 280.486 159.216 276.203 160.977C275.963 161.775 275.822 161.604 276.176 162.159C280.564 169.044 285.443 174.129 289.645 181.372C281.965 173.938 274.55 162.399 266.179 153.917C274.607 156.931 287.491 160.618 296.282 160.538C294.7 157.048 293.149 153.991 290.975 150.81L291.148 149.281Z"/><path fill="#BFC2C2" d="M281.69 136.775C285.376 141.082 287.889 144.66 291.148 149.281L290.975 150.81C287.429 145.772 284.721 141.965 280.777 137.187L281.69 136.775Z"/><path fill="#0D0D0D" d="M627.285 916.935C629.204 919.426 630.278 943.787 630.579 948.959C642.852 949.226 652.635 950.457 664.768 951.985C652.307 954.492 642.922 954.993 630.364 955.422C629.642 964.823 629.912 976.052 627.243 985.127C625.305 977.854 624.651 963.121 624.473 955.315C610.321 954.812 601.841 953.46 588.025 952.013C601.63 950.335 610.889 949.482 624.474 949.318C624.584 938.92 625.399 927.124 627.285 916.935Z"/><path fill="#0D0D0D" d="M905.648 789.383C907.822 791.702 908.777 813.728 908.899 818.296C921.18 818.085 931.745 817.972 943.954 820.383C930.323 822.9 922.569 823.245 908.847 823.422C908.539 832.687 908.116 839.515 906.85 848.734C906.65 850.336 906.788 850.29 906.182 851.725L905.502 850.47L906.614 850.339L906.682 850.064L905.325 849.685C903.715 841.165 903.412 832.137 903.347 823.5C890.208 823.409 881.767 822.218 868.865 819.846C881.095 818.815 890.985 818.367 903.236 818.109C903.349 810.62 903.941 796.561 905.648 789.383Z"/><path fill="#0D0D0D" d="M139.655 577.871C141.301 579.825 142.683 604.569 142.89 608.469C153.099 608.941 163.28 609.907 173.396 611.362C163.962 612.878 152.443 613.687 142.793 614.6C142.441 618.283 140.807 640.672 139.741 642.076C139.398 634.567 137.456 622.833 136.77 614.577C127.31 614.337 113.23 612.525 103.545 611.57C114.713 610.117 124.867 609.365 136.115 608.723C136.886 598.396 138.067 588.104 139.655 577.871Z"/></svg>